<?xml version="1.0" encoding="UTF-8"?>
<svg version="1.1" xmlns="http://www.w3.org/2000/svg" width="320" height="320">
<path d="M0 0 C0.66 0 1.32 0 2 0 C3.4453125 1.50390625 3.4453125 1.50390625 5.125 3.5625 C8.73659577 7.82798469 12.70858022 11.43310564 17 15 C16.43023044 18.53180065 15.27795024 20.00980967 12.62109375 22.35546875 C11.94755859 22.97873047 11.27402344 23.60199219 10.58007812 24.24414062 C9.15921248 25.53289296 7.72692596 26.80917176 6.28320312 28.07226562 C2.35958713 31.65705092 2.35958713 31.65705092 0.53564453 36.49462891 C0.53520973 38.71515839 0.66157108 40.8073219 1 43 C1.44915771 42.52054932 1.89831543 42.04109863 2.36108398 41.54711914 C4.3863837 39.38541794 6.41193851 37.22395592 8.4375 35.0625 C9.14455078 34.30775391 9.85160156 33.55300781 10.58007812 32.77539062 C11.25361328 32.05673828 11.92714844 31.33808594 12.62109375 30.59765625 C13.55586548 29.60004272 13.55586548 29.60004272 14.50952148 28.58227539 C16.93594141 26.00641502 16.93594141 26.00641502 19.73046875 25.7265625 C30.21301206 25.41860078 30.21301206 25.41860078 33.75 28.3125 C37.24415444 32.48607336 37.1199613 35.5691718 37.09765625 40.85546875 C37.0962413 41.51710526 37.09482635 42.17874176 37.09336853 42.86042786 C37.08777996 44.96949828 37.07522965 47.07846177 37.0625 49.1875 C37.05748352 50.61913909 37.05292087 52.05077985 37.04882812 53.48242188 C37.0378143 56.98831588 37.02055755 60.4941475 37 64 C39.31 64 41.62 64 44 64 C42.6415798 67.04332765 41.11536976 69.12309151 38.7421875 71.453125 C38.11699219 72.071875 37.49179688 72.690625 36.84765625 73.328125 C36.19667969 73.96234375 35.54570312 74.5965625 34.875 75.25 C34.21628906 75.8996875 33.55757813 76.549375 32.87890625 77.21875 C31.25703357 78.81711727 29.6306719 80.41061897 28 82 C24.56990378 79.1682054 21.21574399 76.34533443 18.2265625 73.04296875 C12.64133257 66.56309566 12.64133257 66.56309566 4.8125 63.8125 C3.554375 63.874375 2.29625 63.93625 1 64 C1 64.66 1 65.32 1 66 C1.59401611 66.26876953 2.18803223 66.53753906 2.80004883 66.81445312 C5.00560129 68.00301852 6.4427882 69.19836867 8.19921875 70.96875 C8.76833984 71.53980469 9.33746094 72.11085938 9.92382812 72.69921875 C10.50583984 73.29347656 11.08785156 73.88773437 11.6875 74.5 C12.28111328 75.09425781 12.87472656 75.68851562 13.48632812 76.30078125 C19.14317719 82.01568236 19.14317719 82.01568236 19.25 87.25 C19.18096813 91.5437822 18.55165887 94.42767758 16 98 C11.48326258 100.78362835 8.11592042 101.36046052 2.8515625 101.29296875 C1.86547501 101.28660149 1.86547501 101.28660149 0.85946655 101.28010559 C-1.21912391 101.26344977 -3.29670774 101.2258262 -5.375 101.1875 C-6.79295464 101.17243605 -8.21092464 101.15875065 -9.62890625 101.14648438 C-13.0862589 101.11359038 -16.54303103 101.06190165 -20 101 C-20 103.31 -20 105.62 -20 108 C-24.43626553 105.97699054 -27.38251359 103.02132242 -30.8125 99.625 C-31.42287109 99.0475 -32.03324219 98.47 -32.66210938 97.875 C-33.23380859 97.31039062 -33.80550781 96.74578125 -34.39453125 96.1640625 C-34.91893799 95.65311035 -35.44334473 95.1421582 -35.98364258 94.61572266 C-37 93 -37 93 -36.76293945 90.92285156 C-35.75743119 88.38864897 -34.33684777 87.01110075 -32.375 85.125 C-31.66085938 84.42503906 -30.94671875 83.72507812 -30.2109375 83.00390625 C-28.21729914 81.19695134 -26.16685173 79.65005055 -24 78.0625 C-21.86564954 76.30277893 -21.06724302 75.52051699 -20.70703125 72.73217773 C-20.74183594 71.93239502 -20.77664062 71.1326123 -20.8125 70.30859375 C-20.83957031 69.50091553 -20.86664063 68.6932373 -20.89453125 67.86108398 C-20.92933594 67.24692627 -20.96414062 66.63276855 -21 66 C-21.4626123 66.51498047 -21.92522461 67.02996094 -22.40185547 67.56054688 C-24.53241273 69.90018988 -26.70239458 72.19937911 -28.875 74.5 C-29.60203125 75.31082031 -30.3290625 76.12164062 -31.078125 76.95703125 C-36.57511668 82.69511906 -36.57511668 82.69511906 -40.69848633 83.57739258 C-46.69167678 83.65740339 -50.12140506 82.36456013 -54.75 78.5625 C-57.60020714 74.99974107 -57.11682665 70.63647646 -57.09765625 66.265625 C-57.09443359 64.97011719 -57.09121094 63.67460937 -57.08789062 62.33984375 C-57.07953598 60.97656183 -57.07107104 59.61328058 -57.0625 58.25 C-57.05748168 56.87109535 -57.05291935 55.49218896 -57.04882812 54.11328125 C-57.03704093 50.74214341 -57.02058635 47.37109372 -57 44 C-59.31 44 -61.62 44 -64 44 C-59.01595832 37.96668638 -53.58084697 32.4815829 -48 27 C-44.96030963 28.34355962 -43.03627438 29.78626146 -40.828125 32.2578125 C-40.24546875 32.88300781 -39.6628125 33.50820312 -39.0625 34.15234375 C-37.85737339 35.46395784 -36.66449308 36.78693371 -35.484375 38.12109375 C-32.18742963 41.71686104 -32.18742963 41.71686104 -27.76367188 43.42871094 C-25.31819162 43.47438406 -25.31819162 43.47438406 -22 43 C-22.4846875 42.58339111 -22.969375 42.16678223 -23.46875 41.73754883 C-37.11750222 29.77356446 -37.11750222 29.77356446 -39.203125 23.21875 C-39.26907565 18.4263364 -38.84795094 15.36333397 -36.296875 11.26171875 C-32.88045502 7.89759092 -29.48469648 7.10367681 -24.74853516 6.77294922 C-23.60690918 6.78342285 -22.4652832 6.79389648 -21.2890625 6.8046875 C-20.04511719 6.81113281 -18.80117187 6.81757812 -17.51953125 6.82421875 C-15.59173828 6.84935547 -15.59173828 6.84935547 -13.625 6.875 C-12.31660156 6.88402344 -11.00820312 6.89304687 -9.66015625 6.90234375 C-6.4399163 6.92584915 -3.22005293 6.95870913 0 7 C0 4.69 0 2.38 0 0 Z " fill="#FAFCFA" transform="translate(169,105)"/>
<path d="M0 0 C5.96594208 3.34813601 9.25115292 7.86615182 12.0625 14 C13.53784531 21.08165749 13.04819803 27.54835896 9.6875 34 C5.4510637 39.59014813 0.66775431 43.65409085 -6.3125 45 C-14.07237795 45.95464228 -20.00679869 44.1389832 -26.5 39.9375 C-31.77225153 35.09858421 -34.57616522 28.58617648 -34.9375 21.5 C-34.60273762 14.93493785 -32.21633536 9.32664655 -27.890625 4.37109375 C-19.91086993 -2.81497601 -9.70520482 -4.32641661 0 0 Z " fill="#274A8B" transform="translate(247.3125,215)"/>
<path d="M0 0 C5.31028691 5.31028691 7.60666094 10.51613973 8.4375 17.875 C8.08402121 25.07182819 5.38633064 31.15923906 0.0625 36 C-6.67872702 41.57524939 -13.52666831 41.801115 -22 41 C-28.6519622 39.27420357 -33.18023266 34.5438245 -37 29 C-39.93032576 23.02213544 -40.20899818 15.98642643 -38.27734375 9.6171875 C-34.96789222 2.56952958 -29.84057571 -1.57971215 -23 -5 C-14.86936153 -7.85671081 -6.41232172 -5.2958907 0 0 Z " fill="#00A758" transform="translate(252,64)"/>
<path d="M0 0 C5.26021376 3.55634038 9.16272141 8.33580759 11.07421875 14.40234375 C11.91339208 22.02320852 11.90547003 29.16019608 7.07421875 35.40234375 C2.40708274 40.57754773 -3.00113382 43.71116516 -9.9296875 44.68359375 C-17.14903212 45.02266277 -22.72448559 42.64603321 -28.23828125 38.08984375 C-33.57459785 33.06742813 -35.48098301 28.22691828 -35.98046875 20.984375 C-35.82618127 13.69980202 -32.83552488 8.32934074 -27.8671875 3.1328125 C-19.83850108 -4.02354179 -9.59030025 -4.83819456 0 0 Z " fill="#00A758" transform="translate(93.92578125,215.59765625)"/>
<path d="M0 0 C5.39899851 5.26056265 7.75386011 10.35990765 8 17.9375 C7.63013815 26.08394431 5.46216348 30.74993237 -0.5 36.25 C-6.35086158 41.25173057 -11.73502064 41.89082446 -19.26953125 41.74609375 C-26.14586476 40.97118072 -30.70451367 37.80740379 -35 32.5 C-39.18859216 26.25201669 -40.10013838 20.55117141 -39.2265625 13.15625 C-37.61415195 6.40309521 -33.2266622 0.99740762 -27.40625 -2.69140625 C-17.72022481 -7.59598257 -8.87009789 -5.62494012 0 0 Z " fill="#274A8B" transform="translate(97.5625,63.625)"/>
<path d="M0 0 C0 0.66 0 1.32 0 2 C-1.28970703 2.20302734 -1.28970703 2.20302734 -2.60546875 2.41015625 C-18.63046936 5.32855876 -30.31071699 13.92988965 -42.734375 24.03125 C-61.29372672 39.11189141 -61.29372672 39.11189141 -73 41 C-72.84015625 40.28457031 -72.6803125 39.56914063 -72.515625 38.83203125 C-70.63436271 28.49934066 -72.5278452 20.8596792 -78 12 C-78 11.34 -78 10.68 -78 10 C-52.65701531 -2.79730858 -27.74674298 -4.96956591 0 0 Z " fill="#274A8B" transform="translate(182,52)"/>
<path d="M0 0 C0.66 0 1.32 0 2 0 C2.0515625 0.6084375 2.103125 1.216875 2.15625 1.84375 C4.44026113 19.49292694 16.29380338 34.55343996 27.6875 47.5625 C34.12796517 54.94170664 39.78530362 63.06022838 41 73 C40.01 72.835 39.02 72.67 38 72.5 C29.12778316 71.31112294 23.24838964 72.62173578 15 76 C13.33333333 76.66666667 11.66666667 77.33333333 10 78 C-2.7684542 52.39135871 -5.04916556 27.92068336 0 0 Z " fill="#00A758" transform="translate(52,136)"/>
<path d="M0 0 C12.48809931 25.04635647 16.41907355 50.64251987 10 78 C8.05615798 75.08423697 7.51469883 73.40070449 6.75 70.0625 C3.23189653 56.82607111 -4.50399195 46.47586828 -13.22265625 36.1796875 C-20.98883701 26.95853701 -29.08117176 17.31248123 -31 5 C-30.29359375 5.15855469 -29.5871875 5.31710938 -28.859375 5.48046875 C-16.81423671 7.66899797 -9.92623609 0 0 0 Z " fill="#00A758" transform="translate(256,104)"/>
<path d="M0 0 C1 2 1 2 0.5625 4.125 C-1.06609248 12.44891712 0.3554812 19.65543339 4.75 26.875 C5.1625 27.57625 5.575 28.2775 6 29 C5 32 5 32 2 33.68359375 C0.67372246 34.28406375 -0.66029398 34.8676192 -2 35.4375 C-2.70825928 35.74316895 -3.41651855 36.04883789 -4.14624023 36.36376953 C-25.68963192 45.28561308 -49.46467738 46.35492815 -72 41 C-68.79589387 39.2369751 -65.65092074 38.31583172 -62.125 37.375 C-49.59028129 33.56680631 -39.86036745 26.43624285 -30 18 C-11.38497681 2.40527679 -11.38497681 2.40527679 0 0 Z " fill="#274A8B" transform="translate(208,225)"/>
<path d="M0 0 C0.495 0.99 0.495 0.99 1 2 C2.33098732 2.67133821 3.66462908 3.33742418 5 4 C6.6315918 5.38867188 6.6315918 5.38867188 8.19921875 6.96875 C9.05290039 7.82533203 9.05290039 7.82533203 9.92382812 8.69921875 C10.50583984 9.29347656 11.08785156 9.88773438 11.6875 10.5 C12.28111328 11.09425781 12.87472656 11.68851563 13.48632812 12.30078125 C19.14317719 18.01568236 19.14317719 18.01568236 19.25 23.25 C19.18096813 27.5437822 18.55165887 30.42767758 16 34 C11.48326258 36.78362835 8.11592042 37.36046052 2.8515625 37.29296875 C1.86547501 37.28660149 1.86547501 37.28660149 0.85946655 37.28010559 C-1.21912391 37.26344977 -3.29670774 37.2258262 -5.375 37.1875 C-6.79295464 37.17243605 -8.21092464 37.15875065 -9.62890625 37.14648438 C-13.0862589 37.11359038 -16.54303103 37.06190165 -20 37 C-20 39.31 -20 41.62 -20 44 C-24.43626553 41.97699054 -27.38251359 39.02132242 -30.8125 35.625 C-31.42287109 35.0475 -32.03324219 34.47 -32.66210938 33.875 C-33.23380859 33.31039062 -33.80550781 32.74578125 -34.39453125 32.1640625 C-34.91893799 31.65311035 -35.44334473 31.1421582 -35.98364258 30.61572266 C-37 29 -37 29 -36.76074219 26.92285156 C-34.07419241 20.13232972 -25.78620042 15.06265136 -20 11 C-20 13.31 -20 15.62 -20 18 C-13.4 18 -6.8 18 0 18 C0 12.06 0 6.12 0 0 Z " fill="#01A859" transform="translate(169,169)"/>
<path d="M0 0 C3.02671229 1.35473124 5.12136806 2.8739592 7.453125 5.22265625 C8.071875 5.84333984 8.690625 6.46402344 9.328125 7.10351562 C9.96234375 7.74998047 10.5965625 8.39644531 11.25 9.0625 C11.8996875 9.71283203 12.549375 10.36316406 13.21875 11.03320312 C18 15.85965402 18 15.85965402 18 17 C15.36 17 12.72 17 10 17 C10 23.6 10 30.2 10 37 C15.94 37 21.88 37 28 37 C26.04724504 39.3867005 24.04831562 41.69564493 22 44 C21.57074219 44.49806152 21.14148438 44.99612305 20.69921875 45.50927734 C12.13515621 55.33848549 12.13515621 55.33848549 7.17578125 56.875 C1.35856314 57.01412629 -2.31787594 55.20317333 -6.75 51.5625 C-9.60020714 47.99974107 -9.11682665 43.63647646 -9.09765625 39.265625 C-9.09443359 37.97011719 -9.09121094 36.67460937 -9.08789062 35.33984375 C-9.07953598 33.97656183 -9.07107104 32.61328058 -9.0625 31.25 C-9.05748168 29.87109535 -9.05291935 28.49218896 -9.04882812 27.11328125 C-9.03704093 23.74214341 -9.02058635 20.37109372 -9 17 C-11.31 17 -13.62 17 -16 17 C-11.01595832 10.96668638 -5.58084697 5.4815829 0 0 Z " fill="#01A859" transform="translate(121,132)"/>
<path d="M0 0 C4.31609228 0.98719132 6.10374584 2.28711309 8.9375 5.671875 C10.09677528 9.14970083 10.05063066 11.85990757 10.03515625 15.52734375 C10.0337413 16.18898026 10.03232635 16.85061676 10.03086853 17.53230286 C10.02527996 19.64137328 10.01272965 21.75033677 10 23.859375 C9.99498352 25.29101409 9.99042087 26.72265485 9.98632812 28.15429688 C9.9753143 31.66019088 9.95805755 35.1660225 9.9375 38.671875 C12.2475 38.671875 14.5575 38.671875 16.9375 38.671875 C15.5790798 41.71520265 14.05286976 43.79496651 11.6796875 46.125 C11.05449219 46.74375 10.42929688 47.3625 9.78515625 48 C9.13417969 48.63421875 8.48320312 49.2684375 7.8125 49.921875 C7.15378906 50.5715625 6.49507812 51.22125 5.81640625 51.890625 C4.19453357 53.48899227 2.5681719 55.08249397 0.9375 56.671875 C-3.55976715 52.9035354 -7.86850039 49.02516092 -12 44.859375 C-12.49306641 44.37017578 -12.98613281 43.88097656 -13.49414062 43.37695312 C-17.0625 39.79869539 -17.0625 39.79869539 -17.0625 38.671875 C-14.4225 38.671875 -11.7825 38.671875 -9.0625 38.671875 C-9.0625 32.071875 -9.0625 25.471875 -9.0625 18.671875 C-14.6725 18.671875 -20.2825 18.671875 -26.0625 18.671875 C-24.13004601 15.92575617 -22.15388253 13.29553325 -20.0625 10.671875 C-19.34707031 9.76179687 -18.63164062 8.85171875 -17.89453125 7.9140625 C-12.37594055 1.59424085 -8.4916038 -0.68093049 0 0 Z " fill="#01A859" transform="translate(196.0625,130.328125)"/>
<path d="M0 0 C0.66 0 1.32 0 2 0 C3.4453125 1.50390625 3.4453125 1.50390625 5.125 3.5625 C8.73659577 7.82798469 12.70858022 11.43310564 17 15 C16.41953062 18.5315134 15.18493336 20.18150503 12.65625 22.671875 C11.65271484 23.66767578 11.65271484 23.66767578 10.62890625 24.68359375 C9.92636719 25.36550781 9.22382813 26.04742187 8.5 26.75 C7.79746094 27.44738281 7.09492188 28.14476562 6.37109375 28.86328125 C1.1539567 34 1.1539567 34 0 34 C0 31.36 0 28.72 0 26 C-6.6 26 -13.2 26 -20 26 C-20 31.94 -20 37.88 -20 44 C-21.58860665 42.69381231 -23.16748882 41.3748761 -24.7109375 40.015625 C-26.41664156 38.51367398 -28.15696014 37.05085844 -29.9140625 35.609375 C-34.02099061 32.06921619 -37.49949007 29.03216302 -38.84375 23.57421875 C-38.97491073 18.74859696 -38.86888067 15.42327088 -36.31640625 11.2421875 C-31.98012022 7.04483812 -27.11902725 6.75120158 -21.2890625 6.8046875 C-20.04511719 6.81113281 -18.80117187 6.81757812 -17.51953125 6.82421875 C-15.59173828 6.84935547 -15.59173828 6.84935547 -13.625 6.875 C-12.31660156 6.88402344 -11.00820312 6.89304687 -9.66015625 6.90234375 C-6.4399163 6.92584915 -3.22005293 6.95870913 0 7 C0 4.69 0 2.38 0 0 Z " fill="#01A759" transform="translate(169,105)"/>
<path d="M0 0 C-0.71252132 3.21759627 -1.83310998 6.13385383 -3.0625 9.1875 C-5.83220199 16.72389927 -5.32454393 23.21830442 -4 31 C-13.47807568 29.27671351 -19.48803303 24.49921981 -26.4375 18 C-33.52945555 11.41319771 -40.83925885 7.05358038 -50 4 C-35.55203647 -8.64196809 -16.60507054 -8.86135976 0 0 Z " fill="#00A758" transform="translate(213,63)"/>
<path d="M0 0 C0.9590625 0.4021875 0.9590625 0.4021875 1.9375 0.8125 C2.948125 1.204375 3.95875 1.59625 5 2 C5.64324219 2.26425781 6.28648438 2.52851562 6.94921875 2.80078125 C14.85688649 5.79632504 22.75731182 5.78220285 31 4 C29.33563711 13.15399588 24.81545517 19.13119852 18.5625 25.875 C11.96257508 33.04254072 6.98155088 40.70457668 4 50 C-2.12760772 44.49765837 -5.54316512 35.15169184 -6.25390625 27.13671875 C-6.61273556 17.4714777 -4.55693429 8.55964685 0 0 Z " fill="#274A8B" transform="translate(63,105)"/>
<path d="M0 0 C8.62958905 1.89166357 13.95482974 5.51207736 20.48095703 11.31738281 C26.90492929 17.02714072 32.63948201 21.90573106 40.7578125 25.09765625 C43 26 43 26 46 28 C33.97764776 35.75554664 23.57758259 39.23347066 9.0234375 36.42578125 C4.42467799 35.11284236 0.19365272 33.31754493 -4 31 C-3.731875 30.34 -3.46375 29.68 -3.1875 29 C-2.795625 28.01 -2.40375 27.02 -2 26 C-1.46375 24.824375 -0.9275 23.64875 -0.375 22.4375 C2.25404934 15.43997979 1.59883046 7.19473707 0 0 Z " fill="#00A758" transform="translate(109,224)"/>
<path d="M0 0 C2.95601098 2.55774603 4.41133026 5.45418639 6.125 8.9375 C6.90230469 10.49791016 6.90230469 10.49791016 7.6953125 12.08984375 C11.76289695 21.16274919 11.11443556 32.63995524 7.8671875 41.90234375 C6.71759583 44.6831128 5.45542872 47.36636708 4 50 C-2 48 -2 48 -4.12109375 47.19921875 C-12.02841368 44.30763382 -18.7447883 44.82068404 -27 46 C-24.73023438 35.64554543 -19.39565078 29.60171044 -12.375 21.9375 C-6.21032637 15.14377804 -2.51342046 8.8276231 0 0 Z " fill="#274A8B" transform="translate(251,163)"/>
</svg>
