<?xml version="1.0" encoding="UTF-8"?>
<svg version="1.1" xmlns="http://www.w3.org/2000/svg" width="225" height="225">
<path d="M0 0 C74.25 0 148.5 0 225 0 C225 74.25 225 148.5 225 225 C150.75 225 76.5 225 0 225 C0 150.75 0 76.5 0 0 Z " fill="#108EE9" transform="translate(0,0)"/>
<path d="M0 0 C6.95771125 5.33381738 13.29729017 11.57388542 18 19 C18.44859375 19.69480469 18.8971875 20.38960937 19.359375 21.10546875 C27.04597777 33.87879394 29.18767195 51.09464614 26.3125 65.6875 C25.91433243 67.13638753 25.4722121 68.57352594 25 70 C24.67 71.01578125 24.34 72.0315625 24 73.078125 C21.34195155 80.59760416 17.9228816 86.74452629 13 93 C12.36449219 93.8353125 11.72898437 94.670625 11.07421875 95.53125 C5.15829036 102.57243031 -2.56937643 107.505892 -11 111 C-11.89460938 111.39316406 -12.78921875 111.78632813 -13.7109375 112.19140625 C-27.39643721 117.34591861 -44.25725491 117.25170181 -57.75683594 111.62744141 C-63.33425814 109.06806027 -68.25038693 105.85795709 -73 102 C-73.94746094 101.29423828 -73.94746094 101.29423828 -74.9140625 100.57421875 C-86.28729352 91.68105352 -93.8070418 76.06186357 -96 62 C-97.84717504 43.84096033 -94.61123466 27.79001546 -82.86328125 13.37890625 C-80.64352895 10.84258486 -78.35990078 8.40592721 -76 6 C-75.45859375 5.43410156 -74.9171875 4.86820313 -74.359375 4.28515625 C-54.36218999 -14.75256786 -22.29495517 -14.3029805 0 0 Z " fill="#FBFDFE" transform="translate(147,43)"/>
<path d="M0 0 C3.3125 2.0625 3.3125 2.0625 4.3125 3.0625 C4.40111992 5.8741338 4.42772355 8.66108255 4.41015625 11.47265625 C4.4087413 12.31469101 4.40732635 13.15672577 4.40586853 14.02427673 C4.40025263 16.72455335 4.38769748 19.42474828 4.375 22.125 C4.36998705 23.95117068 4.36542379 25.77734266 4.36132812 27.60351562 C4.35027804 32.08987542 4.33300279 36.57617384 4.3125 41.0625 C1.54973823 40.53981534 -1.0135876 39.95380413 -3.6875 39.0625 C-14.19833712 38.36482746 -22.83518942 39.03464362 -32.6875 43.0625 C-34.3496391 43.63824095 -36.01604475 44.20189292 -37.6875 44.75 C-38.7084375 45.09611328 -38.7084375 45.09611328 -39.75 45.44921875 C-47.86332387 48.01734747 -55.60759486 47.61404899 -63.6875 45.0625 C-64.6775 44.4025 -65.6675 43.7425 -66.6875 43.0625 C-66.95410183 40.15415115 -67.03529124 37.46111732 -66.98046875 34.5546875 C-66.97410149 33.29375778 -66.97410149 33.29375778 -66.96760559 32.00735474 C-66.95078532 29.31708007 -66.91312781 26.62754901 -66.875 23.9375 C-66.85995745 22.11589622 -66.8462683 20.29428072 -66.83398438 18.47265625 C-66.80087094 14.00231676 -66.74906637 9.53253454 -66.6875 5.0625 C-60.9375 6.9375 -60.9375 6.9375 -58.6875 8.0625 C-48.53229623 9.16131444 -40.49774515 6.7264363 -31.125 3.0625 C-10.38222647 -5.02051865 -10.38222647 -5.02051865 0 0 Z " fill="#108EE9" transform="translate(143.6875,72.9375)"/>
<path d="M0 0 C13.79069767 0 13.79069767 0 19.875 5.6875 C22.48993586 9.76372355 22.8360311 12.30319605 22 17 C20.67719666 21.046222 19.37939743 22.69325314 16.0625 25.375 C12 27 12 27 0 27 C0 18.09 0 9.18 0 0 Z " fill="#EAF4FD" transform="translate(55,165)"/>
<path d="M0 0 C3.720273 1.65345467 6.0400283 3.4364151 8 7 C8.36996507 10.2575065 8.28177299 13.47703516 8.1875 16.75 C8.16719727 18.08224609 8.16719727 18.08224609 8.14648438 19.44140625 C8.11121309 21.62822578 8.06192752 23.81379966 8 26 C6.02 26 4.04 26 2 26 C2 24.02 2 22.04 2 20 C-1.63 20 -5.26 20 -9 20 C-9 21.65 -9 23.3 -9 25 C-10.65 25 -12.3 25 -14 25 C-14.1627396 21.95616681 -14.28120531 18.92109431 -14.375 15.875 C-14.42527344 15.0190625 -14.47554687 14.163125 -14.52734375 13.28125 C-14.63303867 8.70113673 -14.45616098 5.84282169 -11.23046875 2.41796875 C-7.59321896 -0.89519832 -4.7637977 -0.68054253 0 0 Z " fill="#EFF7FD" transform="translate(163,166)"/>
<path d="M0 0 C5.5 3 5.5 3 7 6 C7.08342159 7.44848582 7.10732861 8.90070869 7.09765625 10.3515625 C7.09443359 11.20234375 7.09121094 12.053125 7.08789062 12.9296875 C7.07951172 13.81914062 7.07113281 14.70859375 7.0625 15.625 C7.05798828 16.5221875 7.05347656 17.419375 7.04882812 18.34375 C7.03702591 20.56256648 7.02056155 22.78125018 7 25 C5.35 25 3.7 25 2 25 C2 23.35 2 21.7 2 20 C-1.63 20 -5.26 20 -9 20 C-9 21.98 -9 23.96 -9 26 C-10.98 26 -12.96 26 -15 26 C-15.10852923 23.12397545 -15.1875515 20.25209168 -15.25 17.375 C-15.28351563 16.56675781 -15.31703125 15.75851563 -15.3515625 14.92578125 C-15.44082239 9.43629774 -14.70307411 6.3291334 -11 2 C-7.29825261 -0.4678316 -4.29506525 -0.68072732 0 0 Z " fill="#EEF7FD" transform="translate(101,166)"/>
<path d="M0 0 C3.44186104 0.0383037 4.63382591 0.2432899 7.6875 2.0625 C10.79092905 5.44805896 12.01100625 8.04206233 11.9453125 12.640625 C11.93886719 13.43984375 11.93242187 14.2390625 11.92578125 15.0625 C11.90902344 15.8875 11.89226562 16.7125 11.875 17.5625 C11.86597656 18.40296875 11.85695312 19.2434375 11.84765625 20.109375 C11.82415817 22.17720604 11.78828908 24.24488995 11.75 26.3125 C9.77 26.3125 7.79 26.3125 5.75 26.3125 C5.71261719 25.03632813 5.67523438 23.76015625 5.63671875 22.4453125 C5.57107209 20.77601162 5.5046243 19.10674211 5.4375 17.4375 C5.41494141 16.59574219 5.39238281 15.75398437 5.36914062 14.88671875 C5.33369141 14.08105469 5.29824219 13.27539062 5.26171875 12.4453125 C5.23553467 11.70168457 5.20935059 10.95805664 5.18237305 10.19189453 C4.88270409 7.90516174 4.88270409 7.90516174 1.75 6.3125 C-1.56086259 6.59524138 -1.56086259 6.59524138 -4.25 8.3125 C-4.48701239 11.17127909 -4.67219182 14.01133297 -4.8125 16.875 C-4.85568359 17.68130859 -4.89886719 18.48761719 -4.94335938 19.31835938 C-5.04975262 21.31618805 -5.15040888 23.3143207 -5.25 25.3125 C-6.9 25.3125 -8.55 25.3125 -10.25 25.3125 C-10.38530844 22.24851549 -10.4842407 19.19052874 -10.5625 16.125 C-10.60439453 15.26068359 -10.64628906 14.39636719 -10.68945312 13.50585938 C-10.77808695 8.87917384 -10.79142413 6.98476112 -7.79296875 3.26171875 C-6.95378906 2.61847656 -6.11460938 1.97523438 -5.25 1.3125 C-3.69014791 -0.24735209 -2.16093902 0.06797656 0 0 Z " fill="#EEF7FD" transform="translate(128.25,165.6875)"/>
<path d="M0 0 C7 0 7 0 9.4375 1.6875 C11 4 11 4 11.5625 6.4375 C10.73181298 10.22174087 9.04569423 11.68262395 6 14 C4.02 14 2.04 14 0 14 C0 9.38 0 4.76 0 0 Z " fill="#1391E9" transform="translate(61,172)"/>
<path d="M0 0 C2 2 2 2 2.125 5.125 C2.08375 6.07375 2.0425 7.0225 2 8 C-1.63 8 -5.26 8 -9 8 C-9.25 5.1875 -9.25 5.1875 -9 2 C-6.12524616 -1.3006433 -4.03854228 -1.38160657 0 0 Z " fill="#0E8EE9" transform="translate(101,172)"/>
<path d="M0 0 C2 2 2 2 2.125 5.125 C2.08375 6.07375 2.0425 7.0225 2 8 C-1.63 8 -5.26 8 -9 8 C-9 3 -9 3 -7.875 1.1875 C-5.16554166 -0.52849028 -3.13704316 -0.333728 0 0 Z " fill="#1290E9" transform="translate(163,172)"/>
<path d="M0 0 C4.75 0.75 4.75 0.75 7 3 C7.125 6.125 7.125 6.125 7 9 C6.6596875 8.1646875 6.6596875 8.1646875 6.3125 7.3125 C4.64103234 4.36753316 2.44723648 2.31843456 0 0 Z " fill="#40A5ED" transform="translate(96,171)"/>
</svg>
