<?xml version="1.0" encoding="UTF-8"?>
<svg version="1.1" xmlns="http://www.w3.org/2000/svg" width="227" height="232">
<path d="M0 0 C74.91 0 149.82 0 227 0 C227 76.56 227 153.12 227 232 C152.09 232 77.18 232 0 232 C0 155.44 0 78.88 0 0 Z " fill="#01AED6" transform="translate(0,0)"/>
<path d="M0 0 C74.91 0 149.82 0 227 0 C227 76.56 227 153.12 227 232 C152.09 232 77.18 232 0 232 C0 155.44 0 78.88 0 0 Z M18.59375 27 C9.84538238 37.97834368 7.54236437 50.22922508 7.59594727 63.9284668 C7.58908401 65.17233658 7.58222076 66.41620636 7.57514954 67.69776917 C7.56008577 71.07843772 7.55836007 74.45855001 7.56409192 77.83921027 C7.5672067 80.67900279 7.56106564 83.5187467 7.55505317 86.35853225 C7.54105409 93.07003681 7.54252855 99.78141399 7.55395508 106.49291992 C7.5654122 113.37361355 7.55139087 120.25391627 7.5245586 127.13455838 C7.50226133 133.07895767 7.49579607 139.02323554 7.50163502 144.9676736 C7.50497493 148.50156667 7.50279168 152.03520984 7.48538399 155.569067 C7.18286938 185.71479918 7.18286938 185.71479918 21.75 211.25 C33.83182519 222.68375794 46.72165514 224.14588138 62.63549805 224.16113281 C63.88374863 224.16609772 65.13199921 224.17106262 66.41807556 224.17617798 C69.82334041 224.18822891 73.22854433 224.19572953 76.63382316 224.20018864 C78.76804407 224.20313373 80.90225978 224.20724114 83.03647804 224.21169281 C89.73363615 224.22534454 96.43078218 224.23502251 103.12795323 224.2388947 C110.82239933 224.24336976 118.51666729 224.26090172 126.21105927 224.2898953 C132.18335247 224.31160788 138.15559589 224.32160406 144.12792808 224.32293582 C147.68354252 224.32397703 151.23898899 224.32973716 154.79456139 224.34775543 C158.76894072 224.36750686 162.74310237 224.36290922 166.7175293 224.35644531 C167.87381836 224.3656601 169.03010742 224.37487488 170.22143555 224.3843689 C184.45613924 224.31231028 197.69813196 221.20097004 208.3125 211.25 C223.43831304 194.79410524 222.61729497 174.62289414 222.53730202 153.55502534 C222.5270327 149.99506114 222.53660507 146.43513408 222.54284668 142.87516785 C222.55008038 136.90506462 222.54064601 130.93516071 222.52148438 124.96508789 C222.49969368 118.09728053 222.50679995 111.22994794 222.52879 104.36215192 C222.54703122 98.42363016 222.54946095 92.48525 222.53903532 86.54670924 C222.53285177 83.01803265 222.53182128 79.48957817 222.54518127 75.96091652 C222.55904646 72.0256004 222.53974848 68.09080267 222.51757812 64.15551758 C222.52567505 63.01179688 222.53377197 61.86807617 222.54211426 60.68969727 C222.39772275 46.75417599 217.86282104 34.35402607 208.625 23.875 C200.86408294 16.46136133 189.0807261 10.89871477 178.36071777 10.85282898 C177.21140778 10.84567368 176.06209778 10.83851837 174.87796021 10.83114624 C172.99220779 10.82711288 172.99220779 10.82711288 171.06835938 10.82299805 C169.72764918 10.8167296 168.38694072 10.81008246 167.04623413 10.80308533 C162.64541831 10.78207792 158.24460229 10.77168218 153.84375 10.76171875 C152.32471194 10.75766916 150.80567405 10.75355218 149.28663635 10.74936867 C142.14470108 10.73031983 135.00277608 10.71609133 127.86082029 10.7077567 C119.63934485 10.69800212 111.41813992 10.67172816 103.1967597 10.63125581 C96.82881374 10.6009931 90.46094483 10.58627802 84.09292841 10.58297569 C80.29634235 10.58063565 76.50004535 10.57181383 72.70353699 10.54651451 C69.12472451 10.52305179 65.54638762 10.51907248 61.96751785 10.52927589 C60.04705956 10.52999907 58.12662443 10.51103397 56.20626831 10.49121094 C41.13414805 10.58051963 28.97139374 16.03494246 18.59375 27 Z " fill="#F3F6F7" transform="translate(0,0)"/>
<path d="M0 0 C3.02814191 2.94845397 4.58962773 5.4670828 6.375 9.3125 C6.375 10.6325 6.375 11.9525 6.375 13.3125 C-11.115 13.6425 -28.605 13.9725 -46.625 14.3125 C-46.955 15.6325 -47.285 16.9525 -47.625 18.3125 C-45.89737223 20.04012777 -43.57621284 19.43740939 -41.22241211 19.43847656 C-40.06708481 19.44228333 -38.91175751 19.44609009 -37.72142029 19.45001221 C-36.46112503 19.45103943 -35.20082977 19.45206665 -33.90234375 19.453125 C-31.93225722 19.46676047 -29.96217039 19.48042608 -27.9920969 19.49583054 C-23.12173495 19.53381809 -18.2516304 19.56512685 -13.38110352 19.56298828 C-10.65521264 19.56235121 -7.92999549 19.57489391 -5.20423889 19.60198975 C-2.63667893 19.62725101 -0.06884835 19.63376879 2.49879456 19.61920166 C9.67332258 19.71923015 14.94051201 20.3576976 20.375 25.3125 C25.65688682 31.31196967 26.08685871 36.76406156 25.8125 44.5625 C25.78095825 46.09221436 25.78095825 46.09221436 25.7487793 47.65283203 C25.41460126 59.71598491 24.73721521 70.60638127 16.0625 79.75 C5.62551874 85.81801236 -8.58146508 84.49908546 -20.26708984 84.49780273 C-22.48945277 84.49998962 -24.71131799 84.51821831 -26.93359375 84.53710938 C-52.73841781 84.64251128 -52.73841781 84.64251128 -61.625 76.3125 C-70.00366325 66.90451694 -68.94848023 53.41748617 -68.88574219 41.59619141 C-68.87498871 39.18496745 -68.88570831 36.77448316 -68.8984375 34.36328125 C-68.91043928 22.43597472 -68.56343857 12.05681954 -60.24609375 2.7734375 C-56.43125407 -0.78153571 -52.59519678 -1.84695202 -47.625 -2.6875 C-46.7896875 -2.86410156 -45.954375 -3.04070313 -45.09375 -3.22265625 C-31.42486365 -5.05441016 -12.71718038 -5.92006673 0 0 Z " fill="#FCFEFE" transform="translate(137.625,44.6875)"/>
<path d="M0 0 C1.2684375 -0.00773438 1.2684375 -0.00773438 2.5625 -0.015625 C5.13478811 0.26468845 6.7803108 0.9551813 9 2.25 C9 1.59 9 0.93 9 0.25 C11.31 0.25 13.62 0.25 16 0.25 C16.12447553 4.80312342 16.21474409 9.35523654 16.2746582 13.90966797 C16.29965732 15.45574212 16.33366902 17.00169982 16.37719727 18.54736328 C16.80225341 34.0394094 16.80225341 34.0394094 12.33911133 39.90234375 C8.53760848 43.72810414 4.84257458 44.46173621 -0.375 44.75 C-6.0441939 44.62591368 -9.63803748 42.74956879 -14 39.25 C-13 36.25 -13 36.25 -10.625 34.9375 C-9.75875 34.710625 -8.8925 34.48375 -8 34.25 C-7.01 34.91 -6.02 35.57 -5 36.25 C-2.81971604 36.60293451 -2.81971604 36.60293451 -0.5 36.5625 C0.2734375 36.57925781 1.046875 36.59601563 1.84375 36.61328125 C4.50957629 36.16414747 5.35732602 35.35547067 7 33.25 C7.71447643 31.14667109 7.71447643 31.14667109 8 29.25 C7.505 29.58 7.01 29.91 6.5 30.25 C2.33612204 31.91555118 -1.71308143 32.02154627 -5.93359375 30.59765625 C-9.75160516 28.68454516 -12.40233614 26.28947029 -14.33203125 22.37109375 C-15.71855162 17.96828344 -15.88966864 13.77137568 -15 9.25 C-11.62750717 3.14687587 -6.99806756 -0.04267114 0 0 Z " fill="#F0FAFC" transform="translate(45,151.75)"/>
<path d="M0 0 C21 0 21 0 28 4 C30.87482468 7.09097691 31.89813605 10.29968533 32.5 14.4375 C31.66426825 20.39208873 29.54806769 25.08920576 24.875 29 C20.55963205 31.7681734 15.96311738 31.7897758 11 31 C9.68 30.34 8.36 29.68 7 29 C7 33.62 7 38.24 7 43 C4.69 43 2.38 43 0 43 C0 28.81 0 14.62 0 0 Z " fill="#F3FBFD" transform="translate(100,152)"/>
<path d="M0 0 C3.4375 1.6875 3.4375 1.6875 6 4 C6.78375 4.66 7.5675 5.32 8.375 6 C10.99495981 10.83684889 10.69965141 15.62871783 10 21 C7.88447326 25.93622907 4.93599636 28.18677113 0.1484375 30.3046875 C-4.71486769 31.87862991 -8.5053823 31.73265573 -13.1875 29.4375 C-17.07395253 26.06924114 -20.33268941 22.9921346 -21.484375 17.828125 C-21.86021496 11.7729256 -19.85842326 7.57851897 -16 3 C-11.59486966 -1.14600503 -5.70977345 -0.75570531 0 0 Z " fill="#F3FBFD" transform="translate(85,152)"/>
<path d="M0 0 C1.03769531 -0.02578125 2.07539063 -0.0515625 3.14453125 -0.078125 C7.41239167 0.38208074 9.92534331 1.87599704 12.81298828 5.01953125 C14.51504611 7.78152065 14.53422765 9.44634072 14.48046875 12.671875 C14.47080078 13.69667969 14.46113281 14.72148437 14.45117188 15.77734375 C14.42603516 16.84082031 14.40089844 17.90429688 14.375 19 C14.35469727 20.61841797 14.35469727 20.61841797 14.33398438 22.26953125 C14.29866584 24.9301942 14.24934199 27.58984296 14.1875 30.25 C11.8775 30.25 9.5675 30.25 7.1875 30.25 C6.8575 29.59 6.5275 28.93 6.1875 28.25 C5.62804687 28.7346875 5.06859375 29.219375 4.4921875 29.71875 C0.60366083 32.30231348 -3.3126894 31.98581809 -7.8125 31.25 C-10.85924585 29.95453326 -11.64918155 28.98261277 -13.8125 26.25 C-14.59047561 23.18064312 -14.33064267 21.51429885 -13.8125 18.25 C-11.1991044 14.43042182 -8.22335234 13.33190718 -3.8125 12.25 C-0.81881242 11.82373025 2.17461943 11.50442103 5.1875 11.25 C5.1875 9.93 5.1875 8.61 5.1875 7.25 C1.16734262 6.97296265 1.16734262 6.97296265 -2.8125 7.25 C-3.493125 7.930625 -4.17375 8.61125 -4.875 9.3125 C-5.514375 9.951875 -6.15375 10.59125 -6.8125 11.25 C-10.5625 11 -10.5625 11 -13.8125 10.25 C-13.51429167 6.67150008 -13.07004642 5.48773516 -10.375 3 C-6.60296988 0.42397943 -4.55989693 0.06747073 0 0 Z " fill="#F6FCFD" transform="translate(149.8125,151.75)"/>
<path d="M0 0 C2.97 0 5.94 0 9 0 C10.34041811 2.76760436 11.67252153 5.53869786 13 8.3125 C13.3815625 9.09818359 13.763125 9.88386719 14.15625 10.69335938 C14.5171875 11.45068359 14.878125 12.20800781 15.25 12.98828125 C15.58515625 13.68477783 15.9203125 14.38127441 16.265625 15.09887695 C17 17 17 17 17 20 C17.66 20 18.32 20 19 20 C19.09152344 19.33613281 19.18304688 18.67226562 19.27734375 17.98828125 C20.21363279 14.11659955 21.83481743 10.76260551 23.5625 7.1875 C23.89185547 6.49462891 24.22121094 5.80175781 24.56054688 5.08789062 C25.36872251 3.38955052 26.18368377 1.69444231 27 0 C29.97 0 32.94 0 36 0 C34.44014438 5.16836955 32.24445829 9.8535237 29.8671875 14.6796875 C29.27213913 15.89883347 29.27213913 15.89883347 28.66506958 17.14260864 C27.40521048 19.72180012 26.14019022 22.29842014 24.875 24.875 C24.01658432 26.63004073 23.15850773 28.38524735 22.30078125 30.140625 C20.20444133 34.42901373 18.10347094 38.71510485 16 43 C13.03 43 10.06 43 7 43 C7.99442381 39.78724616 9.00680369 36.98815654 10.6875 34.0625 C12.30164928 30.29615168 12.09546907 27.83609253 11 24 C9.33209608 20.13030277 7.3982865 16.41568706 5.4375 12.6875 C4.41198698 10.71399105 3.3896777 8.73881289 2.37109375 6.76171875 C1.6893811 5.4617395 1.6893811 5.4617395 0.99389648 4.13549805 C0 2 0 2 0 0 Z " fill="#F4FBFD" transform="translate(165,152)"/>
<path d="M0 0 C4.12071155 0.73584135 5.82805171 1.38627481 8.5 4.625 C9.15466318 7.42741781 9.11113838 9.81722271 8.5 12.625 C6.36398066 15.95719018 4.8672811 16.51815459 1.0625 17.625 C-2.5 17.625 -2.5 17.625 -5.375 16.125 C-8.17946009 12.82563519 -8.64905149 10.94749312 -8.5 6.625 C-6.0768816 2.46026525 -4.80003453 0.85714902 0 0 Z " fill="#0AB0D7" transform="translate(79.5,158.375)"/>
<path d="M0 0 C4.4297642 0.79102932 5.89210172 1.98974785 8.5 5.625 C9.21235686 9.4242366 8.81263988 11.06224821 6.9375 14.4375 C3.73003157 17.31599731 1.7850666 17.70017661 -2.5 17.625 C-5.30189446 15.85858828 -7.01524911 14.59450178 -8.5 11.625 C-9.03507099 7.6119676 -8.83051628 6.08571967 -6.4375 2.75 C-3.5 0.625 -3.5 0.625 0 0 Z " fill="#0AB0D7" transform="translate(44.5,158.375)"/>
<path d="M0 0 C2.9375 1.5 2.9375 1.5 5 4 C5.65466318 6.80241781 5.61113838 9.19222271 5 12 C2.86398066 15.33219018 1.3672811 15.89315459 -2.4375 17 C-6 17 -6 17 -8.9375 15.625 C-11.53780902 12.31551579 -11.67206204 10.25010937 -11.4140625 6.12890625 C-11 4 -11 4 -9.4375 1.4375 C-6.02983728 -0.57214724 -3.89581737 -0.54678139 0 0 Z " fill="#06AFD6" transform="translate(119,159)"/>
<path d="M0 0 C0.66 0.66 1.32 1.32 2 2 C1.53128597 6.1012478 0.16243456 10.04772249 -1 14 C-2.65 13.67 -4.3 13.34 -6 13 C-7.61128254 8.26093369 -8.39328961 4.87651365 -7 0 C-4.29393021 -1.35303489 -2.8671629 -0.7884698 0 0 Z " fill="#09AFD6" transform="translate(146,86)"/>
<path d="M0 0 C0.31898502 2.95061143 0.4433581 4.44098326 -1.4375 6.8125 C-5.24369483 8.57634638 -8.87178296 8.23816637 -13 8 C-13.33 6.68 -13.66 5.36 -14 4 C-11.17991324 2.11994216 -9.65676336 1.54324907 -6.4375 0.875 C-5.65246094 0.70742187 -4.86742187 0.53984375 -4.05859375 0.3671875 C-2 0 -2 0 0 0 Z " fill="#19B4D9" transform="translate(157,168)"/>
<path d="M0 0 C0.66 0.33 1.32 0.66 2 1 C2 2.32 2 3.64 2 5 C-1.3 5.66 -4.6 6.32 -8 7 C-8.33 5.68 -8.66 4.36 -9 3 C-6.76364489 -0.68340842 -3.9995286 -0.34038541 0 0 Z " fill="#11B1D7" transform="translate(153,158)"/>
</svg>
