<?xml version="1.0" encoding="UTF-8"?>
<svg version="1.1" xmlns="http://www.w3.org/2000/svg" width="464" height="452">
<path d="M0 0 C153.12 0 306.24 0 464 0 C464 149.16 464 298.32 464 452 C310.88 452 157.76 452 0 452 C0 302.84 0 153.68 0 0 Z " fill="#6535EC" transform="translate(0,0)"/>
<path d="M0 0 C153.12 0 306.24 0 464 0 C464 149.16 464 298.32 464 452 C310.88 452 157.76 452 0 452 C0 302.84 0 153.68 0 0 Z M52 37 C51.22140625 37.68578125 50.4428125 38.3715625 49.640625 39.078125 C31.10447636 56.33591856 22.81417435 81.85545569 21.90472937 106.59124446 C21.86707692 109.20948463 21.85704556 111.82616356 21.85955811 114.44467163 C21.85658698 115.4356402 21.85361586 116.42660877 21.8505547 117.44760668 C21.84194983 120.73640154 21.84036647 124.02515966 21.83886719 127.31396484 C21.83423311 129.68542558 21.82920767 132.05688558 21.82382202 134.42834473 C21.80938972 141.519214 21.80332055 148.61007543 21.79842651 155.70095676 C21.79583873 159.05342215 21.79204961 162.40588611 21.78830719 165.75835037 C21.7761233 176.92434474 21.76582283 188.09033725 21.7624321 199.25633812 C21.76221253 199.96926613 21.76199297 200.68219414 21.76176675 201.41672603 C21.76154847 202.13121959 21.76133019 202.84571316 21.7611053 203.58185804 C21.76066186 205.02934416 21.76021529 206.47683028 21.75976562 207.92431641 C21.7595442 208.64229737 21.75932277 209.36027834 21.75909463 210.10001631 C21.75515365 221.71197379 21.73771712 233.32386825 21.7144061 244.93580143 C21.69058538 256.89969484 21.67822537 268.86355677 21.67706418 280.82747424 C21.67615332 287.52771529 21.67022429 294.22786177 21.65224457 300.92808151 C21.63563511 307.24010572 21.63367022 313.55197526 21.64238358 319.86401367 C21.64314716 322.16438845 21.6389023 324.464772 21.62892532 326.76512527 C21.49526452 359.53818009 26.5280743 389.28159459 50.3984375 413.515625 C74.63536645 437.32959326 105.47692485 440.30701266 137.81811523 440.29052734 C140.18382476 440.29652348 142.54953235 440.30333149 144.91523743 440.31088257 C151.30007305 440.3284421 157.68485496 440.33323376 164.0697124 440.33451414 C168.07214007 440.33594233 172.07455876 440.34009914 176.0769825 440.34550858 C189.35817427 440.36308774 202.63933397 440.37235295 215.92053746 440.37084763 C216.63374985 440.37076772 217.34696223 440.3706878 218.08178711 440.37060547 C219.15294344 440.37048283 219.15294344 440.37048283 220.24573929 440.37035771 C231.796505 440.36954628 243.34713987 440.38865657 254.89786779 440.4168822 C266.81674505 440.44577273 278.73555885 440.45941361 290.65447193 440.45769465 C297.3223574 440.45703618 303.99012488 440.46268877 310.65798759 440.48405075 C316.93976687 440.50362868 323.22125957 440.50342588 329.50304985 440.48901749 C331.78723578 440.48695211 334.0714406 440.49149159 336.35559464 440.5037384 C357.28501743 440.60853903 378.9863836 439.54024364 398 430 C399.15113281 429.44828125 400.30226563 428.8965625 401.48828125 428.328125 C421.06543429 418.13668159 434.70024694 401.15344739 443 381 C443.40089844 380.04867188 443.80179687 379.09734375 444.21484375 378.1171875 C450.72941277 360.85972541 450.43834269 341.63406531 450.37231445 323.47143555 C450.37474927 321.09038637 450.37847523 318.70933822 450.38337708 316.32829285 C450.39269269 309.92778394 450.38344132 303.52743046 450.37004495 297.12693381 C450.35979421 291.07955491 450.36235196 285.03219279 450.36424746 278.98480783 C450.36742152 267.00538962 450.355859 255.02603131 450.33618164 243.04663086 C450.31716297 231.46490661 450.31010167 219.88325242 450.31567383 208.30151367 C450.32175108 195.63279139 450.32152068 182.96409971 450.310188 170.29537994 C450.30898092 168.94116549 450.30777493 167.58695104 450.30657005 166.23273659 C450.30596651 165.56673982 450.30536298 164.90074305 450.30474115 164.21456456 C450.3008866 159.55557829 450.30130665 154.89660376 450.3031559 150.23761559 C450.30505053 143.95421208 450.2968452 137.67089737 450.2810955 131.38751411 C450.27688268 129.09310143 450.27598165 126.79867967 450.27878571 124.50426483 C450.29156844 112.16615585 449.96792998 100.19816056 448 88 C447.86548589 87.14946895 447.73097178 86.29893789 447.59238148 85.42263317 C443.68772173 62.78335479 428.852792 42.41039159 410.46875 29.28125 C387.18108087 13.52468488 361.42883642 11.69196515 334.1184082 11.7253418 C331.74620912 11.72098615 329.37401143 11.71580018 327.0018158 11.70985413 C320.60071491 11.6965433 314.19967335 11.69587669 307.79856133 11.69841743 C303.7881231 11.69922129 299.77769941 11.69706428 295.76726341 11.69342995 C294.76382773 11.69253716 294.76382773 11.69253716 293.74012062 11.69162634 C292.38043752 11.69041439 291.02075442 11.68920026 289.66107132 11.68798397 C276.95115737 11.67714387 264.24127005 11.67925387 251.53135463 11.68536881 C239.95204312 11.69053248 228.37281588 11.67929074 216.79352102 11.66027059 C204.85206412 11.64080874 192.91064692 11.63265088 180.96917409 11.63639385 C174.28578188 11.6382936 167.60247653 11.63566776 160.91909218 11.62167931 C154.62751145 11.60900198 148.33609792 11.61113776 142.04451942 11.62409019 C139.75220683 11.62643427 137.45988211 11.62380047 135.16758347 11.61546707 C104.35892297 11.51165307 75.56226131 15.51240321 52 37 Z " fill="#F7F7F7" transform="translate(0,0)"/>
<path d="M0 0 C8.97073263 8.3600171 16.02597732 19.75675762 16.5703125 32.26171875 C16.58968532 33.85144926 16.59307271 35.44143979 16.58203125 37.03125 C16.57465942 38.28699829 16.57465942 38.28699829 16.56713867 39.56811523 C16.30631813 53.44778088 12.0987895 65.61247298 2.49609375 75.80859375 C-4.17614644 81.90725539 -12.19208735 85.18403056 -20.73046875 87.84375 C-21.35179687 88.03839844 -21.973125 88.23304688 -22.61328125 88.43359375 C-35.43943753 90.91836572 -48.90041061 88.24691906 -60.0625 81.69140625 C-71.97718362 73.44009534 -78.44613421 62.35378297 -81.2578125 48.26171875 C-83.35287195 33.11149543 -80.95524374 19.26091902 -71.73046875 6.84375 C-64.49733427 -2.20885337 -53.63295745 -9.01625188 -42.05859375 -10.9453125 C-26.80588273 -12.32726954 -12.26725336 -9.68744471 0 0 Z " fill="#F8F6FE" transform="translate(160.73046875,187.15625)"/>
<path d="M0 0 C10.39848016 7.72502936 17.17693699 17.33009322 20 30 C20.226875 30.94875 20.45375 31.8975 20.6875 32.875 C22.07986304 46.79863044 20.4871902 61.21010488 11.953125 72.7734375 C4.70289772 81.09869848 -2.53632615 86.47824569 -13 90 C-14.19625 90.4125 -15.3925 90.825 -16.625 91.25 C-30.03011185 94.18995411 -43.28748713 91.99097873 -55.13671875 85.203125 C-66.16541986 77.68013652 -73.23948938 67.20511441 -76.3125 54.1875 C-78.97435025 38.2163985 -76.729795 23.07496301 -67.40234375 9.7109375 C-51.28006878 -10.03217937 -21.35210285 -13.21181553 0 0 Z " fill="#F9F7FE" transform="translate(368,184)"/>
<path d="M0 0 C6.50206139 3.92786644 12.76204001 10.16059127 15.03515625 17.57421875 C16.76514509 28.27327595 16.29543284 38.58875716 10.26953125 47.859375 C6.12379615 53.27968885 0.91638624 56.28250332 -5.5625 58.0625 C-14.63250243 59.21291703 -23.96524415 59.49241093 -31.58203125 53.89453125 C-38.33301189 47.64954127 -42.0741082 40.90963518 -42.84375 31.6953125 C-43.08652554 22.28776015 -41.97067567 14.30406209 -36.15625 6.69921875 C-27.06070193 -2.64155243 -11.99644547 -5.4546338 0 0 Z " fill="#6435EE" transform="translate(353.5625,197.9375)"/>
<path d="M0 0 C1.12776855 0.00918457 1.12776855 0.00918457 2.27832031 0.01855469 C8.12645342 0.18304134 12.72562469 1.20493431 17.6875 4.4375 C18.574375 4.97375 19.46125 5.51 20.375 6.0625 C27.76963621 13.65699124 29.98486519 21.52395292 30.00439453 31.81591797 C29.85624483 40.45066796 27.50464507 47.59078378 21.40625 53.8984375 C14.99287857 59.6413201 9.61642953 60.89625671 1.125 61 C0.32167236 61.01474365 -0.48165527 61.0294873 -1.30932617 61.04467773 C-9.07212426 60.91181033 -15.79178045 57.95821955 -21.3125 52.4375 C-27.24758909 43.5693727 -29.21073227 35.05045977 -28.3125 24.4375 C-26.44114468 15.47684973 -21.76930003 8.69852295 -14.3125 3.4375 C-9.41512207 0.45525831 -5.58047599 -0.07692075 0 0 Z " fill="#6535EE" transform="translate(127.3125,195.5625)"/>
<path d="M0 0 C7.48439847 5.27309892 12.71177744 12.71039692 14.9296875 21.59765625 C16.96949397 34.31960712 15.74988146 46.65243161 8.09375 57.2734375 C1.9713149 64.75950588 -4.99651985 69.59752109 -14.81445312 70.59814453 C-27.36521433 71.41656089 -36.87050649 70.51750505 -46.875 62.375 C-53.86627675 55.73603956 -58.28040347 47.07496554 -58.86328125 37.43359375 C-59.20203589 23.35543902 -56.9367544 13.17688242 -47.03515625 2.69140625 C-34.36366003 -9.26452312 -14.28155946 -8.58324108 0 0 Z M-43.625 11.375 C-44.676875 12.48875 -44.676875 12.48875 -45.75 13.625 C-51.1087843 21.4845503 -51.54779774 30.074443 -50.625 39.375 C-49.02594073 46.53914692 -46.19242707 52.51454779 -40.625 57.375 C-40.04621094 57.88160156 -39.46742188 58.38820312 -38.87109375 58.91015625 C-31.60036055 64.01816646 -22.11491997 63.43291483 -13.625 62.375 C-10.2216245 61.4985752 -7.53469776 60.32826933 -4.625 58.375 C-3.2328125 57.446875 -3.2328125 57.446875 -1.8125 56.5 C4.5672999 50.30248009 7.43066614 43.31510421 7.78198242 34.55810547 C7.9320974 24.12691558 5.65798757 16.80565921 -1.609375 9.171875 C-9.17947786 2.42333369 -16.88768232 1.48511669 -26.6796875 1.953125 C-34.1765279 2.75476734 -38.6339211 5.6907157 -43.625 11.375 Z " fill="#F9F7FE" transform="translate(361.625,193.625)"/>
<path d="M0 0 C7.3446199 6.04770747 12.15619752 12.85591935 13.6640625 22.35546875 C14.81380403 35.62616265 14.17121743 47.8463818 5.421875 58.57421875 C-1.87929479 65.97273747 -11.10583242 69.67287748 -21.42651367 69.82373047 C-22.22162354 69.8135791 -23.0167334 69.80342773 -23.8359375 69.79296875 C-24.67036377 69.78539551 -25.50479004 69.77782227 -26.36450195 69.77001953 C-32.44504693 69.60672743 -37.22669405 68.84101195 -42.3359375 65.35546875 C-43.37234375 64.70191406 -43.37234375 64.70191406 -44.4296875 64.03515625 C-52.21290079 58.72049941 -57.61074829 51.30482246 -59.890625 42.12109375 C-61.92621406 29.47901434 -60.73361128 17.0820721 -53.1484375 6.48046875 C-39.87865847 -9.13769335 -16.67513661 -11.73951925 0 0 Z M-46.8984375 12.37109375 C-52.52113665 20.13286322 -52.96348136 28.04690155 -52.3359375 37.35546875 C-51.00007432 45.24611824 -47.73026068 52.00979087 -41.2734375 56.92578125 C-32.68122625 62.45385834 -23.31953445 62.52481585 -13.3359375 61.35546875 C-4.45356844 58.4761362 0.24527817 51.7899067 4.5390625 43.91796875 C7.26394367 35.62842062 7.25305379 24.49672863 3.4140625 16.60546875 C2.53625481 15.16440113 1.62438597 13.74291283 0.6640625 12.35546875 C0.0865625 11.42734375 -0.4909375 10.49921875 -1.0859375 9.54296875 C-8.18827858 2.63791492 -16.21701411 1.00482319 -25.78466797 0.97265625 C-35.38937468 1.16829636 -40.91018155 4.99666744 -46.8984375 12.37109375 Z " fill="#F9F7FE" transform="translate(151.3359375,194.64453125)"/>
<path d="M0 0 C2.37625177 -0.10883596 4.74743976 -0.18766696 7.125 -0.25 C7.79015625 -0.28351563 8.4553125 -0.31703125 9.140625 -0.3515625 C14.29346769 -0.45259863 17.10254669 0.67869196 21 4 C23.28808908 7.36416706 24.57906672 10.43659099 25.578125 14.3671875 C25.84850586 15.40681641 26.11888672 16.44644531 26.39746094 17.51757812 C26.67879883 18.62552734 26.96013672 19.73347656 27.25 20.875 C30.28446577 32.49677525 33.63638418 43.98668907 37.21655273 55.45092773 C38.2776137 58.90326102 39.2769231 62.37314811 40.26879883 65.84594727 C41.92860066 70.73557382 44.67104212 74.27205706 49 77 C53.99221663 77.98855775 57.9297722 77.594571 62.375 75.125 C73.10776584 64.18237561 75.77095267 39.4584241 79.46411133 25.19726562 C84.33504018 6.66495982 84.33504018 6.66495982 88.625 2.375 C92.79190852 -0.03742072 95.88504641 -0.11934446 100.625 -0.0625 C101.68460938 -0.05573242 101.68460938 -0.05573242 102.765625 -0.04882812 C104.51045275 -0.03703875 106.255237 -0.01910324 108 0 C108 2.64 108 5.28 108 8 C107.09636719 8.02578125 106.19273437 8.0515625 105.26171875 8.078125 C104.08222656 8.13484375 102.90273438 8.1915625 101.6875 8.25 C99.92986328 8.31960937 99.92986328 8.31960937 98.13671875 8.390625 C94.97796357 8.68481759 94.97796357 8.68481759 93.39819336 10.72192383 C91.88716654 13.18383953 91.18982551 15.25962106 90.4921875 18.05859375 C90.23228027 19.07050781 89.97237305 20.08242187 89.70458984 21.125 C89.4308252 22.218125 89.15706055 23.31125 88.875 24.4375 C86.24796909 34.52758928 83.43204223 44.53352963 80.375 54.5 C80.01519043 55.69681396 79.65538086 56.89362793 79.28466797 58.12670898 C73.02450824 78.34056263 73.02450824 78.34056263 64 84 C58.69662619 86.50846977 53.777206 86.7859593 48 86 C41.52487726 83.45581181 36.77620689 78.72342634 33.80566406 72.49633789 C30.68250124 65.12137525 28.39560293 57.75869489 26.4375 50 C24.50821286 42.46190362 22.4207701 35.06070586 19.90356445 27.69628906 C18.3734607 23.13037016 17.17214618 18.48745635 15.9296875 13.8359375 C15.20487107 10.90377071 15.20487107 10.90377071 13 9 C9.87803664 8.53513282 9.87803664 8.53513282 6.375 8.375 C5.18648437 8.30023438 3.99796875 8.22546875 2.7734375 8.1484375 C1.85820312 8.09945312 0.94296875 8.05046875 0 8 C0 5.36 0 2.72 0 0 Z " fill="#F8F6FE" transform="translate(180,190)"/>
<path d="M0 0 C3.16616599 -0.14700056 6.33143982 -0.23462106 9.5 -0.3125 C10.8303125 -0.3753418 10.8303125 -0.3753418 12.1875 -0.43945312 C18.77955694 -0.56063064 22.86961782 0.84467215 28 5 C34.556862 11.37472695 36.59942483 21.58839347 38.8125 30.1875 C41.67586152 41.00071443 44.8891413 51.68745202 48.19287109 62.37304688 C49.48403843 66.57539428 50.74332996 70.78722826 52 75 C53.32 75 54.64 75 56 75 C59.87941306 63.27087883 63.47646949 51.51018881 66.625 39.5625 C74.8296662 8.57365283 74.8296662 8.57365283 85 1 C87.88265149 0.03911617 89.67662271 -0.11670941 92.66796875 -0.09765625 C93.56064453 -0.09443359 94.45332031 -0.09121094 95.37304688 -0.08789062 C96.76620117 -0.07532227 96.76620117 -0.07532227 98.1875 -0.0625 C99.12787109 -0.05798828 100.06824219 -0.05347656 101.03710938 -0.04882812 C103.35813712 -0.03704626 105.67903644 -0.02059558 108 0 C108 2.31 108 4.62 108 7 C106.92621094 7.02578125 105.85242188 7.0515625 104.74609375 7.078125 C93.99706692 7.06616481 93.99706692 7.06616481 85 12 C79.67165407 20.96565991 77.57608747 32.07757021 74.82226562 42.04394531 C73.37476254 47.24773611 71.87735131 52.43682615 70.375 57.625 C70.0980127 58.5953418 69.82102539 59.56568359 69.53564453 60.56542969 C68.13680727 65.39717426 66.65726616 70.19789317 65.0390625 74.9609375 C64.59747803 76.26877197 64.59747803 76.26877197 64.14697266 77.60302734 C62.51656772 81.01028909 60.38529893 83.30735054 57 85 C53.05202078 85.5383608 51.39215675 85.25426111 48.01171875 83.0625 C44.10838245 79.63090252 42.99589113 75.49231337 41.5625 70.625 C41.2752002 69.7074292 40.98790039 68.7898584 40.69189453 67.84448242 C39.77576372 64.90176674 38.88803978 61.95129877 38 59 C37.3937892 57.04499454 36.78572519 55.09056273 36.17578125 53.13671875 C33.87464341 45.71821776 31.59539908 38.29767365 29.58984375 30.79296875 C29.37215332 29.98110107 29.15446289 29.1692334 28.93017578 28.33276367 C28.53474903 26.83936344 28.14815321 25.34357957 27.77294922 23.8449707 C26.22894254 17.97563026 24.454904 12.7057714 19.2734375 9.10546875 C15.31699942 7.76934467 11.77368928 7.44378764 7.625 7.3125 C6.88894531 7.27833984 6.15289062 7.24417969 5.39453125 7.20898438 C3.59686147 7.12727211 1.79845954 7.06194219 0 7 C0 4.69 0 2.38 0 0 Z " fill="#F9F8FE" transform="translate(180,179)"/>
<path d="M0 0 C9.27469935 6.95602451 13.64846721 15.76624102 16.390625 26.79296875 C17.57347769 40.03816801 15.6201859 51.98059182 7.390625 62.79296875 C0.91542156 70.34737276 -7.71887046 75.56122897 -17.609375 76.79296875 C-30.38367813 77.61581193 -40.79073394 76.31281693 -51.4765625 68.671875 C-60.14473505 61.03562775 -65.18644238 50.92589998 -65.984375 39.453125 C-66.51488112 26.38112252 -64.12094536 15.80450362 -55.9453125 5.2734375 C-52.03559081 1.12180996 -47.67069286 -1.6398021 -42.609375 -4.20703125 C-41.90296875 -4.56667969 -41.1965625 -4.92632812 -40.46875 -5.296875 C-27.35553197 -10.72734888 -11.54401632 -7.35114247 0 0 Z M-54.609375 9.79296875 C-60.01460929 17.37548711 -62.00400918 25.32668447 -61.984375 34.54296875 C-61.98276367 35.3328418 -61.98115234 36.12271484 -61.97949219 36.93652344 C-61.77129996 46.91750378 -58.66610944 55.48703179 -51.70703125 62.7890625 C-42.79251967 71.32756657 -34.73793949 73.41989861 -22.65112305 73.25952148 C-11.99599962 72.84796826 -4.60547472 69.89869204 3.15625 62.43359375 C12.10588866 51.85674806 13.30013537 40.0650831 12.390625 26.79296875 C10.89915843 17.23747108 5.78908388 9.07879883 -1.75 3.07421875 C-18.82580334 -8.6923012 -41.03731248 -5.22549475 -54.609375 9.79296875 Z " fill="#6C3FEE" transform="translate(364.609375,191.20703125)"/>
<path d="M0 0 C10.01394084 7.19465951 15.64596727 15.87074661 18 28 C19.24803306 41.46192968 17.33721015 54.08583398 9 65 C1.43079962 73.4987513 -8.49468488 77.51655309 -19.69921875 78.23828125 C-31.95761696 78.46640032 -41.67119995 76.55798818 -51 68 C-60.64049841 58.65582839 -63.90215313 47.83318919 -64.375 34.625 C-64.13678842 21.97001003 -58.86769896 11.5166422 -49.9375 2.75 C-35.64045915 -9.18409086 -15.79211758 -8.87788046 0 0 Z M-52.8125 11.125 C-60.45693454 21.8094306 -61.57667254 34.2402667 -59.52734375 46.92578125 C-57.16953454 56.00405265 -51.72345456 63.70022365 -44 69 C-37.16206019 72.93623103 -31.70404782 74.20196903 -23.875 74.25 C-23.05773437 74.270625 -22.24046875 74.29125 -21.3984375 74.3125 C-11.48488529 74.375244 -3.82933486 71.35818024 3.5625 64.6875 C11.25398186 56.2071482 14.58053338 48.09820753 14.375 36.5625 C14.3586853 35.31364014 14.3586853 35.31364014 14.34204102 34.03955078 C14.01703936 21.49816619 10.03306545 14.1733693 1.3125 5.25 C-15.33294184 -7.25586861 -39.35804545 -4.71052006 -52.8125 11.125 Z " fill="#6A3CEC" transform="translate(151,190)"/>
<path d="M0 0 C15.89058592 -0.68674801 15.89058592 -0.68674801 20.1875 1.375 C26.62032559 7.37897055 28.9391555 16.28421149 31.1875 24.5625 C31.77972902 26.6540771 32.37357772 28.74519603 32.96875 30.8359375 C33.2884375 31.96741211 33.608125 33.09888672 33.9375 34.26464844 C35.76136528 40.67667482 37.62758184 47.07550232 39.52944946 53.46481323 C39.9656098 54.93802504 40.3972874 56.41257197 40.8243103 57.88845825 C41.42812401 59.97455085 42.0464085 62.05585555 42.66796875 64.13671875 C43.02141357 65.34030029 43.3748584 66.54388184 43.73901367 67.78393555 C45.28811376 71.7348156 47.10869744 75.05434872 51 77 C54.96549198 77.25861904 57.64664081 77.18579283 61 75 C65.00377048 68.14632344 66.77933525 59.58018642 69 52 C69.2568457 51.1244043 69.51369141 50.24880859 69.77832031 49.34667969 C71.27482211 44.23805011 72.76456471 39.12748263 74.25 34.015625 C75.80241371 28.67409626 77.36609706 23.33597037 78.9375 18 C79.14882568 17.28231445 79.36015137 16.56462891 79.57788086 15.82519531 C80.05168239 14.2167267 80.52579874 12.60835082 81 11 C82.5625 12.125 82.5625 12.125 84 14 C83.25185611 29.15594726 76.16231682 45.79110595 71.8125 60.25 C71.4920874 61.33764648 71.1716748 62.42529297 70.84155273 63.54589844 C68.56639076 70.98079227 66.12926751 77.97041401 59 82 C54.73871241 82.84066218 50.88083726 82.94398082 46.9375 80.96484375 C39.10029979 74.9011479 37.11940463 64.55068218 34.6875 55.4375 C34.08316626 53.22755389 33.4776654 51.01792666 32.87109375 48.80859375 C32.56413574 47.68565918 32.25717773 46.56272461 31.94091797 45.40576172 C30.42615701 39.92290874 28.84296638 34.46056045 27.25 29 C26.96858154 28.02861084 26.68716309 27.05722168 26.3972168 26.05639648 C25.61213719 23.36653356 24.80813013 20.68301237 24 18 C23.75596436 17.14849365 23.51192871 16.2969873 23.26049805 15.41967773 C23.01855713 14.61989502 22.77661621 13.8201123 22.52734375 12.99609375 C22.32101318 12.29411865 22.11468262 11.59214355 21.90209961 10.86889648 C20.24108045 7.42773229 17.17215571 5.97511582 14 4 C14 3.34 14 2.68 14 2 C7.07 1.505 7.07 1.505 0 1 C0 0.67 0 0.34 0 0 Z " fill="#7246F0" transform="translate(180,186)"/>
<path d="M0 0 C7.2589365 5.2152871 14.01105793 12.37932215 16.67578125 21.08203125 C17.4471879 28.0246911 16.02957384 35.13370538 15 42 C14.67 42 14.34 42 14 42 C13.94392578 40.54980469 13.94392578 40.54980469 13.88671875 39.0703125 C13.25964403 26.65177385 11.86220215 17.29626919 3 8 C-5.99297107 0.17875155 -15.47983715 -1.8938212 -27.07421875 -1.3515625 C-31.86372088 -0.92265186 -35.73413844 -0.21723634 -40 2 C-40.75539063 2.39058594 -41.51078125 2.78117188 -42.2890625 3.18359375 C-50.2535092 7.88501463 -55.28183915 14.66948744 -57.75 23.5625 C-57.93046875 24.38878906 -58.1109375 25.21507812 -58.296875 26.06640625 C-58.64492187 27.02353516 -58.64492187 27.02353516 -59 28 C-60.485 28.495 -60.485 28.495 -62 29 C-62.33 32.96 -62.66 36.92 -63 41 C-63.33 41 -63.66 41 -64 41 C-64.74966338 28.08913059 -62.40505665 17.10114431 -54 7 C-39.9527036 -8.69657412 -17.87282582 -10.0475956 0 0 Z " fill="#7144F1" transform="translate(151,190)"/>
<path d="M0 0 C0 0.33 0 0.66 0 1 C-6.435 1.495 -6.435 1.495 -13 2 C-9.7 2.33 -6.4 2.66 -3 3 C-3 3.33 -3 3.66 -3 4 C-3.89460938 4.02578125 -4.78921875 4.0515625 -5.7109375 4.078125 C-17.34147605 4.62369397 -25.46281393 6.65193268 -34.0234375 14.7890625 C-40.76250717 22.32723134 -43.09564118 30.9679088 -43.625 40.9375 C-43.68300781 41.96327148 -43.68300781 41.96327148 -43.7421875 43.00976562 C-43.83522412 44.67279513 -43.91863787 46.33635847 -44 48 C-44.33 48 -44.66 48 -45 48 C-45.33 43.71 -45.66 39.42 -46 35 C-46.33 40.28 -46.66 45.56 -47 51 C-47.33 51 -47.66 51 -48 51 C-48.59118312 36.22042212 -47.77251594 24.63576403 -38.3359375 12.48046875 C-34.42621581 8.32884121 -30.06131786 5.56722915 -25 3 C-24.29359375 2.64035156 -23.5871875 2.28070313 -22.859375 1.91015625 C-15.66489982 -1.06923519 -7.63227475 -0.25284837 0 0 Z " fill="#7043F3" transform="translate(347,184)"/>
<path d="M0 0 C-0.36925404 6.15423406 -1.82877227 8.72703501 -6 13 C-8.52475462 14.26237731 -10.31200466 14.09856404 -13.125 14.0625 C-14.03507813 14.05347656 -14.94515625 14.04445313 -15.8828125 14.03515625 C-16.58148438 14.02355469 -17.28015625 14.01195312 -18 14 C-18 13.01 -18 12.02 -18 11 C-17.38511719 10.89042969 -16.77023438 10.78085937 -16.13671875 10.66796875 C-15.32847656 10.50941406 -14.52023438 10.35085938 -13.6875 10.1875 C-12.88699219 10.03667969 -12.08648437 9.88585937 -11.26171875 9.73046875 C-8.72825711 8.91223502 -7.66836865 8.04310992 -6 6 C-5.505 4.9790625 -5.505 4.9790625 -5 3.9375 C-3.9202529 1.84548999 -2.66220058 0 0 0 Z " fill="#683AED" transform="translate(248,253)"/>
<path d="M0 0 C-0.20496094 0.62003906 -0.40992188 1.24007812 -0.62109375 1.87890625 C-3.07871624 9.95731129 -3.67148621 17.60590627 -4 26 C-4.33 26 -4.66 26 -5 26 C-5.33 21.71 -5.66 17.42 -6 13 C-6.33 18.28 -6.66 23.56 -7 29 C-7.33 29 -7.66 29 -8 29 C-8.6373057 7.33160622 -8.6373057 7.33160622 -5 1 C-2 0 -2 0 0 0 Z " fill="#7C54F2" transform="translate(307,206)"/>
<path d="M0 0 C0.66 0 1.32 0 2 0 C1.3900874 4.98844309 0.36525565 9.60155346 -1.0625 14.4375 C-1.42472656 15.67371094 -1.78695312 16.90992188 -2.16015625 18.18359375 C-2.43730469 19.11300781 -2.71445313 20.04242188 -3 21 C-3.99 21 -4.98 21 -6 21 C-7.74631582 16.87234443 -6.09432896 13.35529658 -4.6875 9.375 C-4.46126953 8.694375 -4.23503906 8.01375 -4.00195312 7.3125 C-2.98281185 4.34024936 -2.24917045 2.24917045 0 0 Z " fill="#6A3CEE" transform="translate(252,234)"/>
<path d="M0 0 C0.66 0 1.32 0 2 0 C3.77410051 5.31531689 4.2577668 9.85618805 4.125 15.4375 C4.11597656 16.16904297 4.10695313 16.90058594 4.09765625 17.65429688 C4.07436153 19.43634298 4.0385019 21.21821759 4 23 C3.67 23 3.34 23 3 23 C2.67 19.37 2.34 15.74 2 12 C1.67 13.98 1.34 15.96 1 18 C0.67 18 0.34 18 0 18 C-0.19384179 15.18780295 -0.38036603 12.37545804 -0.5625 9.5625 C-0.61857422 8.76005859 -0.67464844 7.95761719 -0.73242188 7.13085938 C-0.8616295 5.08937889 -0.9351273 3.04453631 -1 1 C-0.67 0.67 -0.34 0.34 0 0 Z " fill="#8058EF" transform="translate(377,211)"/>
<path d="M0 0 C0.74507813 0.00451172 1.49015625 0.00902344 2.2578125 0.01367188 C4.0885764 0.02540754 5.91929873 0.0433415 7.75 0.0625 C7.75 0.3925 7.75 0.7225 7.75 1.0625 C1.315 1.5575 1.315 1.5575 -5.25 2.0625 C-1.95 2.3925 1.35 2.7225 4.75 3.0625 C4.75 3.3925 4.75 3.7225 4.75 4.0625 C3.79738281 4.12308594 2.84476562 4.18367187 1.86328125 4.24609375 C0.60902344 4.32988281 -0.64523437 4.41367188 -1.9375 4.5 C-3.17886719 4.58121094 -4.42023438 4.66242188 -5.69921875 4.74609375 C-8.63180337 5.00741317 -11.38441617 5.41048379 -14.25 6.0625 C-14.25 3.0625 -14.25 3.0625 -12.25 1.0625 C-8.23212483 -0.25889512 -4.18259204 -0.0480333 0 0 Z " fill="#7E55F5" transform="translate(339.25,183.9375)"/>
<path d="M0 0 C0 0.99 0 1.98 0 3 C-4.42969921 5.28196626 -7.16047682 4.84499611 -12 4 C-15.99627301 3.61940257 -19.99759642 3.30888829 -24 3 C-24 2.67 -24 2.34 -24 2 C-22.98679687 1.95101563 -21.97359375 1.90203125 -20.9296875 1.8515625 C-19.57810089 1.77647436 -18.22653962 1.70092919 -16.875 1.625 C-16.20984375 1.5940625 -15.5446875 1.563125 -14.859375 1.53125 C-11.58615576 1.33870769 -8.81459582 0.93819861 -5.6953125 -0.1015625 C-3 -1 -3 -1 0 0 Z " fill="#744AED" transform="translate(358,262)"/>
<path d="M0 0 C1.32 0.66 2.64 1.32 4 2 C3.125 7.75 3.125 7.75 2 10 C0.35 10.66 -1.3 11.32 -3 12 C-2.01 8.04 -1.02 4.08 0 0 Z " fill="#7A50F1" transform="translate(253,224)"/>
<path d="M0 0 C0.19294408 4.82360189 -0.24252386 8.49646738 -2 13 C-2.99 13 -3.98 13 -5 13 C-4.85831863 11.56208484 -4.71148957 10.1246763 -4.5625 8.6875 C-4.48128906 7.88699219 -4.40007812 7.08648437 -4.31640625 6.26171875 C-4 4 -4 4 -3 1 C-1 0 -1 0 0 0 Z " fill="#6B3DF0" transform="translate(259,213)"/>
<path d="M0 0 C0 2.64 0 5.28 0 8 C-0.99 8.33 -1.98 8.66 -3 9 C-3.33 12.96 -3.66 16.92 -4 21 C-4.33 21 -4.66 21 -5 21 C-5.38363893 6.82667294 -5.38363893 6.82667294 -3 1 C-1 0 -1 0 0 0 Z " fill="#845DEF" transform="translate(92,210)"/>
<path d="M0 0 C5.94 0 11.88 0 18 0 C17.01 1.485 17.01 1.485 16 3 C13.70774565 2.88628503 11.41617612 2.75869036 9.125 2.625 C7.84882813 2.55539063 6.57265625 2.48578125 5.2578125 2.4140625 C2 2 2 2 0 0 Z " fill="#6534F3" transform="translate(332,185)"/>
<path d="M0 0 C1.98 0.99 1.98 0.99 4 2 C3.34 7.94 2.68 13.88 2 20 C1.67 20 1.34 20 1 20 C0.67 13.4 0.34 6.8 0 0 Z " fill="#774DEF" transform="translate(164,212)"/>
<path d="M0 0 C-0.33 1.32 -0.66 2.64 -1 4 C-7.27 3.34 -13.54 2.68 -20 2 C-20 1.67 -20 1.34 -20 1 C-17.60429729 0.8312461 -15.20846637 0.66493164 -12.8125 0.5 C-12.13896484 0.45230469 -11.46542969 0.40460938 -10.77148438 0.35546875 C-7.17363248 0.10976179 -3.60627694 -0.05601984 0 0 Z " fill="#774EED" transform="translate(142,263)"/>
<path d="M0 0 C0.33 0 0.66 0 1 0 C1 4.95 1 9.9 1 15 C0.01 15 -0.98 15 -2 15 C-1.85879286 13.06215735 -1.71187127 11.12473045 -1.5625 9.1875 C-1.48128906 8.10855469 -1.40007812 7.02960938 -1.31640625 5.91796875 C-1 3 -1 3 0 0 Z " fill="#6433EB" transform="translate(379,220)"/>
<path d="M0 0 C0.33 0 0.66 0 1 0 C1.41713515 1.43146378 1.8080497 2.87058886 2.1875 4.3125 C2.40792969 5.11300781 2.62835938 5.91351563 2.85546875 6.73828125 C3 9 3 9 1.55078125 10.79296875 C1.03902344 11.19128906 0.52726562 11.58960938 0 12 C-2.08575198 7.58311346 -2.08575198 7.58311346 -1.6875 4.875 C-1.460625 4.25625 -1.23375 3.6375 -1 3 C-0.67 2.01 -0.34 1.02 0 0 Z " fill="#7144EB" transform="translate(91,234)"/>
<path d="M0 0 C2.97 0 5.94 0 9 0 C8.67 0.99 8.34 1.98 8 3 C5.36 3 2.72 3 0 3 C0 2.01 0 1.02 0 0 Z " fill="#5E2DEB" transform="translate(230,264)"/>
<path d="M0 0 C2 3 2 3 2 7 C0.68 7.33 -0.64 7.66 -2 8 C-2.33 6.02 -2.66 4.04 -3 2 C-2.01 1.34 -1.02 0.68 0 0 Z " fill="#7A50F1" transform="translate(214,224)"/>
<path d="M0 0 C1.32 0.66 2.64 1.32 4 2 C3.67 3.65 3.34 5.3 3 7 C2.01 7 1.02 7 0 7 C-0.93423645 3.98968256 -1.04449911 3.13349732 0 0 Z " fill="#7349EF" transform="translate(246,248)"/>
<path d="M0 0 C1.5 1.25 1.5 1.25 3 3 C3 4.32 3 5.64 3 7 C1.35 7.33 -0.3 7.66 -2 8 C-1.34 5.36 -0.68 2.72 0 0 Z " fill="#7E56F3" transform="translate(261,197)"/>
<path d="M0 0 C1.65 0 3.3 0 5 0 C4.01 0.495 4.01 0.495 3 1 C3 1.66 3 2.32 3 3 C3.99 3.33 4.98 3.66 6 4 C3.69 3.67 1.38 3.34 -1 3 C-0.67 2.01 -0.34 1.02 0 0 Z " fill="#754BEC" transform="translate(113,263)"/>
<path d="M0 0 C0.6875 1.75 0.6875 1.75 1 4 C-0.4375 6.25 -0.4375 6.25 -2 8 C-2.6875 6.25 -2.6875 6.25 -3 4 C-1.5625 1.75 -1.5625 1.75 0 0 Z " fill="#6637EA" transform="translate(376,242)"/>
</svg>
