<?xml version="1.0" encoding="UTF-8"?>
<svg version="1.1" xmlns="http://www.w3.org/2000/svg" width="1355" height="1359">
<path d="M0 0 C2.6187626 -0.00258618 5.2375248 -0.00560004 7.85628647 -0.0090034 C14.2841216 -0.0165468 20.71194842 -0.01877459 27.13978752 -0.01933246 C34.84495805 -0.02024975 42.55012099 -0.02692816 50.25528823 -0.03367928 C68.87549287 -0.04970529 87.49569665 -0.05563901 106.11590694 -0.06042803 C114.93406306 -0.06276772 123.75221852 -0.06637081 132.57037413 -0.07012341 C162.78776545 -0.08295685 193.00515641 -0.09367546 223.22255039 -0.09712601 C225.11787166 -0.09734764 227.01319293 -0.09756942 228.9085142 -0.09779136 C230.80827552 -0.098012 232.70803684 -0.09823248 234.60779816 -0.09845281 C238.4187028 -0.09889534 242.22960744 -0.09934246 246.04051208 -0.09979248 C246.98538811 -0.09990187 247.93026413 -0.10001126 248.90377275 -0.10012397 C279.51684282 -0.10375172 310.12988917 -0.11966218 340.74295016 -0.14298284 C373.1494239 -0.16762432 405.5558841 -0.18130087 437.96236748 -0.18249393 C441.52551933 -0.18266536 445.08867119 -0.18288079 448.65182304 -0.18312836 C449.9677348 -0.18321201 449.9677348 -0.18321201 451.31023064 -0.18329735 C465.37888137 -0.18444413 479.44750759 -0.19543435 493.51615006 -0.21001541 C507.68007978 -0.22444042 521.84397837 -0.22758374 536.00791342 -0.21957543 C544.40269957 -0.21514711 552.79738464 -0.21886646 561.19215734 -0.23481394 C566.82316174 -0.24466499 572.45409643 -0.2432908 578.08510041 -0.23337771 C581.27814399 -0.22805734 584.47096109 -0.2287629 587.66399498 -0.23988643 C610.28665054 -0.31362083 632.7971576 1.33493859 655.00462341 5.82794189 C656.92528625 6.21139771 656.92528625 6.21139771 658.88475037 6.6026001 C709.78619849 17.01642688 758.93246292 40.23245272 798.44212341 74.14044189 C799.92518982 75.34893799 799.92518982 75.34893799 801.43821716 76.58184814 C809.28589691 83.03333663 816.55695909 90.04186075 823.75462341 97.20294189 C824.67348328 98.11261719 825.59234314 99.02229248 826.53904724 99.95953369 C832.59916888 106.0470148 838.10140004 112.41805832 843.44212341 119.14044189 C844.49047486 120.41848055 845.54095776 121.69477668 846.59446716 122.96856689 C853.44769633 131.35098943 859.66247175 139.98628995 865.44212341 149.14044189 C865.80870056 149.71665283 866.17527771 150.29286377 866.55296326 150.88653564 C896.89076269 198.90437162 916.6751426 256.44261744 916.57355118 313.61759377 C916.57663013 315.26018024 916.57663013 315.26018024 916.57977128 316.93595028 C916.5854057 320.5890561 916.58398845 324.24212379 916.58256531 327.89523315 C916.58515099 330.54755745 916.58812627 333.19987876 916.59156871 335.85220182 C916.59911759 342.36686364 916.60134018 348.88151725 916.60189776 355.39618299 C916.60281451 363.20437284 916.60949129 371.01255519 916.61624459 378.8207418 C916.63227609 397.69047775 916.6382049 416.56021287 916.64299334 435.4299544 C916.64533243 444.36481177 916.64893545 453.29966849 916.65268871 462.23452535 C916.66552252 492.84687389 916.67624119 523.45922208 916.67969131 554.07157326 C916.67991294 555.99192396 916.68013473 557.91227465 916.68035667 559.83262535 C916.6805773 561.75749637 916.68079779 563.68236739 916.68101811 565.60723841 C916.68146065 569.46856666 916.68190777 573.3298949 916.68235779 577.19122314 C916.68246718 578.14860231 916.68257657 579.10598148 916.68268928 580.09237213 C916.68631744 611.11411914 916.70222928 642.13584274 916.72554815 673.15758079 C916.75018303 705.99036481 916.76386587 738.82313545 916.76505923 771.65592897 C916.76523067 775.26511979 916.7654461 778.87431061 916.76569366 782.48350143 C916.76574943 783.37212249 916.7658052 784.26074355 916.76586266 785.17629252 C916.76701 799.43414916 916.77800503 813.69198165 916.79258072 827.94983016 C916.80699721 842.30092186 916.81015378 856.65198283 916.80214074 871.00307979 C916.79770848 879.51159185 916.80144792 888.02000425 916.81737925 896.52850307 C916.8272163 902.23279674 916.82586901 907.93702153 916.81594302 913.64131475 C916.8106129 916.87787517 916.81135248 920.11421144 916.82245174 923.35076244 C916.89036934 944.51530513 915.36331274 965.48159878 911.19212341 986.26544189 C910.98377869 987.32198975 910.77543396 988.3785376 910.56077576 989.46710205 C900.11422236 1040.39689064 876.74172645 1087.62994517 844.44212341 1128.14044189 C843.78784363 1128.9726123 843.78784363 1128.9726123 843.12034607 1129.82159424 C835.86818165 1138.97374091 827.60301324 1147.18504429 819.37962341 1155.45294189 C818.82481293 1156.01311005 818.27000244 1156.5732782 817.69837952 1157.15042114 C810.61746989 1164.28308397 803.37893417 1170.94914265 795.44212341 1177.14044189 C794.25719299 1178.07593872 794.25719299 1178.07593872 793.04832458 1179.03033447 C773.80618022 1194.08790546 753.32068238 1206.31697391 731.44212341 1217.14044189 C730.64080994 1217.542146 729.83949646 1217.9438501 729.01390076 1218.35772705 C690.49389003 1237.4671046 644.9349362 1248.34852516 602.01461697 1248.27186966 C600.38007757 1248.27494861 600.38007757 1248.27494861 598.71251717 1248.27808976 C595.07765082 1248.28372375 591.4428228 1248.28230698 587.80795288 1248.28088379 C585.16871567 1248.2834695 582.52948147 1248.28644479 579.8902455 1248.28988719 C573.4079211 1248.29743582 566.92560494 1248.29965865 560.4432766 1248.30021625 C552.67374267 1248.30113302 544.90421627 1248.30780991 537.1346856 1248.31456307 C518.35796474 1248.33059457 499.58124472 1248.33652347 480.80451824 1248.34131182 C471.9131806 1248.343651 463.0218436 1248.34725404 454.13050646 1248.3510072 C423.66575791 1248.36384125 393.20100971 1248.37455971 362.73625851 1248.3780098 C360.82515467 1248.37823143 358.91405084 1248.37845321 357.00294701 1248.37867515 C355.08734902 1248.37889578 353.17175103 1248.37911627 351.25615305 1248.3793366 C347.41343939 1248.37977914 343.57072574 1248.38022625 339.72801208 1248.38067627 C338.77524821 1248.38078566 337.82248433 1248.38089505 336.84084882 1248.38100776 C305.97159696 1248.38463558 275.10236863 1248.400546 244.23312578 1248.42386663 C211.55995788 1248.44850471 178.88680342 1248.46218451 146.21362597 1248.46337771 C142.62154901 1248.46354915 139.02947205 1248.46376458 135.4373951 1248.46401215 C134.11078882 1248.4640958 134.11078882 1248.4640958 132.75738242 1248.46418114 C118.57039053 1248.46532823 104.38342293 1248.47632115 90.19643921 1248.4908992 C75.91478304 1248.50531985 61.63315774 1248.50846995 47.35149627 1248.50045922 C38.88540819 1248.49602883 30.4194203 1248.49975872 21.95334555 1248.51569773 C16.27605416 1248.52554147 10.59883196 1248.52418132 4.92154102 1248.5142615 C1.70122305 1248.50893603 -1.51886999 1248.50965941 -4.73917843 1248.52077022 C-83.42496807 1248.77479192 -162.82530049 1221.21343945 -221.08131409 1167.40606689 C-223.14380533 1165.51924525 -225.23575817 1163.68603372 -227.35084534 1161.85919189 C-231.5558941 1158.18786841 -235.55133153 1154.33929559 -239.49537659 1150.39044189 C-240.19485413 1149.69015869 -240.89433167 1148.98987549 -241.61500549 1148.26837158 C-246.20700793 1143.62199438 -250.47377513 1138.88820401 -254.50709534 1133.74591064 C-256.67533876 1130.99120901 -258.95462228 1128.35636813 -261.24537659 1125.70294189 C-272.86712311 1111.72080965 -282.52471049 1096.49819597 -291.22779846 1080.56573486 C-292.43706972 1078.36072373 -293.6723188 1076.17309305 -294.91725159 1073.98809814 C-315.35205251 1037.53767871 -326.28060853 995.47472513 -330.55787659 954.14044189 C-330.64093609 953.37708932 -330.72399559 952.61373674 -330.80957204 951.82725227 C-331.9307697 939.81164742 -331.69978323 927.75637789 -331.69158936 915.70077515 C-331.69345895 913.09494839 -331.69576024 910.48912192 -331.69845468 907.88329589 C-331.7035885 902.22942002 -331.7050294 896.5755527 -331.70399857 890.92167473 C-331.70246933 882.51343638 -331.70664497 874.10520745 -331.71187319 865.69697093 C-331.72153087 849.80198006 -331.72435686 833.90699243 -331.72493025 818.01199897 C-331.72539034 805.73180323 -331.72745152 793.45160875 -331.73063087 781.17141342 C-331.73152847 777.63255847 -331.73241828 774.09370351 -331.73330575 770.55484855 C-331.7335268 769.67499141 -331.73374785 768.79513426 -331.7339756 767.88861478 C-331.74012775 743.14759656 -331.74407638 718.40657878 -331.74363232 693.66555977 C-331.74361674 692.73324746 -331.74360116 691.80093514 -331.74358511 690.84037094 C-331.743502 686.11537913 -331.74340296 681.39038732 -331.7433004 676.66539551 C-331.74328046 675.72705266 -331.74326051 674.78870981 -331.74323996 673.82193233 C-331.74319952 671.92437383 -331.74315773 670.02681533 -331.74311457 668.12925684 C-331.74250214 638.62223807 -331.75000318 609.11523081 -331.76368713 579.60821533 C-331.7790674 546.43001681 -331.78765216 513.25182585 -331.78672391 480.07362354 C-331.78664929 476.53162503 -331.78660058 472.98962653 -331.7865696 469.44762802 C-331.78655794 468.575549 -331.78654629 467.70346998 -331.78653428 466.80496432 C-331.78650358 452.80600003 -331.79287379 438.80704577 -331.80150186 424.80808445 C-331.81000326 410.72265988 -331.81094891 396.63724989 -331.80439254 382.55182417 C-331.80071323 374.19822235 -331.80248048 365.84466499 -331.81233488 357.49106794 C-331.81909026 351.23229544 -331.8152376 344.97356964 -331.80746166 338.71479927 C-331.80593374 336.19864426 -331.80771582 333.68248435 -331.81332173 331.16633512 C-331.85387824 311.6560368 -331.05783164 292.23626073 -327.87037659 272.95294189 C-327.70304016 271.93579102 -327.53570374 270.91864014 -327.36329651 269.8706665 C-318.06518566 216.05606185 -295.24672137 164.43547856 -260.55787659 122.14044189 C-260.12700745 121.61482666 -259.69613831 121.08921143 -259.25221252 120.54766846 C-246.84312177 105.48012404 -233.7091128 90.55223218 -218.37428284 78.40216064 C-215.89951348 76.41479385 -213.51011574 74.3562592 -211.12770081 72.2600708 C-196.68109257 59.6557983 -180.14472392 49.6516603 -163.55787659 40.14044189 C-162.86049377 39.73873779 -162.16311096 39.33703369 -161.44459534 38.92315674 C-124.02686845 17.60776718 -81.21024714 5.66561109 -38.55787659 1.14044189 C-37.79885373 1.05746046 -37.03983087 0.97447903 -36.25780731 0.88898301 C-24.19903211 -0.23546083 -12.0988895 -0.00478246 0 0 Z " fill="#F3DC0B" transform="translate(384.55787658691406,54.85955810546875)"/>
<path d="M0 0 C57.09 0 114.18 0 173 0 C169.62540052 10.12379843 169.62540052 10.12379843 167.88134766 14.109375 C167.29137497 15.46573059 167.29137497 15.46573059 166.68948364 16.8494873 C166.26859467 17.80665649 165.84770569 18.76382568 165.4140625 19.75 C164.96521698 20.77967896 164.51637146 21.80935791 164.05392456 22.87023926 C163.08649013 25.0887653 162.11737082 27.30655723 161.14672852 29.52368164 C158.79805554 34.88911635 156.45980981 40.25908681 154.12149811 45.62904358 C153.58566415 46.85944158 153.04968811 48.08977771 152.51357269 49.3200531 C147.12279634 61.69083515 141.80228952 74.09108217 136.5 86.5 C128.1238736 106.09269913 119.66524049 125.64874688 111.1640625 145.1875 C104.38717207 160.76804013 97.68069358 176.37799136 91 192 C79.19614094 219.59310389 67.38754853 247.18257681 55.39596558 274.69476318 C48.64431489 290.1863924 41.96343678 305.70722421 35.31958008 321.24536133 C30.84918685 331.69848408 26.34681858 342.13696036 21.8125 352.5625 C17.42204253 362.66095757 13.11802604 372.78729542 9 383 C9.93457031 382.50371094 10.86914062 382.00742187 11.83203125 381.49609375 C33.73900441 370.07116979 57.98743327 361.93486277 82.9140625 361.796875 C83.75786469 361.78986069 84.60166687 361.78284637 85.47103882 361.77561951 C88.18908034 361.75815835 90.90690441 361.75176492 93.625 361.75 C94.55006348 361.74932526 95.47512695 361.74865051 96.42822266 361.74795532 C109.79950663 361.7634932 122.91545776 361.94744089 136 365 C136.72364746 365.16628906 137.44729492 365.33257813 138.19287109 365.50390625 C150.32312785 368.41970356 162.19584341 373.15458324 173.12841797 379.17138672 C173.81693848 379.54666504 174.50545898 379.92194336 175.21484375 380.30859375 C175.82320068 380.65591553 176.43155762 381.0032373 177.05834961 381.36108398 C181.93891547 382.96707429 187.07332994 379.90453343 191.5859375 378.0703125 C192.33810547 377.76858627 193.09027344 377.46686005 193.86523438 377.1559906 C196.3701984 376.14985187 198.87258745 375.13746623 201.375 374.125 C203.15822818 373.40712854 204.94159718 372.68960681 206.72509766 371.97241211 C211.50388856 370.0492363 216.28035103 368.12034448 221.05615234 366.1897583 C223.97325078 365.01081072 226.89083419 363.83307205 229.80859375 362.65576172 C243.54305054 357.11368541 257.27235762 351.55893059 271 346 C272.97688472 345.19953613 274.95377274 344.39908038 276.93066406 343.59863281 C277.90170074 343.20545364 278.87273743 342.81227448 279.87319946 342.40718079 C282.75089202 341.24201754 285.62861885 340.07693894 288.50634766 338.91186523 C292.05049318 337.47697481 295.59442449 336.04155738 299.13818359 334.60571289 C303.02579069 333.03070238 306.91475417 331.45907612 310.80419922 329.88861084 C313.01809162 328.99267857 315.2298379 328.09159307 317.44140625 327.18994141 C318.81505558 326.63301817 320.18875105 326.07620872 321.5625 325.51953125 C322.76003906 325.03202393 323.95757813 324.5445166 325.19140625 324.04223633 C328 323 328 323 330 323 C327.82244474 329.7987501 325.33293263 336.44426893 322.71875 343.0859375 C322.10421463 344.654505 322.10421463 344.654505 321.4772644 346.25476074 C320.15411691 349.62920403 318.82730397 353.00218967 317.5 356.375 C316.81855927 358.10970551 316.81855927 358.10970551 316.12335205 359.87945557 C310.87172973 373.24741114 305.59385161 386.60138446 300.13793945 399.88745117 C295.9326464 410.13209903 291.80288161 420.40643967 287.6875 430.6875 C287.3017984 431.65095337 286.9160968 432.61440674 286.51870728 433.60705566 C282.12659134 444.58593447 277.76278739 455.57526134 273.4609375 466.58984375 C271.82837759 470.76832794 270.19571612 474.94677225 268.5625 479.125 C268.13915375 480.20804413 267.7158075 481.29108826 267.27963257 482.4069519 C260.12862122 500.67862211 252.84663168 518.89669712 245.52734375 537.1015625 C245.05905214 538.26634754 244.59076054 539.43113258 244.10827827 540.63121414 C239.33927485 552.49122356 234.56539386 564.34926063 229.78520775 576.20476723 C227.52208753 581.81824592 225.26047326 587.43232992 223 593.046875 C222.34383572 594.67664339 222.34383572 594.67664339 221.67441559 596.3393364 C215.21777072 612.38604045 208.88092989 628.47516821 202.64260769 644.60783768 C199.25474125 653.36766581 195.78156236 662.08894374 192.22122192 670.78005981 C182.83920583 693.69962851 173.74179283 716.73332874 164.61645508 739.75585938 C163.78022396 741.86550448 162.94399075 743.97514876 162.10774803 746.08478928 C161.56098077 747.46426173 161.01427958 748.84376038 160.46764565 750.22328568 C156.41521867 760.44975165 152.33597666 770.66520713 148.24127197 780.87483215 C146.29650286 785.73115729 144.37377209 790.59256821 142.51953125 795.484375 C138.9077823 804.96226007 134.98524016 814.31928862 131.13964844 823.70394897 C124.13214359 840.81581516 117.16719244 857.93976804 110.5 875.1875 C102.78223032 895.14620488 94.83067663 915.01026261 86.875 934.875 C86.55697418 935.66914181 86.23894836 936.46328362 85.9112854 937.28149033 C82.505758 945.78508962 79.09852625 954.28800587 75.69091797 962.79077148 C75.38890158 963.54438524 75.08688519 964.297999 74.77571678 965.07444954 C73.20624802 968.99059253 71.63653123 972.90663588 70.06646729 976.82254028 C68.47187527 980.79981734 66.87822441 984.77747046 65.28516006 988.75535965 C64.690136 990.24068654 64.09479945 991.72588831 63.49911118 993.21094894 C58.86765827 1004.75780053 54.3580492 1016.34695541 50 1028 C48.64354015 1023.54804241 49.61515956 1019.7691116 50.55126953 1015.3137207 C50.72840988 1014.43645828 50.90555023 1013.55919586 51.08805847 1012.65534973 C51.67810678 1009.74375693 52.28044731 1006.83484866 52.8828125 1003.92578125 C53.29901852 1001.88404256 53.71444156 999.84214412 54.12911987 997.8000946 C55.22763371 992.40105576 56.33648433 987.00419058 57.4475708 981.60772705 C58.55688156 976.2116933 59.6571423 970.81381729 60.7578125 965.41601562 C62.00590088 959.29726301 63.25476582 953.17868241 64.51101685 947.06159973 C69.13662282 924.53358011 73.60636198 901.97546038 78.03809166 879.40858459 C78.85125929 875.26797982 79.66539337 871.12756538 80.47969055 866.98718262 C80.76348075 865.54416668 81.04727038 864.10115062 81.33105946 862.65813446 C81.47297297 861.93653358 81.61488649 861.21493269 81.76110041 860.47146511 C83.64580709 850.88777185 85.52981295 841.30394147 87.41186523 831.71972656 C93.58602783 800.28015718 99.78767324 768.84823353 106.24172688 737.46460533 C110.53295037 716.59351311 114.66237467 695.69084677 118.75759125 674.78052139 C119.63437097 670.30458766 120.51239821 665.82889919 121.39048648 661.35322201 C121.51921311 660.69708979 121.64793973 660.04095757 121.78056717 659.36494255 C121.91000166 658.7052062 122.03943616 658.04546985 122.17279291 657.36574149 C123.90731642 648.52434943 125.64097121 639.6827879 127.37255859 630.84082031 C128.67980891 624.1656861 129.98911906 617.49095843 131.29962921 610.81646347 C131.79633828 608.28477775 132.29232951 605.75295109 132.78759003 603.2209816 C133.4747518 599.7083247 134.16433223 596.19615089 134.85449219 592.68408203 C135.05810867 591.64010757 135.26172516 590.59613312 135.47151184 589.52052307 C135.75302345 588.09184654 135.75302345 588.09184654 136.04022217 586.63430786 C136.20241619 585.80674547 136.36461021 584.97918308 136.53171921 584.12654305 C137 582 137 582 138 579 C137.34 578.67 136.68 578.34 136 578 C136.66 577.67 137.32 577.34 138 577 C138.76811803 574.53976102 138.76811803 574.53976102 139.32861328 571.50219727 C139.56871124 570.32750381 139.8088092 569.15281036 140.05618286 567.94252014 C140.30834564 566.66340256 140.56050842 565.38428497 140.8203125 564.06640625 C141.08580087 562.7496916 141.35199449 561.43311897 141.61886597 560.11668396 C142.17705103 557.35443689 142.72965562 554.59115479 143.27783203 551.8269043 C143.98125061 548.27991766 144.69373651 544.73483674 145.40980721 541.19038486 C146.09119006 537.81630283 146.76860613 534.44142886 147.4453125 531.06640625 C147.70152374 529.7893129 147.95773499 528.51221954 148.22171021 527.19642639 C148.45550385 526.01858078 148.68929749 524.84073517 148.93017578 523.62719727 C149.13732208 522.58652603 149.34446838 521.5458548 149.55789185 520.47364807 C150.05864641 518.09067397 150.05864641 518.09067397 150 516 C148.85152588 516.51159668 147.70305176 517.02319336 146.51977539 517.55029297 C120.73227984 529.03507914 94.91732932 540.45433845 69.06054688 551.78222656 C61.39413014 555.1413305 53.73073693 558.50732237 46.06707764 561.87271118 C41.79219266 563.74995477 37.51720818 565.6269717 33.2421875 567.50390625 C31.97316086 568.06107582 31.97316086 568.06107582 30.67849731 568.62950134 C25.5740496 570.87045244 20.469129 573.11032242 15.36383057 575.34933472 C-2.03348355 582.97926324 -19.4247234 590.62245042 -36.79867554 598.30545044 C-52.04803901 605.04885379 -67.29893956 611.78877988 -82.5625 618.5 C-83.42010925 618.87710114 -84.27771851 619.25420227 -85.16131592 619.64273071 C-96.66387391 624.69682687 -108.2008431 629.65445334 -119.78710938 634.51367188 C-126.27426828 637.2426347 -132.65585269 640.11744975 -139.01171875 643.140625 C-147.48217136 647.13247304 -156.109938 650.79341552 -164.6875 654.54736328 C-167.96090323 655.98285482 -171.23099942 657.42560723 -174.5 658.87109375 C-186.94901759 664.37314453 -199.43309758 669.77252808 -212 675 C-210.74536415 667.94246571 -208.95518147 661.22088627 -206.734375 654.41015625 C-206.26055389 652.93415199 -206.26055389 652.93415199 -205.77716064 651.42832947 C-204.77323563 648.30470695 -203.7618564 645.18356114 -202.75 642.0625 C-202.08672421 640.00472334 -201.42395998 637.94678171 -200.76171875 635.88867188 C-199.77888996 632.83499071 -198.79567567 629.78143892 -197.8106842 626.72845459 C-193.58772996 613.63782091 -189.46784288 600.51584827 -185.37890625 587.3828125 C-185.06716461 586.38183029 -184.75542297 585.38084808 -184.43423462 584.34953308 C-182.51903621 578.19945586 -182.51903621 578.19945586 -180.60717773 572.04833984 C-176.96210936 560.31276996 -173.25977714 548.60408163 -169.31837463 536.96414185 C-167.37618305 531.21382344 -165.62420121 525.4321252 -163.94258118 519.60003662 C-160.12312278 506.37601103 -155.81316331 493.27815681 -151.375 480.25 C-149.52171836 474.75111831 -147.92331999 469.21442442 -146.375 463.625 C-143.73860509 454.13682657 -140.65263845 444.82551004 -137.5 435.5 C-134.18620424 425.69709397 -131.01138617 415.89847603 -128.28173828 405.91381836 C-125.74023264 396.77183571 -122.6628474 387.80541306 -119.60131836 378.82739258 C-117.17579815 371.68134461 -114.96916701 364.51477866 -112.93359375 357.24829102 C-111.61972729 352.67690158 -110.10630253 348.18531781 -108.5625 343.6875 C-106.46703787 337.48874807 -104.43558596 331.2881161 -102.625 325 C-100.51013786 317.6616284 -98.2916913 310.35662411 -96.0355835 303.06054688 C-95.45418582 301.17899946 -94.87573082 299.29654355 -94.29736328 297.4140625 C-92.61364579 291.98128707 -90.88585865 286.59059749 -88.90625 281.2578125 C-87.01436162 276.15452654 -85.50064167 270.9965355 -84.0625 265.75 C-81.62953103 257.06488444 -78.9332977 248.53078322 -76 240 C-72.84498417 230.81120825 -69.84458451 221.61760425 -67.234375 212.2578125 C-64.39094296 202.19258618 -61.28306012 192.22558334 -58.07897949 182.27011108 C-56.53420053 177.46999022 -55.00003549 172.66647517 -53.46484375 167.86328125 C-53.16285065 166.91926956 -52.86085754 165.97525787 -52.54971313 165.00263977 C-50.07071509 157.24473162 -47.64721626 149.47104726 -45.25 141.6875 C-42.17088614 131.70719529 -39.02021177 121.75206769 -35.8125 111.8125 C-35.59899902 111.15077789 -35.38549805 110.48905579 -35.16552734 109.80728149 C-32.74483617 102.31219099 -30.28106625 94.83354943 -27.75 87.375 C-25.31371573 80.18652031 -23.22988917 72.91611663 -21.17871094 65.60961914 C-19.02673158 57.98250227 -16.57721946 50.49521623 -14 43 C-10.35334808 32.37934803 -6.9732708 21.73648161 -4.00415039 10.90380859 C-3.65404907 9.64044678 -3.65404907 9.64044678 -3.296875 8.3515625 C-2.99281738 7.23515381 -2.99281738 7.23515381 -2.68261719 6.09619141 C-2 4 -2 4 0 0 Z " fill="#E52A2B" transform="translate(592,184)"/>
<path d="M0 0 C1.40204872 0.42935002 2.80441294 0.85767065 4.20703125 1.28515625 C16.60690118 5.21525563 28.10112598 10.70815956 39.67358398 16.58129883 C59.33593449 26.47794417 78.3478184 31.61719479 100 25 C100.77504883 24.76313477 101.55009766 24.52626953 102.34863281 24.28222656 C117.02116951 19.72982236 131.35193257 14.29753555 145.63354492 8.65673828 C159.77856831 3.10692003 173.946878 -1.13300799 188.9375 -3.75 C190.06478516 -3.95753906 191.19207031 -4.16507813 192.35351562 -4.37890625 C203.55462874 -6.39653848 214.34533539 -7.16526374 225.72436523 -7.13037109 C227.82608096 -7.12496507 229.92758723 -7.13037139 232.02929688 -7.13671875 C233.3802088 -7.13605863 234.7311206 -7.13477885 236.08203125 -7.1328125 C237.89537964 -7.13112061 237.89537964 -7.13112061 239.74536133 -7.12939453 C242.62631173 -7.01485671 245.20200188 -6.66538767 248 -6 C247.44123654 0.80206221 246.45375435 7.38424452 245.0625 14.0625 C244.8572168 15.06748535 244.65193359 16.0724707 244.44042969 17.10791016 C243.94350501 19.53897075 243.44443177 21.96959263 242.94384766 24.39990234 C242.00414805 28.969495 241.07757139 33.54171804 240.15135193 38.11405945 C239.24779168 42.57435936 238.34230116 47.03426624 237.43649292 51.49411011 C236.97883121 53.74803555 236.52157615 56.0020436 236.06472778 58.25613403 C235.41483631 61.46020699 234.76243496 64.66375905 234.109375 67.8671875 C233.81277229 69.3328289 233.81277229 69.3328289 233.51017761 70.82807922 C233.32602798 71.72898788 233.14187836 72.62989655 232.95214844 73.55810547 C232.79180115 74.34651825 232.63145386 75.13493103 232.46624756 75.94723511 C232 78 232 78 231 81 C230.13947021 81.07516846 229.27894043 81.15033691 228.39233398 81.2277832 C225.12068493 81.51759852 221.84988275 81.81492672 218.5793457 82.11694336 C217.17856536 82.24483861 215.77752767 82.36995347 214.3762207 82.49194336 C200.86332982 83.67183286 187.69780965 85.70164595 174.8125 90.125 C173.92941162 90.4243042 173.04632324 90.7236084 172.13647461 91.03198242 C161.52030637 94.72928223 151.41057139 99.4941078 141.25976562 104.29638672 C120.89210896 113.90972223 102.03645449 120.38874353 79.24682617 120.31567383 C77.19981241 120.31251898 75.15425803 120.33605854 73.10742188 120.36132812 C60.81122959 120.42161985 48.82321699 118.72577227 37.375 114 C36.58488525 113.68240723 35.79477051 113.36481445 34.98071289 113.03759766 C28.88478763 110.47446855 23.02130624 107.51251904 17.16015625 104.4609375 C16.36681885 104.04853821 15.57348145 103.63613892 14.75610352 103.21124268 C10.75968898 101.12739795 6.77737742 99.02124027 2.81201172 96.87890625 C-16.57462543 86.53394906 -35.54074645 81.57225123 -57.5 81.6875 C-58.25555176 81.68998749 -59.01110352 81.69247498 -59.78955078 81.69503784 C-71.43835888 81.75433538 -82.64137556 82.26760724 -94 85 C-94.97807617 85.23106445 -95.95615234 85.46212891 -96.96386719 85.70019531 C-125.0601401 92.48323113 -152.22861129 102.94011513 -176.859375 118.1640625 C-180 120 -180 120 -182 120 C-182 89.64 -182 59.28 -182 28 C-150.13779551 12.70614184 -119.64993121 0.96074878 -85 -5 C-83.89325928 -5.19916016 -83.89325928 -5.19916016 -82.76416016 -5.40234375 C-56.17445752 -10.03682803 -25.54823792 -8.57229105 0 0 Z " fill="#28A8DF" transform="translate(458,889)"/>
<path d="M0 0 C2.7400437 1.68012541 2.7400437 1.68012541 5.64649963 2.95310974 C9.58325906 5.0964952 13.01420642 7.13771935 14.38447189 11.64111519 C15.35849373 17.90149281 15.03411354 24.23252695 14.84869385 30.54260254 C14.82815918 32.59378884 14.81250973 34.64502936 14.80152893 36.69628906 C14.75966945 42.07685171 14.65175056 47.45411059 14.52978516 52.83337402 C14.4169448 58.32974554 14.36695315 63.82665483 14.31158447 69.32385254 C14.19386285 80.0961319 14.00630544 90.86596677 13.7744751 101.63635254 C12.03944292 100.53843205 10.30522851 99.4392192 8.5713501 98.33947754 C7.60552002 97.72749512 6.63968994 97.1155127 5.64459229 96.48498535 C3.07211371 94.82806057 0.54557947 93.11987596 -1.9755249 91.38635254 C-17.79593706 81.39451328 -35.22412854 74.51259286 -53.2255249 69.63635254 C-54.00734131 69.42397949 -54.78915771 69.21160645 -55.59466553 68.99279785 C-89.89629739 59.9528579 -125.5201987 61.68615101 -156.51507568 79.61193848 C-160.13900649 81.78236578 -163.6639433 84.10175943 -167.15130615 86.48400879 C-167.83579834 86.86428223 -168.52029053 87.24455566 -169.2255249 87.63635254 C-169.8855249 87.30635254 -170.5455249 86.97635254 -171.2255249 86.63635254 C-170.4911499 84.80041504 -169.7567749 82.96447754 -169.0223999 81.12854004 C-168.30177368 79.32691406 -168.30177368 79.32691406 -167.56658936 77.4888916 C-166.49756364 74.81630654 -165.42837257 72.14378771 -164.35906982 69.47131348 C-161.78357033 63.03406038 -159.20892546 56.59647242 -156.63894653 50.15701294 C-155.53733191 47.39688387 -154.43510082 44.63700118 -153.33282471 41.87713623 C-152.80346237 40.55120999 -152.27440901 39.22516035 -151.7456665 37.89898682 C-151.00665534 36.04550762 -150.26650814 34.1924815 -149.52630615 32.33947754 C-149.10518555 31.28405762 -148.68406494 30.2286377 -148.25018311 29.14123535 C-147.2255249 26.63635254 -147.2255249 26.63635254 -146.2255249 24.63635254 C-147.23373291 25.05070557 -148.24194092 25.46505859 -149.28070068 25.89196777 C-175.92046239 36.83520558 -202.60461088 47.6662952 -229.32733154 58.40515137 C-231.951049 59.45983215 -234.57465537 60.51478881 -237.19818115 61.56994629 C-237.83978746 61.8279558 -238.48139378 62.08596531 -239.1424427 62.35179329 C-247.89531485 65.87316348 -256.62846601 69.43990326 -265.34661865 73.04650879 C-268.2544862 74.24425181 -271.16267117 75.44122105 -274.07092285 76.63803101 C-276.71968757 77.73310009 -279.36245317 78.84181649 -282.00531006 79.9510498 C-283.57972531 80.59946381 -285.15441408 81.24721424 -286.72943115 81.89416504 C-287.7732621 82.34053062 -287.7732621 82.34053062 -288.83818054 82.7959137 C-293.75860703 84.79159364 -296.49953682 84.75872455 -301.31512451 82.77600098 C-301.99583008 82.43601074 -302.67653564 82.09602051 -303.37786865 81.74572754 C-304.14671387 81.36827393 -304.91555908 80.99082031 -305.70770264 80.60192871 C-306.51795898 80.20078857 -307.32821533 79.79964844 -308.1630249 79.38635254 C-327.86229753 69.9062296 -348.25478473 64.6697274 -370.15911865 64.36291504 C-370.98637451 64.35038696 -371.81363037 64.33785889 -372.66595459 64.32495117 C-391.74301397 64.0920865 -409.70524864 64.50828928 -428.2255249 69.63635254 C-429.04907471 69.86097168 -429.87262451 70.08559082 -430.72113037 70.3170166 C-443.72391915 73.98933557 -456.15899196 79.60308607 -468.2255249 85.63635254 C-465.88796125 77.96304578 -462.72135492 70.73450914 -459.44662476 63.42889404 C-457.75751272 59.65871487 -456.08353929 55.88182424 -454.40911865 52.10510254 C-453.88942757 50.93372238 -453.88942757 50.93372238 -453.35923767 49.73867798 C-449.68471082 41.44172371 -446.10488566 33.10502692 -442.5380249 24.76135254 C-441.9150438 23.30714142 -441.29199725 21.85295833 -440.66888428 20.39880371 C-437.95136147 14.05106897 -435.24590356 7.6987667 -432.57969666 1.32928467 C-431.47605085 -1.30533482 -430.36614351 -3.93729337 -429.25564575 -6.56903076 C-428.49446938 -8.38104918 -427.74328828 -10.19725609 -426.99237061 -12.0135498 C-426.53821777 -13.08943359 -426.08406494 -14.16531738 -425.6161499 -15.27380371 C-425.22459717 -16.21361084 -424.83304443 -17.15341797 -424.42962646 -18.1217041 C-423.2255249 -20.36364746 -423.2255249 -20.36364746 -420.2255249 -22.36364746 C-409.0291678 -24.6282597 -397.55272414 -24.73631601 -386.17279053 -24.73425293 C-383.49180226 -24.73862094 -380.81247397 -24.77508916 -378.1317749 -24.81286621 C-365.73411577 -24.89371681 -354.25763072 -23.30634793 -342.2255249 -20.36364746 C-340.6023938 -19.97185303 -340.6023938 -19.97185303 -338.94647217 -19.57214355 C-332.322108 -17.85465005 -325.86837602 -15.62450776 -319.4130249 -13.36364746 C-318.30354492 -12.97918457 -317.19406494 -12.59472168 -316.05096436 -12.1986084 C-309.87118798 -10.04262276 -303.72284197 -7.81726015 -297.6005249 -5.50427246 C-283.33886242 -0.12705416 -269.24620351 4.8168589 -254.2255249 7.63635254 C-252.83369995 7.91019775 -252.83369995 7.91019775 -251.41375732 8.1895752 C-244.15758797 9.52672021 -237.15861506 9.9536795 -229.7880249 9.88635254 C-228.69054932 9.87813477 -227.59307373 9.86991699 -226.46234131 9.8614502 C-206.58483206 9.58689081 -192.5397674 3.97679428 -176.00067139 -6.53259277 C-126.06706081 -38.11166316 -48.98217971 -29.8916441 0 0 Z " fill="#28A7DF" transform="translate(1068.2255249023438,482.3636474609375)"/>
<path d="M0 0 C2.15811062 0.34297706 4.31408394 0.63590748 6.48193359 0.90820312 C24.03814611 3.52017948 42.35011299 10.2510936 58.03271484 18.45507812 C58.72598877 18.81738525 59.4192627 19.17969238 60.13354492 19.55297852 C61.465221 20.2915161 62.77465093 21.07197669 64.05541992 21.89564514 C66.52172089 23.47629797 66.52172089 23.47629797 69.47477722 24.88803101 C77.56402229 29.60620617 77.56402229 29.60620617 79.14145088 34.45650291 C80.18902967 40.72519862 79.84542282 47.07038128 79.64208984 53.39648438 C79.61968369 55.44623327 79.60261377 57.49604681 79.59063721 59.54588318 C79.5450074 64.91850975 79.4273145 70.28718843 79.29418945 75.65826416 C79.17101106 81.14793489 79.11653796 86.63824933 79.05615234 92.12890625 C78.92779192 102.88518999 78.72323156 113.63855471 78.47021484 124.39257812 C75.05789916 122.37069323 71.77185139 120.238517 68.51098633 117.97949219 C60.19311271 112.25965287 51.61620036 107.63724134 42.47021484 103.39257812 C41.37708984 102.87050781 40.28396484 102.3484375 39.15771484 101.81054688 C5.82839976 86.62808243 -36.37633683 79.56666637 -71.52978516 92.59472656 C-81.29360444 96.4897658 -90.4034679 101.8392449 -99.52099609 107.02514648 C-120.4013623 118.85411435 -138.91268147 124.82553927 -163.02978516 124.76757812 C-163.87671936 124.7670343 -164.72365356 124.76649048 -165.59625244 124.76593018 C-189.69154587 124.69463726 -209.47118588 118.69842502 -230.9045105 107.92703247 C-242.85542374 101.93266052 -254.80233321 96.55939997 -267.52978516 92.39257812 C-266.90373366 86.31698917 -264.57932816 80.97685151 -262.33837891 75.35351562 C-261.91484634 74.27744049 -261.49131378 73.20136536 -261.0549469 72.09268188 C-259.69788355 68.64878438 -258.33266995 65.20818374 -256.96728516 61.76757812 C-256.07548128 59.50736965 -255.18420021 57.24695483 -254.29345703 54.98632812 C-249.08118305 41.77153447 -243.81863454 28.57689074 -238.52978516 15.39257812 C-233.54416131 17.04278955 -228.57080939 18.71594144 -223.62353516 20.47851562 C-192.96184718 31.21464872 -158.51085948 39.80408141 -127.52978516 25.39257812 C-121.47664508 22.20964109 -115.63273827 18.7148942 -109.83837891 15.08789062 C-97.43678106 7.37011633 -85.03950796 1.93135929 -70.52978516 -0.60742188 C-69.38638672 -0.81238281 -68.24298828 -1.01734375 -67.06494141 -1.22851562 C-45.09752598 -4.46229759 -21.84730642 -3.52720314 0 0 Z " fill="#28A8DF" transform="translate(1003.52978515625,884.607421875)"/>
<path d="M0 0 C1.71703125 0.2165625 1.71703125 0.2165625 3.46875 0.4375 C23.86943431 3.21040855 42.93929402 10.10188764 61.1875 19.5 C62.02369873 19.92611572 62.85989746 20.35223145 63.72143555 20.79125977 C65.30696524 21.63536723 66.87212424 22.5193928 68.40933228 23.44859314 C70.96769944 25.02759736 70.96769944 25.02759736 73.62504578 26.29882812 C77.32871825 28.53040329 80.35280664 30.65666384 81.55390739 35.00556946 C82.44053998 41.27251023 82.14507354 47.59813289 81.9765625 53.90625 C81.95789455 55.95744369 81.94366782 58.00868218 81.9336853 60.05993652 C81.89563311 65.440233 81.7975223 70.81779876 81.68664551 76.19702148 C81.58406189 81.69347189 81.53861582 87.19036677 81.48828125 92.6875 C81.38126408 103.45952847 81.21075638 114.22953655 81 125 C80.46310547 124.59325043 79.92621094 124.18650085 79.37304688 123.76742554 C78.66212891 123.23106476 77.95121094 122.69470398 77.21875 122.14208984 C76.51685547 121.61159027 75.81496094 121.0810907 75.09179688 120.53451538 C72.16189049 118.3851736 69.12392801 116.47688374 66 114.625 C65.03852051 114.05483154 65.03852051 114.05483154 64.05761719 113.47314453 C50.89521273 105.77323381 37.41359614 99.94819644 23 95 C21.86949219 94.5978125 20.73898437 94.195625 19.57421875 93.78125 C-10.37722173 83.73400694 -48.05840025 82.42622047 -77 96 C-83.80890976 99.43958317 -90.38618785 103.29254158 -96.96289062 107.15185547 C-104.76900457 111.73130608 -112.52210624 115.78385532 -121 119 C-121.89223267 119.36774536 -121.89223267 119.36774536 -122.80249023 119.74291992 C-143.72115654 128.12648372 -171.4766065 127.53741211 -193 122 C-191.10196353 116.12473424 -189.02959462 110.36055202 -186.72192383 104.63452148 C-186.40937149 103.8529216 -186.09681915 103.07132172 -185.77479553 102.26603699 C-184.75466008 99.71673235 -183.73088278 97.16890793 -182.70703125 94.62109375 C-181.99364432 92.84042794 -181.28048773 91.05966983 -180.56755066 89.27882385 C-178.70066784 84.61731334 -176.83068039 79.95705452 -174.96002197 75.29705811 C-173.04762652 70.53147972 -171.13819983 65.76471222 -169.22851562 60.99804688 C-165.48856555 51.6642049 -161.74533131 42.33168386 -158 33 C-156.66113739 32.90313904 -156.66113739 32.90313904 -155.29522705 32.80432129 C-154.12433533 32.71743042 -152.9534436 32.63053955 -151.74707031 32.54101562 C-150.0060202 32.41321716 -150.0060202 32.41321716 -148.22979736 32.28283691 C-132.54050289 30.90890811 -119.42365647 23.09437429 -106.375 14.875 C-74.82475709 -4.82428102 -35.92495445 -5.17319344 0 0 Z " fill="#28A8DF" transform="translate(1001,672)"/>
<path d="M0 0 C-1.17600108 5.62207508 -2.55937322 11.08612024 -4.3125 16.5625 C-4.75661223 17.95960306 -5.20061966 19.35673943 -5.64453125 20.75390625 C-5.98218506 21.80989014 -5.98218506 21.80989014 -6.32666016 22.88720703 C-7.39947046 26.25345083 -8.44892027 29.62692171 -9.5 33 C-9.91785752 34.33727434 -10.33582639 35.6745139 -10.75390625 37.01171875 C-11.57499692 39.6390807 -12.39525628 42.26670002 -13.21484375 44.89453125 C-15.50813441 52.24536324 -17.81120645 59.59309467 -20.125 66.9375 C-20.36661865 67.70618408 -20.6082373 68.47486816 -20.85717773 69.2668457 C-22.51748125 74.52968385 -24.24027902 79.76958922 -26 85 C-26.51272461 84.75354736 -27.02544922 84.50709473 -27.55371094 84.25317383 C-33.35440688 81.47037243 -39.17151253 78.72407904 -45 76 C-46.07765625 75.49339844 -47.1553125 74.98679687 -48.265625 74.46484375 C-86.90985376 57.29576497 -132.64688888 64.33697993 -171 79 C-187.15804438 85.40781874 -202.89586356 92.68848348 -217.7421875 101.75 C-220 103 -220 103 -222 103 C-222 72.97 -222 42.94 -222 12 C-199.88797797 0.36209367 -199.88797797 0.36209367 -190.6875 -3.1875 C-189.63973389 -3.59766357 -188.59196777 -4.00782715 -187.51245117 -4.43041992 C-163.28402614 -13.77517389 -138.76760647 -19.86045486 -113 -23 C-112.25556641 -23.09643799 -111.51113281 -23.19287598 -110.74414062 -23.29223633 C-71.56622347 -28.10378499 -34.65033927 -17.35817894 0 0 Z " fill="#28A8DF" transform="translate(498,481)"/>
<path d="M0 0 C0.70189453 -0.0007251 1.40378906 -0.0014502 2.12695312 -0.00219727 C12.2847956 -0.00103769 22.23340906 0.34233851 32.25 2.1875 C30.99811392 8.27295769 29.42022483 14.15604927 27.5 20.0625 C26.96343728 21.73694572 26.42698198 23.41142587 25.890625 25.0859375 C25.61798828 25.9325293 25.34535156 26.77912109 25.06445312 27.65136719 C23.77758341 31.65856221 22.51439558 35.67316899 21.25 39.6875 C19.75499128 44.42737935 18.25762993 49.16646197 16.75 53.90234375 C13.12846784 65.2952274 9.65519941 76.72815873 6.25 88.1875 C5.50621094 88.16429687 4.76242187 88.14109375 3.99609375 88.1171875 C-37.21083277 87.43608128 -76.53940115 98.84301864 -112.75 118.1875 C-114.1613607 118.93377842 -115.57282171 119.67986717 -116.984375 120.42578125 C-119.60629096 121.81557325 -122.22356936 123.21344109 -124.8359375 124.62109375 C-126.46363892 125.49603781 -128.09713847 126.36106924 -129.75 127.1875 C-129.75 96.8275 -129.75 66.4675 -129.75 35.1875 C-88.67730041 14.6511502 -46.32142115 -0.04897707 0 0 Z " fill="#28A8DF" transform="translate(405.75,669.8125)"/>
<path d="M0 0 C0.72364746 0.16628906 1.44729492 0.33257813 2.19287109 0.50390625 C16.90430693 4.04015168 31.00566221 10.29965168 44 18 C40.51316695 20.32455537 36.86581494 21.77047712 32.99609375 23.31640625 C32.18316864 23.6443367 31.37024353 23.97226715 30.53268433 24.31013489 C27.83552964 25.39736434 25.13650665 26.47987711 22.4375 27.5625 C20.53330353 28.32923298 18.62925307 29.09632864 16.7253418 29.86376953 C12.76960703 31.45794845 8.81324666 33.05056016 4.85644531 34.64208984 C-3.14377357 37.86135319 -11.13616696 41.09989423 -19.12863159 44.33834839 C-23.47465174 46.0990129 -27.82129458 47.85813837 -32.16796875 49.6171875 C-33.04564407 49.97237961 -33.9233194 50.32757172 -34.82759094 50.69352722 C-44.39112334 54.56348592 -53.95613775 58.42977742 -63.52120972 62.29592896 C-66.49148547 63.4965583 -69.46169655 64.69734748 -72.43188477 65.89819336 C-74.39990148 66.6938498 -76.36791905 67.4895041 -78.3359375 68.28515625 C-79.3060527 68.67736862 -80.27616791 69.06958099 -81.27568054 69.47367859 C-87.01861805 71.79532985 -92.76211057 74.11560133 -98.50605774 76.43475342 C-102.15942976 77.91006775 -105.81240297 79.3863678 -109.46530151 80.862854 C-111.22580801 81.57418323 -112.98648675 82.28508633 -114.74734497 82.99554443 C-123.50717421 86.53017064 -132.25463878 90.08763354 -140.95703125 93.76171875 C-141.64722351 94.0520549 -142.33741577 94.34239105 -143.04852295 94.64152527 C-146.2260094 95.97834557 -149.39878179 97.32366349 -152.56494141 98.68725586 C-154.18601807 99.3718689 -154.18601807 99.3718689 -155.83984375 100.0703125 C-156.77175537 100.47008301 -157.70366699 100.86985352 -158.66381836 101.28173828 C-161 102 -161 102 -164 101 C-159.29119486 89.97675617 -154.57063073 78.95865188 -149.83628845 67.9463501 C-147.33141642 62.11548359 -144.84260138 56.27813783 -142.3684845 50.43415833 C-140.84775514 46.84847293 -139.31584563 43.26763595 -137.78146362 39.68777466 C-137.05495924 37.98582864 -136.33333702 36.2817899 -135.61672974 34.57565308 C-134.61524836 32.1932238 -133.59682049 29.81873738 -132.57421875 27.4453125 C-132.14080673 26.39654182 -132.14080673 26.39654182 -131.69863892 25.32658386 C-129.0449818 19.25461568 -125.42250195 16.37306805 -119.4453125 13.81640625 C-118.59171143 13.44870117 -117.73811035 13.08099609 -116.85864258 12.70214844 C-115.95654053 12.32606445 -115.05443848 11.94998047 -114.125 11.5625 C-113.18100342 11.16708008 -112.23700684 10.77166016 -111.2644043 10.36425781 C-108.51604607 9.22610317 -105.76080962 8.10756755 -103 7 C-102.33145996 6.72978027 -101.66291992 6.45956055 -100.97412109 6.18115234 C-96.72395413 4.50330101 -92.41051422 3.1758086 -88 2 C-86.75790771 1.6594458 -86.75790771 1.6594458 -85.49072266 1.31201172 C-58.89896581 -5.66496333 -26.8362945 -6.26077502 0 0 Z " fill="#F3DC0B" transform="translate(728,549)"/>
<path d="M0 0 C1.04967696 3.14903088 0.97461507 4.11263485 0.33496094 7.24926758 C0.16438171 8.10478714 -0.00619751 8.9603067 -0.1819458 9.8417511 C-0.470867 11.22912727 -0.470867 11.22912727 -0.765625 12.64453125 C-0.95968933 13.605905 -1.15375366 14.56727875 -1.35369873 15.55778503 C-1.97861761 18.64419966 -2.6142464 21.72830095 -3.25 24.8125 C-3.663447 26.84816797 -4.07621495 28.88397397 -4.48828125 30.91992188 C-6.59384239 41.29394708 -8.74817286 51.6566523 -11 62 C-14.88987114 62.86504875 -17.5780439 62.91154614 -21.5 62.125 C-45.6956429 57.29946448 -73.05990005 58.53551255 -97 64 C-97.73573242 64.16064941 -98.47146484 64.32129883 -99.22949219 64.48681641 C-113.89209389 67.80918945 -127.4146859 74.75322667 -141 81 C-163.49787525 91.27340506 -183.52170229 98.25872084 -208.5625 98.0625 C-209.66658203 98.05798828 -210.77066406 98.05347656 -211.90820312 98.04882812 C-214.605527 98.0371514 -217.30273347 98.02077525 -220 98 C-216.41758165 94.9649682 -212.35253717 93.24043919 -208.08203125 91.40234375 C-207.28984695 91.05632111 -206.49766266 90.71029846 -205.68147278 90.35379028 C-203.06054465 89.21022603 -200.43651434 88.07396253 -197.8125 86.9375 C-195.96053049 86.13068738 -194.10880916 85.32330486 -192.25732422 84.51538086 C-188.40999295 82.83710352 -184.56160432 81.16128686 -180.71240234 79.48730469 C-172.84698938 76.06493296 -164.99281484 72.61703512 -157.13949585 69.16702271 C-154.60144473 68.05215306 -152.06307578 66.93800959 -149.5246582 65.82397461 C-137.17436867 60.40237436 -124.83543583 54.95529821 -112.5 49.5 C-93.42595264 41.06457721 -74.33335635 32.6719746 -55.23339844 24.29541016 C-46.89371345 20.63780232 -38.55510007 16.97775289 -30.21661377 13.31741333 C-27.57207098 12.15663438 -24.92740073 10.99614623 -22.28271484 9.83569336 C-20.65722152 9.12224455 -19.03173299 8.40878484 -17.40625 7.6953125 C-16.3261113 7.22148384 -16.3261113 7.22148384 -15.22415161 6.73808289 C-10.14266771 4.50721014 -5.06968925 2.25754109 0 0 Z " fill="#2AA7DD" transform="translate(742,699)"/>
</svg>
