<?xml version="1.0" encoding="UTF-8"?>
<svg version="1.1" xmlns="http://www.w3.org/2000/svg" width="185" height="171">
<path d="M0 0 C1.13824219 -0.03996094 2.27648437 -0.07992188 3.44921875 -0.12109375 C6.3125 0.4375 6.3125 0.4375 8.68359375 2.453125 C10.74554629 6.23089896 10.83154059 9.4364513 10.6875 13.625 C10.68556641 14.71071289 10.68556641 14.71071289 10.68359375 15.81835938 C10.59422304 21.15577696 10.59422304 21.15577696 8.3125 23.4375 C6.28602409 23.68359566 6.28602409 23.68359566 3.74411011 23.67800903 C2.78214722 23.68075836 1.82018433 23.68350769 0.82907104 23.68634033 C-0.2297226 23.67914978 -1.28851624 23.67195923 -2.37939453 23.66455078 C-3.49159363 23.66484283 -4.60379272 23.66513489 -5.74969482 23.66543579 C-9.43997904 23.66403818 -13.13006339 23.64845662 -16.8203125 23.6328125 C-19.3733611 23.6290839 -21.92641113 23.62623621 -24.47946167 23.62423706 C-30.52139939 23.61737103 -36.56325082 23.60159495 -42.60515392 23.58153808 C-49.4829311 23.55920092 -56.36071168 23.54819116 -63.23851609 23.53814721 C-77.3882174 23.51722928 -91.53785475 23.48203969 -105.6875 23.4375 C-105.49921228 25.88230079 -105.49921228 25.88230079 -104.6875 28.4375 C-101.72527297 30.65937698 -98.96936145 30.68776422 -95.34951782 30.6890564 C-94.26726425 30.69443924 -93.18501068 30.69982208 -92.06996155 30.70536804 C-90.2963047 30.69918205 -90.2963047 30.69918205 -88.48681641 30.69287109 C-86.61308098 30.69830177 -86.61308098 30.69830177 -84.70149231 30.70384216 C-81.98680576 30.71074013 -79.27236727 30.71412449 -76.5576973 30.71189499 C-72.26262955 30.70905935 -67.96772597 30.72342336 -63.67269897 30.74087524 C-51.46020979 30.78787766 -39.24773188 30.81184071 -27.03515625 30.81835938 C-20.28821592 30.82211266 -13.54146149 30.8401631 -6.79460084 30.87345374 C-2.52769761 30.89364712 1.7387255 30.89604845 6.00565696 30.88517356 C9.28818787 30.88194868 12.57055904 30.90466929 15.85302734 30.92333984 C17.6206115 30.91108116 17.6206115 30.91108116 19.42390442 30.89857483 C25.53434891 30.96048561 29.61447307 31.10241724 34.3125 35.4375 C35.08557495 36.14592545 35.8586499 36.85435089 36.65515137 37.58424377 C39.06649178 41.73555625 38.87220677 45.36694711 38.83007812 50.08959961 C38.8370874 51.05604904 38.84409668 52.02249847 38.85131836 53.01823425 C38.86890566 56.20906411 38.85727169 59.39900505 38.84375 62.58984375 C38.84644491 64.81035024 38.85032733 67.03085558 38.85534668 69.25135803 C38.86124293 73.90425862 38.85267522 78.55685194 38.83398438 83.2097168 C38.81120839 89.16960363 38.82430903 95.12876941 38.84827423 101.08862972 C38.86273991 105.67405106 38.85812237 110.25930195 38.84776306 114.84472847 C38.84509723 117.04193774 38.84836045 119.23916256 38.85768127 121.43635368 C38.8678577 124.50998692 38.85232901 127.58245894 38.83007812 130.65600586 C38.83817505 131.56165283 38.84627197 132.4672998 38.85461426 133.40039062 C38.78088371 138.90723987 37.97733539 142.06404975 34.3125 146.4375 C30.25799307 150.00055154 26.90097248 150.56282235 21.60124207 150.58467102 C19.8158477 150.59540398 19.8158477 150.59540398 17.99438477 150.60635376 C16.03299561 150.61038712 16.03299561 150.61038712 14.03198242 150.61450195 C12.64227631 150.6207678 11.25257187 150.62741471 9.86286926 150.63441467 C5.29791426 150.65544133 0.73295898 150.66581507 -3.83203125 150.67578125 C-5.4041362 150.67982919 -6.97624097 150.68394612 -8.54834557 150.68813133 C-15.93374681 150.70717916 -23.31913807 150.7214116 -30.70455915 150.7297433 C-39.22777256 150.7395176 -47.75072641 150.76584366 -56.27384835 150.80624419 C-62.86333461 150.83640664 -69.45274645 150.85121225 -76.0423004 150.85452431 C-79.97731558 150.85687448 -83.91205332 150.86583041 -87.8469944 150.89098549 C-91.54970786 150.91427403 -95.25196135 150.91849661 -98.95472908 150.90822411 C-100.95745914 150.90749309 -102.96016588 150.92657838 -104.96279907 150.94628906 C-115.82170092 150.8833869 -115.82170092 150.8833869 -120.6875 146.4375 C-121.265 145.963125 -121.8425 145.48875 -122.4375 145 C-125.21760297 141.52487129 -125.93754688 137.84388939 -125.95492554 133.48625183 C-125.96345551 132.51489792 -125.97198547 131.54354401 -125.98077393 130.54275513 C-125.97986755 129.4886142 -125.97896118 128.43447327 -125.97802734 127.34838867 C-125.98474457 126.2290947 -125.99146179 125.10980072 -125.99838257 123.95658875 C-126.01738116 120.25617026 -126.0212878 116.55593298 -126.0234375 112.85546875 C-126.02986431 110.28103053 -126.03659259 107.70659305 -126.04360962 105.13215637 C-126.0555872 99.73448686 -126.05937566 94.33688915 -126.05810547 88.93920898 C-126.05690492 82.71399882 -126.07799266 76.48913583 -126.1095928 70.26401347 C-126.13897215 64.26095303 -126.14607952 58.25808001 -126.14488602 52.25493813 C-126.14724374 49.7076914 -126.15607682 47.16044201 -126.17155075 44.6132412 C-126.19118695 41.04680107 -126.18538086 37.48124993 -126.17333984 33.91479492 C-126.18457886 32.86672668 -126.19581787 31.81865845 -126.20739746 30.73883057 C-126.1539904 24.50100803 -125.37480257 19.59979324 -121.6875 14.4375 C-117.45175194 10.76181114 -113.96221664 9.83372094 -108.4453125 9.27734375 C-107.75317657 9.20402328 -107.06104065 9.13070282 -106.34793091 9.05516052 C-104.12922682 8.82787433 -101.90959616 8.62860583 -99.6875 8.4375 C-98.60341858 8.34193817 -98.60341858 8.34193817 -97.49743652 8.2444458 C-92.98568345 7.85379002 -88.47133909 7.50708394 -83.9548645 7.17599487 C-71.20217487 6.23784018 -58.47036636 5.18204072 -45.75 3.875 C-43.93109253 3.6888916 -43.93109253 3.6888916 -42.07543945 3.49902344 C-39.73126873 3.25892401 -37.38711134 3.01869426 -35.04296875 2.77832031 C-10.93846205 0.32998712 -10.93846205 0.32998712 0 0 Z " fill="#EE4D2D" transform="translate(136.6875,10.5625)"/>
<path d="M0 0 C0.99 0.66 1.98 1.32 3 2 C2.125 6.75 2.125 6.75 1 9 C-2.61055738 8.38639901 -5.69385124 7.35507618 -9.0625 5.9375 C-15.08361608 3.71619636 -20.63197865 3.06900273 -27 4 C-30.91343752 5.92239036 -33.98270327 8.07747858 -36 12 C-36.53261556 16.1087486 -36.26889853 18.42859062 -34.5 22.1875 C-30.23831732 26.98189302 -25.26913074 28.70230983 -19.1875 30.375 C-9.84734032 33.04361705 0.7497279 38.43522329 6.18359375 46.828125 C8.32326599 52.52026743 8.03634961 59.31621187 5.8671875 64.93359375 C1.77730491 72.13906753 -3.00380515 75.78452343 -11 78 C-13.90038122 78.32534279 -16.77050861 78.38114621 -19.6875 78.375 C-20.48188477 78.37338867 -21.27626953 78.37177734 -22.09472656 78.37011719 C-31.99389078 78.16480715 -40.90611726 75.09388274 -48 68 C-47.61121812 64.98694043 -46.73543126 63.60314689 -45 61 C-42.86261674 62.05884194 -40.74076556 63.13731726 -38.6328125 64.25390625 C-32.13843627 67.65677524 -32.13843627 67.65677524 -25 69 C-23.63875 69.0928125 -23.63875 69.0928125 -22.25 69.1875 C-15.63592685 69.45206293 -10.38188103 69.11396921 -5 65 C-1.959191 61.57908988 -1.43840792 58.36661315 -1.671875 53.9140625 C-2.25162329 50.53219749 -3.42091023 49.27919561 -6 47 C-11.72306731 43.23826507 -17.65066699 40.68613842 -24.125 38.5 C-31.80431254 35.85892208 -39.62505755 32.33519714 -44.1875 25.25390625 C-46.47535422 18.90731065 -46.14487908 11.50992721 -43.375 5.4375 C-30.2013375 -8.08283783 -16.46119166 -6.73134232 0 0 Z " fill="#FEF6F4" transform="translate(114,65)"/>
</svg>
