<?xml version="1.0" standalone="no"?>
<!DOCTYPE svg PUBLIC "-//W3C//DTD SVG 20010904//EN"
 "http://www.w3.org/TR/2001/REC-SVG-20010904/DTD/svg10.dtd">
<svg version="1.0" xmlns="http://www.w3.org/2000/svg"
 width="283.000000pt" height="341.000000pt" viewBox="0 0 283.000000 341.000000"
 preserveAspectRatio="xMidYMid meet">

<g transform="translate(0.000000,341.000000) scale(0.100000,-0.100000)"
fill="#000000" stroke="none">
<path d="M1267 3203 c-3 -5 0 -31 6 -60 8 -38 7 -65 -2 -107 -22 -98 6 -61
-510 -690 -295 -359 -346 -428 -386 -510 -50 -106 -74 -236 -59 -328 6 -35 9
-37 53 -42 179 -23 320 -23 398 0 29 9 59 14 66 11 6 -2 26 2 44 9 17 8 61 16
96 19 36 4 77 10 93 14 17 4 42 2 64 -5 19 -7 51 -13 71 -14 29 0 38 -5 50
-27 13 -26 14 -23 20 62 4 50 7 168 8 262 l1 173 -187 2 -188 3 -3 80 c-2 71
0 85 20 115 48 70 63 75 235 78 125 3 166 0 207 -13 64 -21 130 -74 159 -128
22 -41 22 -49 27 -557 5 -457 8 -520 23 -560 10 -25 19 -49 20 -54 4 -14 -65
-34 -122 -35 -62 -1 -130 26 -160 65 l-18 23 -6 -57 c-3 -31 -6 -97 -7 -146 0
-49 -3 -92 -5 -95 -2 -4 -9 -45 -15 -91 -6 -47 -18 -100 -26 -119 -16 -33 -15
-34 18 -68 38 -41 240 -211 280 -237 35 -23 43 -8 27 54 -14 56 -3 123 32 194
15 29 238 310 381 481 9 11 113 138 231 282 290 356 322 422 322 663 0 182
-33 289 -130 425 -62 86 -63 87 -505 446 -58 47 -217 176 -353 287 -136 111
-252 202 -257 202 -5 0 -11 -3 -13 -7z m661 -1078 c4 -157 6 -155 -163 -155
-142 0 -169 12 -181 78 -10 56 -38 104 -84 146 -22 20 -38 41 -35 47 4 6 92 8
233 7 l227 -3 3 -120z"/>
</g>
</svg>
