<?xml version="1.0" standalone="no"?>
<!DOCTYPE svg PUBLIC "-//W3C//DTD SVG 20010904//EN"
 "http://www.w3.org/TR/2001/REC-SVG-20010904/DTD/svg10.dtd">
<svg version="1.0" xmlns="http://www.w3.org/2000/svg"
 width="640.000000pt" height="480.000000pt" viewBox="0 0 640.000000 480.000000"
 preserveAspectRatio="xMidYMid meet">

<g transform="translate(0.000000,480.000000) scale(0.100000,-0.100000)"
fill="#000000" stroke="none">
<path d="M2975 4644 c-9 -10 -13 -23 -9 -33 13 -31 19 -212 9 -259 -22 -98
-67 -160 -425 -597 -129 -158 -269 -329 -310 -380 -41 -50 -149 -181 -240
-289 -274 -328 -353 -455 -407 -651 -25 -91 -27 -116 -28 -280 0 -221 21 -337
57 -308 7 6 49 29 93 51 442 221 936 95 1121 -285 50 -102 67 -195 61 -323 -8
-168 -65 -315 -182 -468 -31 -40 -53 -77 -50 -82 3 -5 121 -103 263 -218 141
-115 295 -241 342 -279 126 -102 138 -109 156 -91 13 13 14 22 4 59 -7 24 -12
84 -12 133 1 79 4 96 35 160 40 82 64 116 247 337 75 90 187 227 250 303 63
77 220 266 348 420 375 451 434 537 496 732 36 111 46 189 46 344 0 305 -92
528 -312 756 -102 105 -133 131 -503 425 -250 199 -381 307 -751 615 -132 111
-250 206 -261 213 -17 9 -25 8 -38 -5z m198 -1466 c74 -35 160 -121 195 -195
l27 -58 5 -730 c5 -656 8 -736 23 -790 10 -33 25 -70 33 -82 7 -12 14 -27 14
-32 0 -19 -113 -44 -195 -45 -122 0 -200 46 -244 144 -20 44 -21 62 -21 728
l0 682 -280 0 -280 0 0 122 c0 139 16 189 76 234 66 51 90 54 349 51 238 -2
241 -2 298 -29z m785 -148 c-4 -239 10 -224 -221 -228 -243 -5 -262 3 -294
124 -23 90 -57 147 -124 207 -33 31 -58 60 -54 66 4 8 118 11 351 11 l345 0
-3 -180z"/>
</g>
</svg>
