<?xml version="1.0" encoding="UTF-8"?>
<svg id="Layer_1" data-name="Layer 1" xmlns="http://www.w3.org/2000/svg" xmlns:xlink="http://www.w3.org/1999/xlink" viewBox="0 0 960 960">
  <defs>
    <style>
      .cls-1 {
        fill: #ff1721;
      }

      .cls-1, .cls-2, .cls-3, .cls-4, .cls-5, .cls-6, .cls-7, .cls-8, .cls-9, .cls-10, .cls-11, .cls-12, .cls-13, .cls-14, .cls-15, .cls-16, .cls-17, .cls-18, .cls-19, .cls-20, .cls-21, .cls-22, .cls-23, .cls-24, .cls-25, .cls-26, .cls-27, .cls-28, .cls-29, .cls-30, .cls-31, .cls-32, .cls-33, .cls-34, .cls-35, .cls-36, .cls-37, .cls-38, .cls-39, .cls-40, .cls-41, .cls-42, .cls-43, .cls-44, .cls-45, .cls-46, .cls-47, .cls-48, .cls-49, .cls-50, .cls-51, .cls-52, .cls-53, .cls-54, .cls-55, .cls-56, .cls-57, .cls-58, .cls-59, .cls-60, .cls-61, .cls-62, .cls-63, .cls-64, .cls-65, .cls-66, .cls-67, .cls-68, .cls-69, .cls-70, .cls-71, .cls-72, .cls-73, .cls-74, .cls-75, .cls-76, .cls-77, .cls-78, .cls-79, .cls-80, .cls-81, .cls-82, .cls-83, .cls-84, .cls-85, .cls-86, .cls-87, .cls-88, .cls-89, .cls-90, .cls-91, .cls-92, .cls-93, .cls-94, .cls-95, .cls-96, .cls-97, .cls-98, .cls-99, .cls-100, .cls-101, .cls-102, .cls-103, .cls-104, .cls-105, .cls-106, .cls-107, .cls-108, .cls-109, .cls-110, .cls-111, .cls-112, .cls-113, .cls-114, .cls-115, .cls-116, .cls-117, .cls-118, .cls-119, .cls-120, .cls-121, .cls-122, .cls-123, .cls-124, .cls-125, .cls-126 {
        stroke-width: 0px;
      }

      .cls-1, .cls-2, .cls-3, .cls-4, .cls-5, .cls-6, .cls-7, .cls-8, .cls-9, .cls-10, .cls-11, .cls-12, .cls-13, .cls-15, .cls-16, .cls-17, .cls-19, .cls-20, .cls-21, .cls-22, .cls-23, .cls-24, .cls-25, .cls-26, .cls-27, .cls-28, .cls-29, .cls-30, .cls-31, .cls-32, .cls-33, .cls-34, .cls-35, .cls-36, .cls-37, .cls-38, .cls-39, .cls-40, .cls-41, .cls-42, .cls-44, .cls-45, .cls-46, .cls-47, .cls-48, .cls-49, .cls-50, .cls-51, .cls-52, .cls-53, .cls-54, .cls-55, .cls-56, .cls-57, .cls-58, .cls-59, .cls-60, .cls-61, .cls-62, .cls-63, .cls-64, .cls-65, .cls-66, .cls-67, .cls-69, .cls-70, .cls-71, .cls-72, .cls-73, .cls-74, .cls-75, .cls-76, .cls-77, .cls-78, .cls-79, .cls-80, .cls-81, .cls-82, .cls-83, .cls-84, .cls-85, .cls-86, .cls-87, .cls-88, .cls-89, .cls-90, .cls-91, .cls-92, .cls-93, .cls-94, .cls-95, .cls-96, .cls-97, .cls-98, .cls-99, .cls-100, .cls-101, .cls-103, .cls-104, .cls-105, .cls-106, .cls-107, .cls-108, .cls-109, .cls-110, .cls-111, .cls-112, .cls-113, .cls-114, .cls-115, .cls-116, .cls-117, .cls-118, .cls-119, .cls-120, .cls-121, .cls-122, .cls-123, .cls-124, .cls-125, .cls-126 {
        fill-rule: evenodd;
      }

      .cls-2 {
        fill: #ff481a;
      }

      .cls-3 {
        fill: #ff6b15;
      }

      .cls-4 {
        fill: #ff5618;
      }

      .cls-5 {
        fill: #ff311e;
      }

      .cls-6 {
        fill: #ff2120;
      }

      .cls-7 {
        fill: #ff7e12;
      }

      .cls-8 {
        fill: #ff331d;
      }

      .cls-9 {
        fill: #ff1c21;
      }

      .cls-10 {
        fill: #ff2b1e;
      }

      .cls-11 {
        fill: #ff241f;
      }

      .cls-12 {
        fill: #ff1622;
      }

      .cls-13 {
        fill: #ff371d;
      }

      .cls-14, .cls-94 {
        fill: #ff0025;
      }

      .cls-15 {
        fill: #ff0a23;
      }

      .cls-16 {
        fill: #ffac0b;
      }

      .cls-17 {
        fill: #ff491a;
      }

      .cls-18 {
        fill: #e71618;
      }

      .cls-19 {
        fill: #ff0125;
      }

      .cls-20 {
        fill: #ff0424;
      }

      .cls-21 {
        fill: #ffa60c;
      }

      .cls-22 {
        fill: #ff0a24;
      }

      .cls-23 {
        fill: #ff8211;
      }

      .cls-24 {
        fill: #ff4b1a;
      }

      .cls-25 {
        fill: #ff0325;
      }

      .cls-26 {
        fill: #ff2c1e;
      }

      .cls-27 {
        fill: #ff6615;
      }

      .cls-28 {
        fill: #ff361d;
      }

      .cls-29 {
        fill: #ff1023;
      }

      .cls-30 {
        fill: #ff341d;
      }

      .cls-31 {
        fill: #ff1222;
      }

      .cls-32 {
        fill: #ff9f0d;
      }

      .cls-33 {
        fill: #ff271f;
      }

      .cls-34 {
        fill: #ff8011;
      }

      .cls-35 {
        fill: #ff391c;
      }

      .cls-36 {
        fill: #ff8e0f;
      }

      .cls-37 {
        fill: #ff5d17;
      }

      .cls-38 {
        fill: #ff0924;
      }

      .cls-39 {
        fill: #ff3c1c;
      }

      .cls-40 {
        fill: #ff421b;
      }

      .cls-41 {
        fill: #ff5917;
      }

      .cls-42 {
        fill: #ff5b17;
      }

      .cls-43 {
        fill: none;
      }

      .cls-44 {
        fill: #ff1b21;
      }

      .cls-45 {
        fill: #ff2f1e;
      }

      .cls-46 {
        fill: #ff5418;
      }

      .cls-47 {
        fill: #ff5818;
      }

      .cls-48 {
        fill: #ff1921;
      }

      .cls-49 {
        fill: #ff920f;
      }

      .cls-50 {
        fill: #ff5019;
      }

      .cls-51 {
        fill: #ff0724;
      }

      .cls-52 {
        fill: #ff2d1e;
      }

      .cls-53 {
        fill: #ff8710;
      }

      .cls-54 {
        fill: #ff6416;
      }

      .cls-55 {
        fill: #ff1422;
      }

      .cls-56 {
        fill: url(#radial-gradient);
      }

      .cls-57 {
        fill: #ff7513;
      }

      .cls-58 {
        fill: #ff1d21;
      }

      .cls-59 {
        fill: #ff0624;
      }

      .cls-60 {
        fill: #ff2020;
      }

      .cls-61 {
        fill: #ff441b;
      }

      .cls-62 {
        fill: #ff2220;
      }

      .cls-63 {
        fill: #ff5318;
      }

      .cls-64 {
        fill: #ff8411;
      }

      .cls-65 {
        fill: #ffa10c;
      }

      .cls-66 {
        fill: #ff1a21;
      }

      .cls-67 {
        fill: #ff0c23;
      }

      .cls-68 {
        fill: #1a1818;
      }

      .cls-69 {
        fill: #ff281f;
      }

      .cls-70 {
        fill: #ff0f23;
      }

      .cls-71 {
        fill: #ff2e1e;
      }

      .cls-72 {
        fill: #ffa90b;
      }

      .cls-73 {
        fill: #fff;
      }

      .cls-74 {
        fill: #ff0824;
      }

      .cls-75 {
        fill: #ffa40c;
      }

      .cls-76 {
        fill: #ff451a;
      }

      .cls-77 {
        fill: #ff7a12;
      }

      .cls-78 {
        fill: #ff321d;
      }

      .cls-79 {
        fill: #ff6915;
      }

      .cls-80 {
        fill: #ff1821;
      }

      .cls-81 {
        fill: #ff1f20;
      }

      .cls-127 {
        clip-path: url(#clippath);
      }

      .cls-82 {
        fill: #ff6815;
      }

      .cls-83 {
        fill: #ff900f;
      }

      .cls-84 {
        fill: #ff0e23;
      }

      .cls-85 {
        fill: #ff1e20;
      }

      .cls-86 {
        fill: #ff261f;
      }

      .cls-87 {
        fill: #ff3a1c;
      }

      .cls-88 {
        fill: #ff7114;
      }

      .cls-89 {
        fill: #ff2320;
      }

      .cls-90 {
        fill: #ff4e19;
      }

      .cls-91 {
        fill: #ff1322;
      }

      .cls-92 {
        fill: #ff7713;
      }

      .cls-93 {
        fill: #ff251f;
      }

      .cls-95 {
        fill: #ff291f;
      }

      .cls-96 {
        fill: #f12;
      }

      .cls-97 {
        fill: #ff3e1b;
      }

      .cls-98 {
        fill: #ff5e17;
      }

      .cls-99 {
        fill: #ff6f14;
      }

      .cls-100 {
        fill: #ff0d23;
      }

      .cls-101 {
        fill: #ff8910;
      }

      .cls-102 {
        fill: #5a5c5e;
      }

      .cls-103 {
        fill: #ff0b23;
      }

      .cls-104 {
        fill: #ff950e;
      }

      .cls-105 {
        fill: #ff411b;
      }

      .cls-106 {
        fill: #ff0225;
      }

      .cls-107 {
        fill: #ff6d14;
      }

      .cls-108 {
        fill: #ff6016;
      }

      .cls-109 {
        fill: #ff5119;
      }

      .cls-110 {
        fill: #ff1522;
      }

      .cls-111 {
        fill: #ff7313;
      }

      .cls-112 {
        fill: #ff3d1c;
      }

      .cls-113 {
        fill: #ff970e;
      }

      .cls-114 {
        fill: #ff8b10;
      }

      .cls-115 {
        fill: #ff9a0e;
      }

      .cls-116 {
        fill: #ff0324;
      }

      .cls-117 {
        fill: #ff301e;
      }

      .cls-118 {
        fill: #ff401b;
      }

      .cls-119 {
        fill: #ff6216;
      }

      .cls-120 {
        fill: #ff9c0d;
      }

      .cls-121 {
        fill: #ff7c12;
      }

      .cls-122 {
        fill: #ff381c;
      }

      .cls-123 {
        fill: #ff4c19;
      }

      .cls-124 {
        fill: #ff471a;
      }

      .cls-125 {
        fill: #ff2a1f;
      }

      .cls-126 {
        fill: #ff0524;
      }
    </style>
    <radialGradient id="radial-gradient" cx="126.75" cy="664.49" fx="126.75" fy="664.49" r="59.69" gradientTransform="translate(979.78 3736.44) rotate(-28.19) scale(5.89 -5.01)" gradientUnits="userSpaceOnUse">
      <stop offset="0" stop-color="#fc0"/>
      <stop offset=".6" stop-color="#ff0015"/>
      <stop offset="1" stop-color="#c6000f"/>
    </radialGradient>
    <clipPath id="clippath">
      <rect class="cls-43" x="434.91" y="49.89" width="516.12" height="516.12" rx="107.74" ry="107.74"/>
    </clipPath>
  </defs>
  <path id="path4" class="cls-14" d="M432.96,767.64c-16.53,0-28.56-12.03-28.56-31.58s12.02-31.58,28.56-31.58,28.56,12.03,28.56,31.58-12.02,31.58-28.56,31.58ZM432.96,678.91c-33.07,0-58.62,24.06-58.62,57.15s24.05,57.15,58.62,57.15,58.62-24.06,58.62-57.15c-1.5-33.08-25.55-57.15-58.62-57.15ZM326.24,737.56c-1.5,0-1.5-1.5,0-1.5,6.01-1.5,10.52-6.02,15.03-10.53l36.07-45.12h-34.57l-39.08,49.63v-96.25h-30.06v157.9h30.06v-51.13l34.57,40.6c6.01,7.52,12.02,10.53,22.54,10.53h21.04l-40.58-46.62c-3.01-4.51-9.02-7.52-15.03-7.52h0ZM635.86,678.91c-18.04,0-30.06,9.02-36.07,19.55-6.01-12.03-16.53-19.55-34.57-19.55-13.53,0-24.05,6.02-28.56,15.04,0,1.5-1.5,1.5-1.5,0-1.5-7.52-9.02-13.53-16.53-13.53h-12.02v111.29h30.06v-55.64c0-19.55,7.51-31.58,22.54-31.58,12.02,0,18.04,7.52,18.04,21.05v67.67h30.06v-58.65c0-19.55,7.51-31.58,21.04-31.58,12.02,0,18.04,7.52,18.04,21.05v67.67h30.06v-75.19c0-22.56-16.53-37.6-40.58-37.6ZM252.6,650.34c0-9.02-7.51-16.54-16.53-16.54h-12.02v138.35c0,16.54,10.52,22.56,21.04,22.56,4.51,0,9.02-1.5,13.53-3.01-4.51-6.02-6.01-16.54-6.01-24.06v-117.3ZM81.26,668.38c0-16.54-13.53-30.08-30.06-30.08h-28.56c-9.02,0-16.53,7.52-16.53,18.05v13.53h45.09v102.26c0,16.54,10.52,22.56,21.04,22.56,4.51,0,10.52-1.5,13.53-3.01-4.51-6.02-6.01-16.54-6.01-24.06l1.5-99.25ZM124.85,662.37v-24.06h-54.11c-1.5,0-1.5,1.5,0,1.5,7.51,4.51,13.53,13.53,15.03,22.56,0,4.51,3.01,6.02,7.51,6.02h24.05c5.88-.06,7.51-1.51,7.51-6.02ZM741.07,724.03c-15.03-4.51-19.54-7.52-19.54-12.03,0-6.02,6.01-10.53,16.53-10.53,12.02,0,25.55,4.51,33.07,10.53v-24.06c-9.02-6.02-21.04-9.02-34.57-9.02-27.05,0-43.59,15.04-43.59,34.59s16.53,28.57,34.57,33.08c15.03,4.51,22.54,7.52,22.54,13.53,0,7.52-6.01,12.03-18.04,12.03-16.53,0-28.56-6.02-37.57-15.04v25.57c10.52,7.52,24.05,10.53,39.08,10.53,28.56,0,45.09-13.53,45.09-34.59,0-22.56-19.54-30.08-37.57-34.59h0ZM129.36,724.03c3.01-13.53,12.02-24.06,25.55-24.06,12.02,0,21.04,7.52,22.54,24.06h-48.1ZM154.91,678.91c-30.06,0-55.61,22.56-55.61,58.65,0,33.08,22.54,57.15,60.12,57.15,13.53,0,27.05-4.51,39.08-10.53v-27.07c-10.52,7.52-22.54,12.03-36.07,12.03-18.04,0-31.56-7.52-34.57-25.57h78.15c0-3.01,1.5-7.52,1.5-10.53-1.5-34.59-24.05-54.14-52.6-54.14ZM817.72,724.03c3.01-13.53,12.02-24.06,25.55-24.06,12.02,0,21.04,7.52,22.54,24.06h-48.1ZM843.27,678.91c-30.06,0-55.61,22.56-55.61,58.65,0,33.08,22.54,57.15,60.12,57.15,13.53,0,27.05-4.51,39.08-10.53v-27.07c-10.52,7.52-22.54,12.03-36.07,12.03-18.04,0-31.56-7.52-34.57-25.57h78.15c0-3.01,1.5-7.52,1.5-10.53-1.5-34.59-24.05-54.14-52.6-54.14ZM940.96,766.13v-115.8c0-9.02-7.51-16.54-16.53-16.54h-12.02v138.35c0,16.54,10.52,22.56,21.04,22.56,4.51,0,9.02-1.5,13.53-3.01-6.01-7.52-6.01-16.54-6.01-25.57h0Z"/>
  <g>
    <path class="cls-18" d="M893.57,857.95c-2.59,0-5.15.48-7.56,1.43,3.25,10.19,9.67,19.05,18.29,25.29,1.79,1.27,3.68,2.39,5.66,3.35,2.3-3.17,3.54-6.99,3.54-10.92,0-10.57-8.92-19.15-19.92-19.15"/>
    <path class="cls-18" d="M939.26,868.42c7.31-5.65,25.77-17.87,22.91-22.82-2.31-4-12.4.83-23.8,7.08-8.96,4.92-7.03-1.02-1.33-9.7,5.02-7.64,12.56-17.96,8.35-20.75-4.89-3.25-19.89,14.73-23.4,18.29-3.5,3.55-6.71,5.46-4.95-4.43,2.36-13.14,2.82-20-.1-20.83-4.1-1.16-6.66,4-12.79,18.43-4.39,10.36-8.23,12.19-8.7,2.9-.61-16.7-4.83-12.87-6.44-10.3-4.45,7.05-5.95,15.61-4.95,24.18,3.61-1.38,7.44-2.09,11.31-2.08,17.09,0,30.95,13.48,30.95,30.08,0,4.82-1.18,9.57-3.46,13.81,9.76,1.8,20.04.94,27.79-2.95,1.29-.65,4.42-2.59,2.47-5.26-3.89-5.35-10.91-2.54-18.42-4.74-6.59-1.93-.72-6.83,4.56-10.91"/>
    <path class="cls-102" d="M909.94,888.22c-1.89,2.58-4.36,4.67-7.21,6.1-2.84,1.43-5.99,2.17-9.17,2.15-11,0-19.93-8.58-19.93-19.17.05-3.87,1.26-7.63,3.46-10.79,2.2-3.16,5.31-5.58,8.9-6.93-.93-2.92-1.58-5.91-1.94-8.96-11.51,4.39-19.66,15.26-19.66,28,0,16.62,13.86,30.09,30.97,30.09,5.61.04,11.13-1.45,15.97-4.32,4.84-2.87,8.82-7,11.52-11.96-4.47-.81-8.81-2.23-12.91-4.21"/>
    <path class="cls-68" d="M561.33,863.79c-.02-.57-.26-1.11-.67-1.51-.41-.39-.96-.61-1.52-.61h-19.89c-.57,0-1.11.22-1.52.61-.41.39-.65.93-.67,1.5.02.57.26,1.11.67,1.5s.96.6,1.52.59h7.63v22.73c.02.61.27,1.18.7,1.61.43.42,1.01.66,1.61.66s1.18-.24,1.61-.66c.43-.42.68-1,.7-1.61v-22.73h7.63c.56.01,1.11-.2,1.52-.59.41-.39.65-.93.67-1.5"/>
    <path class="cls-68" d="M567.97,868.41c-1.45,0-2.88.31-4.22.88-1.33.57-2.54,1.41-3.55,2.46-1.01,1.05-1.8,2.29-2.33,3.66-.53,1.36-.78,2.82-.74,4.28v.09c-.03,1.49.24,2.98.8,4.36.55,1.39,1.38,2.64,2.43,3.7,1.05,1.05,2.3,1.88,3.68,2.43,1.38.55,2.85.82,4.33.78,1.55.05,3.1-.21,4.55-.77,1.45-.56,2.78-1.41,3.9-2.49.22-.18.39-.4.51-.66.12-.25.19-.53.19-.81-.02-.54-.25-1.04-.64-1.41-.39-.37-.91-.56-1.44-.54-.49,0-.97.18-1.34.5-1.53,1.45-3.55,2.25-5.65,2.22-1.6.06-3.17-.48-4.4-1.51-1.23-1.03-2.04-2.49-2.27-4.09h14.52c.56.01,1.1-.2,1.51-.59.41-.39.64-.93.65-1.49,0-5.47-3.61-11-10.5-11ZM567.89,872.29c3.75,0,5.52,2.79,5.98,5.63h-12.08c.63-3.35,3.05-5.63,6.1-5.63Z"/>
    <path class="cls-68" d="M583.57,860.31c-.29,0-.58.05-.85.16-.27.11-.52.27-.72.47-.21.2-.37.45-.49.72-.11.27-.17.56-.18.85v26.15c0,.3.06.59.18.86.12.27.29.52.5.72.21.21.46.37.74.47.27.11.57.16.86.15.29,0,.58-.04.85-.15.27-.11.52-.27.73-.47.21-.21.37-.45.49-.72.11-.27.17-.56.17-.86v-26.15c-.01-.6-.26-1.16-.69-1.57-.43-.41-1-.63-1.59-.62Z"/>
    <path class="cls-68" d="M601.5,878.6l6.47-6.14c.25-.2.45-.45.59-.73.14-.29.22-.6.23-.92,0-.28-.06-.55-.16-.81-.11-.26-.26-.49-.46-.68-.2-.19-.43-.35-.69-.45-.26-.1-.53-.15-.81-.14-.33,0-.65.07-.95.21-.3.14-.56.34-.78.59l-10.27,10.09v-17.11c-.02-.59-.27-1.14-.69-1.55-.42-.41-.98-.63-1.56-.63s-1.14.23-1.56.63c-.42.41-.67.96-.69,1.55v26.15c0,.3.07.59.19.86.12.27.29.52.5.72.21.2.46.36.74.47.28.11.57.15.86.14.29,0,.58-.04.85-.15s.52-.27.73-.47c.21-.21.37-.45.48-.72.11-.27.17-.56.16-.85v-3.64l3.63-3.47,6.85,8.34c.21.31.5.56.83.73s.7.25,1.07.24c.41.02.83-.08,1.18-.29.36-.21.64-.53.81-.91.18-.38.23-.8.17-1.21-.06-.41-.25-.8-.53-1.1l-7.19-8.74Z"/>
    <path class="cls-68" d="M621.05,868.41c-6.59,0-11.73,4.97-11.73,11.32v.08c0,6.3,5.11,11.23,11.64,11.23s11.77-4.96,11.77-11.32v-.07c0-6.31-5.14-11.24-11.68-11.24h0ZM613.91,879.66c-.03-.95.13-1.89.48-2.78.34-.88.86-1.69,1.52-2.37.66-.68,1.45-1.21,2.32-1.58s1.8-.54,2.74-.53c.95,0,1.89.18,2.77.55.88.37,1.68.91,2.34,1.59.67.68,1.2,1.49,1.55,2.38.35.89.53,1.84.52,2.8v.08c.02.95-.15,1.89-.49,2.77-.35.88-.87,1.68-1.53,2.35-.66.67-1.45,1.2-2.32,1.56-.87.36-1.8.53-2.74.51-.95,0-1.88-.18-2.76-.54-.87-.36-1.67-.9-2.33-1.58-.67-.68-1.19-1.48-1.54-2.37-.35-.88-.53-1.83-.51-2.79v-.07Z"/>
    <path class="cls-68" d="M660.22,868.42c-1.42-.05-2.82.25-4.11.86-1.28.61-2.4,1.51-3.27,2.64-.75-1.12-1.78-2.03-2.98-2.65-1.2-.61-2.54-.9-3.88-.85-1.15-.03-2.29.18-3.35.63-1.06.45-2.01,1.12-2.8,1.96v-.16c-.02-.59-.27-1.15-.7-1.56-.42-.41-.98-.64-1.57-.64s-1.15.23-1.57.64c-.42.41-.67.97-.7,1.56v17.74c0,.3.07.59.19.86.12.27.29.52.5.72.21.2.46.37.74.47.27.11.57.16.86.15.29,0,.58-.04.85-.15.27-.11.52-.27.73-.47.21-.21.38-.45.49-.72.11-.27.17-.56.17-.86v-10.31c0-3.35,2.18-5.79,5.2-5.79s4.77,1.98,4.77,5.43v10.67c0,.29.06.58.17.86.11.27.28.52.49.72.21.21.46.37.73.47.27.11.56.16.85.15.29,0,.58-.04.86-.15.27-.11.52-.27.73-.47.21-.2.38-.45.5-.72.12-.27.18-.56.18-.86v-10.43c0-3.38,2.06-5.66,5.12-5.66s4.81,1.96,4.81,5.51v10.59c.02.59.27,1.15.69,1.56.42.41.98.64,1.57.64s1.15-.23,1.57-.64c.42-.41.67-.97.69-1.56v-11.31c0-5.47-3.27-8.86-8.54-8.86"/>
    <path class="cls-68" d="M681.07,862c-.55,0-1.07.22-1.46.6-.39.39-.62.91-.63,1.46v25.1c.02.55.26,1.07.65,1.45.39.38.92.59,1.46.59s1.07-.21,1.46-.59c.39-.38.63-.9.65-1.45v-25.1c-.01-.56-.24-1.09-.64-1.48-.4-.39-.94-.6-1.49-.59Z"/>
    <path class="cls-68" d="M699.47,869c-1.29-.04-2.58.2-3.76.73-1.18.52-2.24,1.31-3.08,2.3v-.77c-.02-.54-.25-1.05-.63-1.43-.39-.38-.9-.59-1.44-.59s-1.05.21-1.44.59c-.39.38-.61.89-.63,1.43v17.89c0,.27.06.54.17.79.11.25.27.47.46.66.2.19.43.33.68.43.25.1.52.14.79.13.27,0,.53-.04.78-.13.25-.1.48-.24.67-.43.19-.19.34-.41.45-.66.1-.25.16-.52.15-.78v-10.44c-.04-.8.09-1.59.38-2.34.28-.74.72-1.42,1.28-1.98.56-.56,1.23-1,1.96-1.29.74-.29,1.52-.42,2.31-.38,3.46,0,5.44,2.09,5.44,5.75v10.69c0,.27.06.54.17.79.11.25.26.47.46.66.2.19.43.33.68.43.25.1.52.14.79.13.27,0,.53-.04.78-.14.25-.1.47-.25.67-.43.19-.19.34-.41.45-.66.1-.25.16-.51.16-.78v-11.43c0-5.3-3.41-8.72-8.68-8.72"/>
    <path class="cls-68" d="M731.46,860.81c-.26,0-.53.04-.78.13-.25.1-.47.24-.67.43-.19.19-.34.41-.45.66-.1.25-.16.51-.16.78v9.73c-.95-1.12-2.14-2.01-3.47-2.61-1.33-.6-2.78-.9-4.24-.88-1.44,0-2.87.28-4.19.85-1.33.56-2.53,1.39-3.53,2.44-1,1.05-1.78,2.28-2.29,3.64-.51,1.36-.75,2.81-.69,4.26v.08c-.05,1.45.18,2.89.7,4.25.51,1.35,1.29,2.59,2.29,3.63,1,1.04,2.2,1.87,3.52,2.43,1.33.56,2.75.84,4.19.83,1.48.02,2.94-.3,4.27-.93,1.34-.63,2.51-1.57,3.43-2.73v1.41c0,.27.06.54.17.79s.26.47.46.66c.2.19.43.33.68.43.25.1.52.14.79.13.26,0,.53-.04.78-.14.25-.1.47-.24.67-.43.19-.19.34-.41.45-.66.1-.25.16-.51.16-.78v-26.4c0-.27-.06-.54-.17-.79-.11-.25-.26-.47-.46-.66-.2-.19-.43-.33-.68-.43s-.52-.14-.79-.13h0ZM729.54,880.21v.08c.02,1.97-.74,3.86-2.1,5.26-1.36,1.41-3.22,2.21-5.17,2.24-.96,0-1.9-.21-2.78-.59-.88-.38-1.67-.94-2.33-1.64-.66-.7-1.17-1.53-1.51-2.43-.33-.91-.48-1.87-.44-2.83v-.08c0-4.4,2.91-7.47,7.06-7.47.97,0,1.92.19,2.81.57.89.38,1.7.93,2.38,1.63.68.7,1.21,1.52,1.56,2.43.36.91.53,1.88.51,2.85"/>
    <path class="cls-68" d="M748.3,868.99c-6.54,0-11.65,4.93-11.65,11.23v.07c0,6.24,5.08,11.14,11.57,11.14s11.68-4.93,11.68-11.21v-.08c0-6.26-5.1-11.15-11.6-11.15h0ZM740.87,880.14c-.03-.99.14-1.97.5-2.89.36-.92.9-1.75,1.58-2.46.69-.7,1.51-1.26,2.41-1.63.9-.37,1.88-.56,2.85-.54.99,0,1.97.19,2.88.57.91.38,1.74.94,2.43,1.65.69.71,1.24,1.55,1.61,2.47.37.92.55,1.91.53,2.91v.07c.02.98-.15,1.96-.51,2.88-.36.91-.9,1.75-1.59,2.44s-1.51,1.25-2.42,1.62c-.9.37-1.88.55-2.85.53-.98,0-1.96-.18-2.86-.56-.91-.38-1.73-.93-2.42-1.64-.69-.7-1.24-1.54-1.61-2.45-.37-.92-.55-1.9-.54-2.89v-.08Z"/>
    <path class="cls-68" d="M773.94,869c-1.29-.04-2.58.21-3.76.73-1.18.52-2.24,1.31-3.08,2.3v-.77c-.02-.54-.25-1.05-.63-1.43-.39-.38-.9-.59-1.44-.59s-1.05.21-1.44.59c-.39.38-.61.89-.63,1.43v17.89c0,.27.06.54.17.79.11.25.26.47.46.66.19.19.43.33.68.43.25.1.52.14.79.13.27.01.53-.03.78-.13.25-.1.48-.24.67-.43.19-.19.34-.41.45-.66.1-.25.15-.52.15-.79v-10.44c-.04-.8.09-1.59.38-2.34.29-.74.72-1.42,1.28-1.98.56-.56,1.23-1,1.97-1.29.74-.29,1.53-.42,2.32-.38,3.45,0,5.43,2.09,5.43,5.75v10.69c0,.27.06.54.17.79.11.25.26.47.46.66.19.19.42.33.68.43.25.1.52.14.79.13.27,0,.53-.04.78-.14.25-.1.48-.24.67-.43.19-.19.34-.41.45-.66.1-.25.16-.51.16-.78v-11.43c0-5.3-3.41-8.72-8.68-8.72"/>
    <path class="cls-68" d="M796.12,868.99c-1.44,0-2.86.31-4.18.88-1.32.57-2.52,1.4-3.52,2.44-1,1.04-1.78,2.27-2.3,3.63-.52,1.35-.77,2.79-.73,4.24v.08c-.03,1.48.24,2.96.79,4.33.55,1.37,1.37,2.62,2.41,3.67,1.04,1.05,2.28,1.87,3.65,2.41,1.37.55,2.83.81,4.3.77,1.54.05,3.08-.21,4.52-.76,1.44-.56,2.76-1.4,3.88-2.47.2-.16.36-.37.47-.6.11-.23.17-.48.18-.74,0-.24-.07-.48-.16-.7-.1-.22-.24-.42-.42-.58-.18-.16-.38-.29-.61-.38-.23-.08-.46-.12-.7-.11-.44,0-.87.17-1.21.46-1.59,1.49-3.69,2.31-5.86,2.28-1.7.05-3.36-.55-4.65-1.66-1.29-1.12-2.13-2.68-2.34-4.38h14.93c.51,0,1-.19,1.37-.54s.58-.84.6-1.36c0-5.41-3.57-10.9-10.41-10.9h0ZM789.63,878.61c.58-3.63,3.15-6.09,6.41-6.09,4.03,0,5.87,3.05,6.29,6.09h-12.71Z"/>
    <path class="cls-68" d="M817.93,878.29l-.09-.02c-2.62-.77-5.07-1.5-5.07-3.09v-.07c0-1.5,1.46-2.53,3.65-2.53,1.88.06,3.72.58,5.35,1.53.3.14.62.22.95.22.48.02.95-.16,1.3-.49.35-.33.56-.79.58-1.28,0-.35-.1-.68-.28-.98-.18-.29-.43-.53-.73-.7-2.19-1.15-4.61-1.77-7.07-1.81-4.58,0-7.77,2.61-7.77,6.35v.08c0,4.23,4.29,5.4,7.42,6.25,2.84.77,4.99,1.49,4.99,3.18v.08c0,1.69-1.58,2.81-3.95,2.81-2.33-.04-4.59-.78-6.51-2.11-.31-.22-.68-.33-1.06-.32-.39-.02-.77.08-1.1.3-.32.22-.56.54-.69.91-.12.37-.12.77,0,1.15.13.37.37.69.69.91,2.52,1.7,5.47,2.63,8.5,2.67,4.84,0,8.1-2.66,8.1-6.64v-.07c0-4.26-4.33-5.51-7.2-6.35"/>
    <path class="cls-68" d="M830.74,869.24c-.54,0-1.05.2-1.44.58-.38.38-.6.89-.61,1.43v17.89c0,.27.06.54.17.79.11.25.26.47.46.66.19.19.43.33.68.43.25.1.52.14.79.13.27,0,.53-.04.78-.13.25-.1.48-.24.67-.43.19-.19.34-.41.45-.66.1-.25.16-.52.16-.79v-17.89c0-.27-.06-.54-.17-.79-.11-.25-.26-.47-.46-.66s-.43-.33-.68-.43c-.25-.1-.52-.14-.79-.13"/>
    <path class="cls-68" d="M853.35,871.56c-1.66-1.59-4.1-2.41-7.25-2.41-2.47-.03-4.92.46-7.19,1.44-.4.15-.73.44-.93.82-.2.38-.27.82-.18,1.24.09.42.33.79.66,1.05s.76.39,1.18.36c.26,0,.51-.06.75-.15,1.69-.75,3.52-1.13,5.37-1.13,2.69,0,5.88.9,5.88,5.16v.11c-1.99-.51-4.03-.75-6.08-.73-5.95,0-9.63,2.72-9.63,7.11v.09c0,4.51,4.26,6.87,8.47,6.87,1.33.04,2.65-.18,3.9-.66,1.24-.48,2.38-1.2,3.35-2.13v.64c0,.26.06.52.16.76.1.24.26.45.44.63.19.18.41.31.65.4.24.09.5.13.76.11.26,0,.52-.03.77-.13.25-.1.47-.24.66-.42.19-.18.33-.41.44-.65.1-.24.15-.51.15-.77v-11.27c.07-1.16-.1-2.33-.5-3.42-.4-1.09-1.02-2.09-1.83-2.93h0ZM851.71,881.28v1.64c0,2.92-2.88,5.12-6.69,5.12-2.36,0-4.9-1.15-4.9-3.65v-.07c0-2.39,2.15-3.81,5.77-3.81,1.96,0,3.92.26,5.82.77"/>
    <path class="cls-68" d="M536.83,915.15c0-.28.04-.55.1-.82l1.21-4.58h-1.07l.27-1.02h1.09l.62-2.37h1.15l-.63,2.37h2.44l-.26,1.02h-2.45l-1.21,4.52c-.02.19-.04.38-.05.57,0,.55.4.81,1.06.81.39,0,.77-.09,1.13-.24l-.29,1.06c-.39.16-.81.24-1.23.23-1.12,0-1.89-.54-1.89-1.55"/>
    <path class="cls-68" d="M538.72,916.83c-1.25,0-2.02-.65-2.02-1.69,0-.29.04-.58.11-.86l1.17-4.41h-1.07l.34-1.29h1.09l.62-2.36h1.42l-.64,2.36h2.45l-.33,1.29h-2.45l-1.18,4.42c-.02.18-.04.36-.04.54,0,.45.31.68.93.68.37,0,.74-.09,1.08-.24l.24-.1-.38,1.38-.06.03c-.4.17-.84.25-1.28.25h0ZM537.25,909.61h1.07l-1.25,4.75c-.06.26-.1.52-.1.79,0,.89.66,1.42,1.76,1.42.38,0,.76-.06,1.12-.2l.21-.75c-.3.11-.62.16-.93.17-1.04,0-1.19-.59-1.19-.94,0-.2.02-.39.05-.59l1.24-4.64h2.45l.2-.76h-2.44l.64-2.37h-.88l-.62,2.37h-1.09l-.2.76Z"/>
    <path class="cls-68" d="M544.91,905.49h1.15l-1.18,4.49c.31-.43.72-.78,1.19-1.02.47-.25.98-.38,1.51-.4.33-.03.65.01.96.13.31.11.59.29.82.52.24.23.42.51.54.81.12.31.17.64.16.97-.02.41-.09.82-.2,1.22l-1.14,4.36h-1.16l1.18-4.44c.07-.29.11-.58.12-.88.01-.23-.03-.46-.11-.67-.09-.21-.22-.4-.38-.56-.17-.16-.36-.27-.58-.34-.22-.07-.44-.09-.67-.06-.67.07-1.31.35-1.81.8s-.85,1.06-.99,1.73l-1.18,4.43h-1.15l2.94-11.06Z"/>
    <path class="cls-68" d="M548.81,916.69h-1.44l1.23-4.61c.07-.28.1-.56.11-.85.01-.21-.02-.42-.1-.62-.08-.2-.2-.37-.35-.51-.15-.14-.34-.25-.54-.31-.2-.06-.41-.08-.62-.06-.65.07-1.25.34-1.73.77-.48.44-.81,1.02-.95,1.66l-1.2,4.53h-1.42l.04-.17,2.97-11.17h1.41l-1.1,4.16c.31-.34.69-.61,1.11-.8.42-.19.87-.29,1.33-.29.34-.03.69.01,1.01.13.32.12.62.3.87.54.25.24.44.53.57.86s.18.67.16,1.02c-.02.42-.09.84-.2,1.25l-1.17,4.46ZM547.72,916.43h.89l1.12-4.26c.11-.38.18-.78.2-1.18.02-.31-.03-.63-.15-.92-.11-.29-.29-.55-.51-.77-.22-.22-.49-.38-.78-.49-.29-.1-.6-.14-.91-.12-.51.02-1.01.15-1.46.39-.45.24-.84.58-1.15.99l-.37.42,1.29-4.87h-.87l-2.87,10.8h.88l1.15-4.33c.15-.7.51-1.33,1.04-1.8.53-.47,1.19-.76,1.89-.83.24-.03.49,0,.72.07.23.08.44.2.62.37.18.17.32.37.41.6.09.23.13.47.12.72,0,.31-.05.62-.12.92l-1.13,4.29Z"/>
    <path class="cls-68" d="M552.79,913.36c-.02.32.02.64.13.93.11.3.28.57.5.79.22.22.49.4.79.51.3.11.61.16.92.13.88,0,1.74-.33,2.39-.92l.61.77c-.84.76-1.93,1.18-3.06,1.17-.45.03-.9-.03-1.32-.18-.42-.15-.81-.4-1.13-.71s-.58-.69-.75-1.12c-.17-.42-.25-.87-.23-1.33,0-1.24.46-2.43,1.3-3.34.84-.9,2-1.44,3.22-1.51.4-.03.8.03,1.17.17.38.14.72.36,1,.64.28.28.51.63.65,1,.14.38.2.78.18,1.18,0,.52-.1,1.04-.29,1.53h-6.07c-.02.09-.02.18-.02.27h0ZM557.98,912.15c.04-.19.06-.39.06-.59.02-.27,0-.53-.09-.79-.09-.25-.23-.48-.41-.67-.18-.19-.41-.34-.65-.44-.25-.1-.51-.14-.78-.12-.73.04-1.43.31-1.99.78-.56.47-.96,1.11-1.13,1.83h5Z"/>
    <path class="cls-68" d="M555.09,916.88c-.47.04-.94-.03-1.38-.19-.44-.16-.84-.41-1.18-.74-.34-.33-.6-.72-.78-1.16-.17-.44-.25-.91-.24-1.38,0-1.27.48-2.5,1.34-3.42.86-.93,2.05-1.48,3.31-1.56.42-.03.83.04,1.22.18.39.15.74.38,1.04.67.3.3.53.65.68,1.04.15.39.22.81.2,1.23,0,.54-.11,1.07-.3,1.57l-.03.08h-6.05v.14c-.02.3.02.6.13.88.1.28.27.54.48.75.21.21.46.38.74.48.28.1.58.15.87.13.85,0,1.68-.31,2.31-.89l.1-.09.76.97-.1.09c-.86.78-1.98,1.21-3.13,1.2h0ZM556.18,908.69c-1.19.07-2.31.6-3.13,1.48-.82.88-1.27,2.04-1.27,3.24-.02.44.06.87.22,1.27.16.4.41.77.72,1.07.31.3.68.53,1.09.68.41.15.84.21,1.27.17,1.05,0,2.07-.37,2.87-1.06l-.44-.56c-.66.57-1.51.87-2.38.87-.33.02-.66-.03-.97-.14s-.59-.3-.83-.54-.42-.52-.53-.84c-.12-.31-.16-.65-.14-.98,0-.1,0-.2.02-.3l.03-.1h6.08c.16-.45.25-.92.25-1.4.02-.39-.03-.77-.17-1.13-.14-.36-.35-.69-.62-.96-.27-.27-.6-.48-.96-.61-.36-.13-.74-.19-1.13-.16h0ZM558.1,912.28h-5.29l.05-.17c.18-.75.59-1.41,1.18-1.9.59-.49,1.31-.77,2.07-.8.28-.02.56.03.83.13.26.1.5.26.7.47.2.2.35.45.44.72.09.27.13.55.1.84,0,.21-.02.41-.06.61l-.02.11ZM553.17,912.01h4.71c.02-.15.03-.3.03-.45.02-.25,0-.5-.09-.73-.08-.24-.21-.45-.38-.63-.17-.18-.38-.32-.61-.41-.23-.09-.48-.13-.72-.11-.67.03-1.32.27-1.85.69-.53.42-.91,1-1.09,1.65"/>
    <path class="cls-68" d="M565.72,908.72h1.19l.4,6.24,3.75-6.27h.96l.43,6.27,3.74-6.24h1.21l-4.84,7.9h-1.02l-.45-6.19-3.74,6.19h-1.02l-.62-7.9Z"/>
    <path class="cls-68" d="M572.64,916.76h-1.22l-.43-5.91-3.57,5.91h-1.21l-.64-8.17h1.46l.38,5.94,3.58-5.97h1.16l.41,5.98,3.56-5.95h1.52l-5,8.17ZM571.66,916.49h.83l4.67-7.64h-.9l-3.91,6.54-.45-6.56h-.77l-3.93,6.57-.42-6.54h-.92l.6,7.64h.82l3.92-6.48.47,6.48Z"/>
    <path class="cls-68" d="M577.55,913.22c.02-1.22.51-2.38,1.36-3.25.85-.87,2-1.37,3.21-1.41.47-.03.93.04,1.37.21.44.16.84.42,1.17.75.33.33.59.73.77,1.16.17.44.25.91.23,1.38-.02,1.22-.51,2.39-1.36,3.26-.85.87-2,1.38-3.21,1.42-.47.03-.93-.05-1.37-.21s-.84-.42-1.17-.76c-.33-.33-.59-.73-.76-1.17-.17-.44-.25-.91-.23-1.38h0ZM584.48,912.1c.03-.33-.01-.67-.13-.98-.11-.31-.29-.6-.52-.84-.23-.24-.51-.42-.82-.54-.31-.12-.64-.17-.97-.15-.9.07-1.74.49-2.36,1.16-.62.67-.96,1.55-.97,2.46-.03.33.01.67.13.98.11.31.29.6.52.84.23.24.51.42.82.54.31.12.64.17.97.14.9-.07,1.75-.47,2.36-1.14.62-.67.96-1.54.97-2.46"/>
    <path class="cls-68" d="M581.07,916.88c-.48.03-.97-.05-1.42-.23-.45-.17-.87-.44-1.21-.79-.35-.34-.62-.76-.79-1.21-.18-.46-.26-.94-.24-1.43.02-1.25.53-2.45,1.4-3.34.87-.89,2.06-1.41,3.3-1.45.48-.03.97.05,1.42.22.45.17.86.44,1.21.78.35.34.62.75.79,1.21s.26.94.24,1.43c-.02,1.26-.52,2.46-1.4,3.36-.87.9-2.06,1.42-3.3,1.47h0ZM582.11,908.69c-1.17.04-2.29.53-3.11,1.37-.82.84-1.3,1.97-1.32,3.16-.02.45.06.91.22,1.33.16.42.42.81.74,1.12.32.32.7.57,1.12.73.42.16.87.23,1.32.21,1.18-.04,2.29-.53,3.12-1.38.83-.85,1.3-1.98,1.32-3.17.02-.45-.05-.91-.22-1.33-.16-.42-.42-.81-.74-1.12-.32-.32-.71-.56-1.13-.72-.42-.16-.87-.22-1.32-.19h0ZM581.14,915.83c-.35.02-.69-.03-1.02-.16-.32-.12-.62-.32-.86-.57-.24-.25-.43-.55-.55-.88-.12-.33-.17-.68-.14-1.03,0-.95.36-1.86,1-2.55.64-.69,1.52-1.12,2.45-1.19.35-.02.7.03,1.02.16.32.13.62.32.86.57.24.25.43.55.55.88.12.33.16.68.14,1.03,0,.95-.36,1.86-1,2.55-.64.69-1.52,1.11-2.45,1.18h0ZM582.03,909.72c-.87.07-1.68.47-2.27,1.11s-.92,1.49-.92,2.37c-.03.31.01.63.12.93s.27.57.49.79c.22.23.48.4.78.51.29.11.61.16.92.14.87-.07,1.68-.46,2.27-1.1.59-.64.92-1.49.93-2.37.03-.32,0-.63-.11-.93-.1-.3-.27-.57-.49-.8s-.49-.4-.78-.51c-.29-.11-.61-.16-.92-.14Z"/>
    <path class="cls-68" d="M588.72,908.72h1.16l-.52,2.05c.36-.66.9-1.22,1.55-1.6.65-.38,1.39-.58,2.14-.58l-.32,1.26h-.08c-1.7,0-3.4,1.24-4.01,3.62l-.82,3.09h-1.16l2.07-7.83Z"/>
    <path class="cls-68" d="M587.91,916.69h-1.42l2.14-8.1h1.43l-.4,1.57c.36-.51.84-.93,1.39-1.23.55-.3,1.16-.46,1.78-.49.08,0,.16,0,.24,0h.16s-.39,1.52-.39,1.52h-.19c-1.8,0-3.33,1.38-3.88,3.52l-.85,3.2ZM586.82,916.42h.89l.79-2.99c.59-2.25,2.2-3.7,4.12-3.72l.26-1c-.7.03-1.39.24-1.98.61-.6.37-1.09.89-1.44,1.51l-.41.6.67-2.59h-.89l-2,7.57Z"/>
    <path class="cls-68" d="M595.75,905.49h1.15l-2.94,11.06h-1.15l2.95-11.06Z"/>
    <path class="cls-68" d="M594.06,916.69h-1.43l3.02-11.34h1.42l-.04.16-2.97,11.17ZM592.97,916.43h.88l2.87-10.8h-.88l-2.88,10.8Z"/>
    <path class="cls-68" d="M597.15,913.43c-.05-1.23.38-2.42,1.19-3.33.81-.91,1.95-1.46,3.16-1.54.63-.03,1.25.14,1.77.49.52.35.92.86,1.14,1.45l1.32-5.01h1.16l-2.93,11.06h-1.17l.36-1.33c-.35.46-.79.83-1.3,1.09-.51.26-1.07.41-1.64.43-.42,0-.84-.08-1.23-.25-.39-.17-.74-.42-1.03-.73-.29-.31-.51-.68-.65-1.08-.14-.4-.2-.83-.17-1.25h0ZM604.02,912.01c0-.32-.05-.64-.16-.94-.12-.3-.3-.57-.52-.8-.23-.23-.5-.41-.79-.53-.3-.12-.61-.17-.93-.16-.92.07-1.78.49-2.39,1.2-.61.7-.92,1.62-.86,2.54-.03.31,0,.62.1.91.1.29.26.56.47.79.21.23.46.4.74.52.28.12.59.18.89.17.93-.08,1.79-.5,2.43-1.18.64-.68,1-1.58,1.03-2.51"/>
    <path class="cls-68" d="M600.23,916.88c-.44,0-.87-.09-1.28-.27-.4-.18-.77-.43-1.07-.76-.3-.32-.53-.7-.68-1.12-.15-.42-.21-.86-.18-1.3-.04-1.26.4-2.49,1.24-3.42.84-.93,2-1.5,3.25-1.58.59-.03,1.18.12,1.69.42.51.3.93.74,1.19,1.27l1.25-4.76h1.44l-3,11.33h-1.44l.27-.99c-.35.37-.76.66-1.22.86-.46.2-.95.31-1.46.32h0ZM601.51,908.69c-1.18.08-2.28.62-3.06,1.51-.79.88-1.2,2.04-1.16,3.23-.03.41.02.82.15,1.2.13.39.35.74.62,1.04.28.3.61.54.99.7.37.16.78.24,1.18.24.55-.02,1.09-.16,1.58-.41.49-.25.92-.62,1.25-1.06l.37-.43-.46,1.71h.9l2.85-10.8h-.89l-1.4,5.29-.15-.37c-.21-.57-.59-1.05-1.1-1.39-.5-.33-1.1-.5-1.7-.47h0ZM600.57,915.85c-.32,0-.64-.05-.94-.18-.3-.13-.57-.32-.79-.55-.22-.24-.39-.52-.49-.83-.1-.31-.14-.64-.11-.96-.06-.96.27-1.91.9-2.63.63-.72,1.52-1.17,2.48-1.23.34-.01.67.05.99.17.31.12.6.31.84.55.24.24.43.53.55.84.12.32.18.65.17.99-.02.97-.4,1.91-1.06,2.61-.66.71-1.56,1.14-2.53,1.22h0ZM601.61,909.72c-.88.07-1.71.48-2.29,1.16-.58.67-.88,1.55-.82,2.45-.03.29,0,.58.1.86.09.28.24.53.44.74.2.21.43.38.7.5.26.11.55.17.84.17.89-.08,1.72-.49,2.33-1.15.61-.66.97-1.52.99-2.42,0-.3-.04-.61-.15-.89-.11-.28-.28-.54-.49-.76-.21-.22-.47-.38-.75-.5-.28-.11-.58-.16-.88-.15"/>
    <path class="cls-68" d="M613.26,908.73h1.15l-2.09,7.83h-1.14l2.08-7.83ZM613.98,905.72h1.32l-.35,1.29h-1.33l.35-1.29Z"/>
    <path class="cls-68" d="M612.42,916.69h-1.42l2.15-8.1h1.43l-2.17,8.1ZM611.34,916.42h.87l2.03-7.57h-.88l-2.01,7.57ZM615.05,907.14h-1.6l.42-1.56h1.59l-.42,1.56ZM613.8,906.87h1.05l.28-1.03h-1.05l-.28,1.03Z"/>
    <path class="cls-68" d="M616.82,908.73h1.16l-.34,1.26c.32-.43.73-.78,1.2-1.02.47-.25.99-.38,1.52-.4.33-.03.65.01.96.12.31.11.59.29.82.52.23.23.42.51.54.82.12.31.17.64.15.97-.02.41-.09.82-.2,1.22l-1.14,4.36h-1.16l1.18-4.44c.07-.29.1-.58.11-.88.01-.23-.03-.46-.11-.67-.09-.21-.22-.4-.38-.56-.17-.16-.36-.27-.58-.34-.22-.07-.44-.09-.67-.06-.67.07-1.31.35-1.81.8s-.85,1.06-.99,1.73l-1.17,4.43h-1.16l2.07-7.83Z"/>
    <path class="cls-68" d="M621.59,916.69h-1.42l1.22-4.61c.07-.28.1-.56.1-.85.01-.21-.02-.42-.1-.62-.08-.2-.2-.37-.35-.52-.15-.14-.34-.25-.54-.31s-.41-.08-.62-.05c-.64.07-1.25.34-1.73.77-.48.44-.81,1.02-.94,1.66l-1.19,4.53h-1.44l2.15-8.1h1.43l-.25.93c.31-.34.69-.61,1.11-.8.42-.19.88-.29,1.34-.29.34-.03.69.02,1.01.13.32.12.62.3.87.54.25.24.44.53.56.86.13.32.18.67.16,1.02-.02.42-.09.84-.2,1.25l-1.18,4.47ZM620.51,916.43h.88l1.11-4.26c.11-.39.17-.78.2-1.18.02-.31-.03-.62-.15-.91-.11-.29-.29-.55-.51-.77-.22-.22-.49-.38-.78-.49-.29-.1-.6-.14-.91-.12-.51.02-1.01.15-1.46.39-.45.24-.84.57-1.15.99l-.37.41.44-1.63h-.89l-2,7.57h.88l1.15-4.33c.15-.7.51-1.32,1.04-1.8.53-.47,1.19-.76,1.89-.83.24-.03.49,0,.72.07.23.08.44.2.62.37.18.17.32.37.41.6.09.23.13.47.12.72,0,.31-.04.62-.12.92l-1.13,4.28Z"/>
    <path class="cls-68" d="M627.03,918.48l.64-.88c.35.25.76.38,1.19.39.66,0,1.24-.34,2.02-1.45l-1.42-7.82h1.21l1.09,6.53,4.16-6.53h1.31l-5.32,8.09c-1.1,1.62-2.03,2.21-3.19,2.21-.61,0-1.21-.19-1.7-.54"/>
    <path class="cls-68" d="M628.73,919.16c-.64,0-1.26-.2-1.78-.57l-.11-.07.8-1.1.11.09c.33.23.71.35,1.1.36.66,0,1.2-.39,1.88-1.35l-1.43-7.92h1.47l1.05,6.3,4.02-6.3h1.63l-5.45,8.3c-1.09,1.61-2.05,2.27-3.3,2.27h0ZM627.22,918.45c.45.3.98.45,1.51.45,1.15,0,2.04-.63,3.08-2.16l5.18-7.88h-1l-4.3,6.76-1.13-6.76h-.94l1.4,7.72-.03.04c-.75,1.07-1.37,1.51-2.13,1.51-.41,0-.81-.12-1.16-.34l-.48.66Z"/>
    <path class="cls-68" d="M637.19,913.22c.02-1.22.51-2.39,1.36-3.25.85-.87,2-1.37,3.21-1.41.47-.03.93.04,1.37.21.44.16.84.42,1.17.75.33.33.6.73.77,1.16.17.44.25.91.23,1.38-.02,1.22-.51,2.39-1.37,3.26-.85.87-2,1.38-3.22,1.42-.47.03-.93-.05-1.37-.22-.44-.17-.84-.43-1.17-.76-.33-.33-.59-.73-.77-1.17-.17-.44-.25-.91-.23-1.38h0ZM644.11,912.1c.03-.33-.01-.67-.12-.98-.11-.31-.29-.6-.52-.84-.23-.24-.51-.43-.81-.55-.31-.12-.64-.17-.97-.16-.9.07-1.74.49-2.36,1.16-.61.67-.96,1.55-.96,2.46-.03.33.01.67.12.98.11.31.29.6.52.84.23.24.51.42.82.54s.64.17.97.14c.9-.07,1.74-.48,2.36-1.14.61-.67.96-1.54.96-2.45"/>
    <path class="cls-68" d="M640.72,916.88c-.48.03-.97-.05-1.42-.23-.45-.17-.87-.44-1.21-.79-.35-.34-.62-.76-.79-1.21s-.26-.94-.24-1.43c.03-1.26.53-2.45,1.4-3.35.88-.89,2.06-1.41,3.3-1.45.48-.03.97.05,1.42.22.45.17.87.44,1.21.78.35.34.62.75.8,1.21.18.45.26.94.25,1.43-.02,1.26-.52,2.46-1.4,3.36-.88.9-2.06,1.42-3.31,1.46h0ZM641.76,908.69c-1.17.04-2.29.53-3.12,1.37-.83.84-1.3,1.97-1.32,3.16-.02.45.06.91.22,1.33.17.42.42.81.74,1.12.32.32.7.57,1.12.73.42.16.87.23,1.32.21,1.18-.04,2.3-.53,3.13-1.38.83-.85,1.3-1.98,1.32-3.17.02-.45-.06-.9-.23-1.33-.17-.42-.42-.8-.74-1.12-.32-.32-.7-.56-1.13-.72-.42-.16-.87-.23-1.32-.2h0ZM640.8,915.83c-.35.02-.69-.03-1.02-.16-.32-.13-.62-.32-.86-.57s-.43-.55-.55-.88c-.12-.33-.17-.68-.14-1.03,0-.95.36-1.86,1-2.55.64-.69,1.52-1.12,2.45-1.19.35-.02.7.03,1.02.16.32.13.62.32.86.57.24.25.43.55.55.88.12.33.16.68.14,1.03,0,.95-.36,1.86-1,2.55-.64.69-1.52,1.11-2.45,1.18h0ZM641.69,909.72c-.87.07-1.68.47-2.27,1.11-.59.65-.92,1.49-.92,2.37-.03.31.01.63.12.93.11.3.27.57.49.79s.48.4.77.51c.29.11.6.16.92.14.87-.07,1.68-.46,2.27-1.1.59-.64.92-1.49.92-2.37.03-.32,0-.63-.11-.93-.1-.3-.27-.57-.49-.8-.22-.23-.48-.4-.78-.52-.29-.11-.61-.16-.92-.14"/>
    <path class="cls-68" d="M646.89,914.3c.02-.41.08-.82.2-1.21l1.14-4.37h1.15l-1.19,4.44c-.06.29-.1.58-.11.87-.01.23.03.46.11.67.08.21.21.4.38.56.16.16.36.28.58.35.21.07.44.1.67.07.68-.07,1.32-.35,1.82-.81.5-.46.85-1.07.98-1.75l1.19-4.41h1.15l-2.08,7.83h-1.16l.34-1.28c-.32.43-.72.78-1.19,1.03-.47.25-.99.39-1.52.41-.33.03-.65-.02-.96-.13-.31-.11-.59-.29-.82-.52-.23-.23-.42-.51-.53-.81-.12-.31-.17-.64-.15-.96"/>
    <path class="cls-68" d="M649.35,916.85c-.34.03-.69-.02-1.01-.14-.32-.12-.62-.3-.86-.55s-.44-.54-.56-.86c-.12-.32-.18-.67-.16-1.02.01-.42.08-.84.2-1.24l1.16-4.46h1.43l-1.23,4.6c-.06.28-.09.56-.1.84-.01.21.02.42.1.62.08.2.2.37.35.52.15.14.33.25.53.32.2.07.41.09.62.06.65-.07,1.26-.34,1.74-.79.48-.44.81-1.03.94-1.67l1.22-4.51h1.42l-2.15,8.1h-1.42l.25-.94c-.31.34-.69.61-1.11.8-.42.19-.88.29-1.34.3h0ZM648.32,908.85l-1.12,4.26c-.11.38-.17.78-.19,1.18-.02.31.03.62.14.92.11.29.28.56.5.77.22.22.49.38.78.49.29.1.6.14.91.11.51-.02,1.01-.16,1.47-.4s.85-.58,1.15-1l.37-.42-.44,1.65h.88l2.01-7.57h-.88l-1.16,4.31c-.14.7-.51,1.33-1.03,1.81-.53.48-1.19.77-1.89.84-.24.03-.49,0-.72-.08-.23-.08-.44-.21-.62-.38-.18-.17-.31-.37-.4-.6s-.13-.47-.12-.72c0-.3.04-.61.11-.91l1.14-4.28h-.89Z"/>
    <path class="cls-68" d="M657.53,908.72h1.16l-.52,2.05c.36-.67.9-1.22,1.55-1.6.65-.38,1.39-.58,2.15-.58l-.33,1.26h-.08c-1.7,0-3.4,1.24-4.01,3.62l-.82,3.09h-1.16l2.08-7.83Z"/>
    <path class="cls-68" d="M656.71,916.69h-1.43l2.15-8.1h1.42l-.4,1.57c.38-.55.9-.99,1.49-1.29.6-.3,1.26-.44,1.92-.41h.16s-.4,1.52-.4,1.52h-.18c-1.81,0-3.33,1.38-3.89,3.52l-.85,3.2ZM655.62,916.43h.89l.79-2.99c.59-2.25,2.21-3.7,4.13-3.72l.26-1c-.7.03-1.39.24-1.98.61-.6.37-1.09.89-1.44,1.51l-.42.6.66-2.59h-.89l-2,7.57Z"/>
    <path class="cls-68" d="M668.91,905.49h1.15l-1.19,4.49c.32-.43.72-.77,1.19-1.02.47-.25.98-.38,1.51-.4.33-.03.66.01.97.12.31.11.59.29.83.52.24.23.42.51.54.82.12.31.17.64.15.97-.02.41-.08.82-.2,1.22l-1.14,4.36h-1.16l1.17-4.44c.08-.29.12-.58.12-.88.01-.23-.03-.46-.12-.67-.09-.21-.22-.4-.38-.56-.17-.16-.36-.27-.58-.34-.22-.07-.44-.09-.67-.06-.67.07-1.31.35-1.82.8-.51.45-.86,1.06-1,1.73l-1.17,4.43h-1.15l2.94-11.06Z"/>
    <path class="cls-68" d="M672.81,916.69h-1.43l1.21-4.61c.08-.28.12-.56.12-.85,0-.21-.03-.42-.11-.62-.08-.2-.2-.37-.36-.51-.15-.14-.34-.25-.54-.31-.2-.06-.41-.08-.62-.05-.65.07-1.25.34-1.74.77-.48.44-.81,1.02-.95,1.66l-1.2,4.53h-1.43l.05-.17,2.97-11.16h1.42l-1.11,4.16c.31-.34.69-.61,1.11-.79.42-.19.87-.29,1.33-.29.34-.03.69.01,1.02.13.33.12.62.3.87.54.25.24.44.53.57.86.13.32.18.67.16,1.02-.02.42-.09.84-.2,1.25l-1.17,4.46ZM671.72,916.43h.89l1.12-4.26c.11-.39.17-.78.19-1.18.02-.31-.03-.63-.14-.92-.11-.29-.29-.56-.51-.77-.22-.22-.49-.38-.79-.49-.29-.1-.61-.14-.92-.11-.51.02-1.01.15-1.46.39-.45.24-.84.57-1.15.98l-.37.42,1.29-4.87h-.88l-2.87,10.8h.88l1.14-4.33c.15-.7.51-1.33,1.04-1.8.53-.47,1.19-.76,1.89-.83.24-.03.49,0,.72.07.23.08.45.2.62.37.18.17.32.37.41.6.09.23.14.47.12.72,0,.31-.05.62-.13.92l-1.12,4.28Z"/>
    <path class="cls-68" d="M675.18,914.55c0-1.76,1.45-2.83,3.45-2.83.93.02,1.85.16,2.74.42l.06-.19c.06-.24.09-.48.1-.72,0-.99-.69-1.59-2.09-1.59-.75,0-1.5.15-2.2.42l-.2-.98c.82-.33,1.7-.49,2.58-.48,1.96,0,3.06.93,3.06,2.43-.01.36-.06.72-.15,1.07l-1.17,4.44h-1.15l.33-1.22c-.35.44-.8.79-1.3,1.03-.5.24-1.05.36-1.61.36-.3.03-.61,0-.9-.09-.29-.09-.56-.25-.79-.45-.23-.2-.41-.45-.54-.73-.13-.28-.2-.58-.21-.89h0ZM681.04,913.49l.14-.56c-.82-.23-1.66-.35-2.51-.35-1.36,0-2.31.75-2.31,1.84,0,.83.63,1.37,1.63,1.37.68-.01,1.35-.24,1.89-.66.55-.41.95-.99,1.15-1.65"/>
    <path class="cls-68" d="M677.61,916.85c-.32.03-.65,0-.95-.1-.31-.1-.59-.26-.83-.48-.24-.22-.44-.48-.57-.78-.14-.3-.21-.62-.21-.94,0-1.77,1.44-2.96,3.59-2.96.9.01,1.79.15,2.65.39l.02-.06c.05-.23.08-.46.09-.69,0-1.2-1.06-1.45-1.95-1.45-.74,0-1.47.14-2.15.41l-.14.05-.25-1.24.11-.04c.83-.33,1.72-.49,2.62-.48,1.99,0,3.19.95,3.19,2.56,0,.37-.06.75-.15,1.11l-1.2,4.55h-1.42l.24-.89c-.71.69-1.67,1.07-2.65,1.06h0ZM678.63,911.85c-1.99,0-3.33,1.08-3.33,2.7,0,.29.08.58.2.84.12.26.3.5.52.69.22.19.47.33.75.42.27.09.56.12.85.09.54,0,1.07-.12,1.56-.35s.91-.57,1.25-.99l.37-.43-.43,1.61h.88l1.15-4.35c.08-.34.13-.69.14-1.04,0-1.46-1.07-2.3-2.92-2.3-.83,0-1.65.14-2.42.43l.15.72c.67-.25,1.38-.38,2.1-.38,1.43,0,2.22.61,2.22,1.72,0,.25-.04.51-.1.75l-.1.32-.12-.03c-.88-.26-1.79-.4-2.71-.42h0ZM677.99,915.92c-1.07,0-1.76-.58-1.76-1.5,0-1.16,1-1.97,2.44-1.97.86,0,1.72.12,2.55.35l.12.04-.18.68c-.21.69-.63,1.29-1.2,1.72-.57.43-1.26.67-1.97.68h0ZM678.68,912.72c-1.28,0-2.18.7-2.18,1.71,0,.76.58,1.23,1.5,1.23.66-.01,1.29-.23,1.82-.63.52-.4.91-.95,1.11-1.58l.11-.42c-.77-.2-1.56-.31-2.35-.31"/>
    <path class="cls-68" d="M685.84,908.73h1.16l-.33,1.26c.32-.43.72-.77,1.19-1.02.47-.25.98-.38,1.51-.4.33-.03.66.01.96.12.31.11.59.29.83.52.24.23.42.51.54.82.12.31.17.64.15.97-.01.41-.08.82-.2,1.22l-1.14,4.36h-1.15l1.17-4.44c.08-.29.11-.58.12-.88.01-.23-.03-.46-.11-.67-.08-.21-.21-.4-.38-.56-.17-.16-.36-.27-.58-.34-.22-.07-.44-.09-.67-.06-.67.07-1.31.35-1.81.8-.51.45-.86,1.06-1,1.72l-1.17,4.43h-1.15l2.07-7.83Z"/>
    <path class="cls-68" d="M690.6,916.69h-1.42l1.22-4.61c.07-.28.11-.56.11-.85.01-.21-.02-.42-.1-.62-.08-.2-.2-.37-.35-.51-.15-.14-.34-.25-.54-.31-.2-.06-.41-.08-.62-.06-.65.07-1.25.34-1.74.78-.48.44-.82,1.02-.95,1.66l-1.19,4.53h-1.42l2.14-8.1h1.43l-.24.93c.31-.34.69-.61,1.11-.79.42-.19.87-.29,1.33-.3.34-.03.69.02,1.01.13.32.12.62.3.87.54.25.24.44.53.57.86.13.32.18.67.16,1.02-.02.42-.09.84-.2,1.25l-1.16,4.46ZM689.52,916.43h.88l1.12-4.26c.11-.38.18-.78.2-1.18.02-.31-.03-.63-.14-.92-.11-.29-.29-.56-.51-.77-.22-.22-.49-.38-.78-.49-.29-.1-.6-.14-.91-.11-.51.02-1,.15-1.45.39-.45.24-.84.57-1.15.98l-.37.41.43-1.63h-.88l-2,7.57h.88l1.14-4.33c.15-.69.52-1.32,1.05-1.79.53-.47,1.19-.76,1.89-.83.24-.03.49,0,.72.07.23.08.44.2.62.37.18.17.32.37.41.6.09.23.13.47.12.72,0,.31-.05.62-.13.92l-1.13,4.28Z"/>
    <path class="cls-68" d="M693.44,913.43c-.05-1.22.38-2.42,1.19-3.33.81-.91,1.95-1.46,3.16-1.54.63-.03,1.25.14,1.77.49.52.35.92.86,1.14,1.45l1.33-5.01h1.14l-2.93,11.06h-1.14l.34-1.33c-.35.45-.79.83-1.3,1.09-.51.26-1.06.41-1.63.43-.42,0-.84-.08-1.23-.25-.39-.17-.74-.42-1.03-.73-.29-.31-.51-.68-.65-1.08-.14-.4-.2-.83-.17-1.26h0ZM700.3,912.01c.01-.32-.04-.64-.16-.94-.12-.3-.29-.57-.52-.8-.22-.23-.49-.41-.79-.53-.3-.12-.61-.18-.93-.17-.92.07-1.78.5-2.39,1.2-.61.7-.92,1.62-.86,2.54-.03.31,0,.62.1.91.1.29.25.56.46.79.21.23.46.41.74.53.28.12.58.18.89.17.93-.08,1.79-.5,2.43-1.18.64-.68,1-1.58,1.03-2.52"/>
    <path class="cls-68" d="M696.52,916.88c-.44,0-.87-.09-1.28-.26-.4-.18-.77-.43-1.07-.76-.3-.32-.53-.7-.68-1.12-.15-.42-.21-.86-.19-1.3-.04-1.26.4-2.49,1.24-3.42.84-.93,2-1.5,3.25-1.58.59-.02,1.18.12,1.69.42.51.3.93.74,1.2,1.27l1.26-4.76h1.42l-3,11.33h-1.42l.26-1c-.35.37-.76.66-1.22.87-.46.2-.95.31-1.46.32h0ZM697.79,908.69c-1.18.08-2.28.62-3.06,1.51-.79.89-1.2,2.05-1.16,3.23-.03.41.02.82.16,1.21.13.39.35.74.63,1.04.28.3.61.54.99.7.37.16.78.24,1.18.23.55-.02,1.09-.16,1.58-.41.49-.25.92-.61,1.25-1.06l.36-.42-.44,1.71h.87l2.86-10.8h-.87l-1.4,5.29-.15-.36c-.21-.57-.59-1.06-1.1-1.39-.5-.33-1.1-.5-1.7-.47h0ZM696.84,915.85c-.32,0-.64-.06-.94-.18-.3-.13-.56-.32-.78-.56-.22-.24-.38-.52-.49-.83-.1-.31-.14-.63-.11-.96-.06-.96.27-1.91.9-2.63.63-.72,1.52-1.17,2.48-1.23.34-.01.67.05.98.17.31.12.6.31.83.55.24.24.42.53.55.84.12.32.18.65.17.99-.02.97-.4,1.91-1.06,2.61-.66.71-1.56,1.14-2.53,1.22h0ZM697.9,909.72c-.89.07-1.71.48-2.29,1.16-.58.67-.88,1.55-.82,2.45-.03.29,0,.58.09.86.09.28.24.53.43.75.19.21.43.38.7.5.27.11.55.17.84.16.89-.08,1.72-.49,2.33-1.15.61-.66.97-1.52,1-2.42.01-.3-.04-.61-.15-.89-.11-.28-.28-.54-.49-.76-.21-.22-.47-.38-.75-.5-.28-.11-.58-.16-.88-.15"/>
  </g>
  <g id="g851">
    <path id="rect30" class="cls-56" d="M176.57,40.84c-1.55.03-3.54.72-3.56,3.37-.02,2.66,2.73,8.31,2.58,21.29-.16,13.49-3.25,22.66-22.08,45.73l-74.63,91.45C35.69,255.6,6.34,279.73,6.2,337.45c-.14,57.73,29.51,85.93,72.71,120.7,43.19,34.77,99.15,79.91,142.68,115.27.99.8,2.22,1.66,3.77,1.63s3.54-.72,3.56-3.37c.02-2.66-2.95-5.26-2.8-18.24.16-13.49,1.47-21.59,20.41-44.57l78.36-95.04c43.45-52.7,70.35-76.27,70.48-133.3.13-57.04-29.76-88.18-68.04-117.87-50.35-39.05-108.87-88.29-147.01-120.19-.98-.82-2.22-1.66-3.77-1.63Z"/>
    <path id="path1312-7" class="cls-73" d="M111.94,236.36v23.5h66.38v153.27c0,21.52,15.33,31.33,30.35,31.33s24.55-5,24.55-5c0,0-9.16-7.42-9.2-40.37-.04-31.96,0-132.75,0-146.97,0-14.22-16.57-39.81-43.84-39.81h-42.14c-13.81,0-26.1,11.25-26.1,24.05h0ZM209.43,212.31c-.87,0-1.57.7-1.57,1.57s.87,1.52,1.57,2.04c2.89,2.16,11.9,8.55,16.21,17.29,4.3,8.74,4.41,16.67,7.2,21.25,2.8,4.58,7.36,5.4,12.18,5.4h34.69c7.67,0,10.68-5.15,10.68-11.26v-36.29h-80.96Z"/>
  </g>
  <g>
    <g class="cls-127">
      <polygon class="cls-94" points="434.91 520.49 513.75 566 434.91 566 434.91 520.49"/>
      <polygon class="cls-94" points="434.91 516.97 519.83 566 513.75 566 434.91 520.49 434.91 516.97"/>
      <polygon class="cls-94" points="434.91 513.46 525.92 566 519.83 566 434.91 516.97 434.91 513.46"/>
      <polygon class="cls-94" points="434.91 509.95 532 566 525.92 566 434.91 513.46 434.91 509.95"/>
      <polygon class="cls-94" points="434.91 506.44 538.08 566 532 566 434.91 509.95 434.91 506.44"/>
      <polygon class="cls-94" points="434.91 502.92 544.17 566 538.08 566 434.91 506.44 434.91 502.92"/>
      <polygon class="cls-94" points="434.91 499.41 550.25 566 544.17 566 434.91 502.92 434.91 499.41"/>
      <polygon class="cls-94" points="434.91 495.9 556.34 566 550.25 566 434.91 499.41 434.91 495.9"/>
      <polygon class="cls-94" points="434.91 492.39 562.42 566 556.34 566 434.91 495.9 434.91 492.39"/>
      <polygon class="cls-94" points="434.91 488.87 568.5 566 562.42 566 434.91 492.39 434.91 488.87"/>
      <polygon class="cls-94" points="434.91 485.36 574.59 566 568.5 566 434.91 488.87 434.91 485.36"/>
      <polygon class="cls-94" points="434.91 481.85 580.67 566 574.59 566 434.91 485.36 434.91 481.85"/>
      <polygon class="cls-94" points="434.91 478.34 586.75 566 580.67 566 434.91 481.85 434.91 478.34"/>
      <polygon class="cls-94" points="434.91 474.83 592.84 566 586.75 566 434.91 478.34 434.91 474.83"/>
      <polygon class="cls-94" points="434.91 471.31 598.92 566 592.84 566 434.91 474.83 434.91 471.31"/>
      <polygon class="cls-94" points="434.91 467.8 605 566 598.92 566 434.91 471.31 434.91 467.8"/>
      <polygon class="cls-94" points="434.91 464.29 611.09 566 605 566 434.91 467.8 434.91 464.29"/>
      <polygon class="cls-94" points="434.91 460.78 617.17 566 611.09 566 434.91 464.29 434.91 460.78"/>
      <polygon class="cls-94" points="434.91 457.26 623.25 566 617.17 566 434.91 460.78 434.91 457.26"/>
      <polygon class="cls-94" points="434.91 453.75 629.34 566 623.25 566 434.91 457.26 434.91 453.75"/>
      <polygon class="cls-94" points="434.91 450.24 635.42 566 629.34 566 434.91 453.75 434.91 450.24"/>
      <polygon class="cls-94" points="434.91 446.73 641.5 566 635.42 566 434.91 450.24 434.91 446.73"/>
      <polygon class="cls-94" points="434.91 443.21 647.59 566 641.5 566 434.91 446.73 434.91 443.21"/>
      <polygon class="cls-94" points="434.91 439.7 653.67 566 647.59 566 434.91 443.21 434.91 439.7"/>
      <polygon class="cls-94" points="434.91 436.19 659.76 566 653.67 566 434.91 439.7 434.91 436.19"/>
      <polygon class="cls-94" points="434.91 432.68 665.84 566 659.76 566 434.91 436.19 434.91 432.68"/>
      <polygon class="cls-94" points="434.91 429.17 671.92 566 665.84 566 434.91 432.68 434.91 429.17"/>
      <polygon class="cls-94" points="434.91 425.65 678.01 566 671.92 566 434.91 429.17 434.91 425.65"/>
      <polygon class="cls-94" points="434.91 422.14 684.09 566 678.01 566 434.91 425.65 434.91 422.14"/>
      <polygon class="cls-94" points="434.91 418.63 690.17 566 684.09 566 434.91 422.14 434.91 418.63"/>
      <polygon class="cls-94" points="434.91 415.12 696.26 566 690.17 566 434.91 418.63 434.91 415.12"/>
      <polygon class="cls-94" points="434.91 411.6 702.34 566 696.26 566 434.91 415.12 434.91 411.6"/>
      <polygon class="cls-94" points="434.91 408.09 708.42 566 702.34 566 434.91 411.6 434.91 408.09"/>
      <polygon class="cls-94" points="434.91 404.58 714.51 566 708.42 566 434.91 408.09 434.91 404.58"/>
      <polygon class="cls-94" points="434.91 401.07 720.59 566 714.51 566 434.91 404.58 434.91 401.07"/>
      <polygon class="cls-94" points="434.91 397.55 726.67 566 720.59 566 434.91 401.07 434.91 397.55"/>
      <polygon class="cls-94" points="434.91 394.04 732.76 566 726.67 566 434.91 397.55 434.91 394.04"/>
      <polygon class="cls-94" points="434.91 390.53 738.84 566 732.76 566 434.91 394.04 434.91 390.53"/>
      <polygon class="cls-94" points="434.91 387.02 744.92 566 738.84 566 434.91 390.53 434.91 387.02"/>
      <polygon class="cls-94" points="434.91 383.5 751.01 566 744.92 566 434.91 387.02 434.91 383.5"/>
      <polygon class="cls-94" points="434.91 379.99 757.09 566 751.01 566 434.91 383.5 434.91 379.99"/>
      <polygon class="cls-19" points="434.91 376.48 763.18 566 757.09 566 434.91 379.99 434.91 376.48"/>
      <polygon class="cls-19" points="434.91 372.97 769.26 566 763.18 566 434.91 376.48 434.91 372.97"/>
      <polygon class="cls-19" points="434.91 369.46 775.34 566 769.26 566 434.91 372.97 434.91 369.46"/>
      <polygon class="cls-19" points="434.91 365.94 781.43 566 775.34 566 434.91 369.46 434.91 365.94"/>
      <polygon class="cls-19" points="434.91 362.43 787.51 566 781.43 566 434.91 365.94 434.91 362.43"/>
      <polygon class="cls-19" points="434.91 358.92 793.59 566 787.51 566 434.91 362.43 434.91 358.92"/>
      <polygon class="cls-19" points="434.91 355.41 799.68 566 793.59 566 434.91 358.92 434.91 355.41"/>
      <polygon class="cls-19" points="434.91 351.89 805.76 566 799.68 566 434.91 355.41 434.91 351.89"/>
      <polygon class="cls-19" points="434.91 348.38 811.84 566 805.76 566 434.91 351.89 434.91 348.38"/>
      <polygon class="cls-19" points="434.91 344.87 817.93 566 811.84 566 434.91 348.38 434.91 344.87"/>
      <polygon class="cls-19" points="434.91 341.36 824.01 566 817.93 566 434.91 344.87 434.91 341.36"/>
      <polygon class="cls-19" points="434.91 337.84 830.09 566 824.01 566 434.91 341.36 434.91 337.84"/>
      <polygon class="cls-19" points="434.91 334.33 836.18 566 830.09 566 434.91 337.84 434.91 334.33"/>
      <polygon class="cls-19" points="434.91 330.82 842.26 566 836.18 566 434.91 334.33 434.91 330.82"/>
      <polygon class="cls-19" points="434.91 327.31 848.34 566 842.26 566 434.91 330.82 434.91 327.31"/>
      <polygon class="cls-106" points="434.91 323.8 854.43 566 848.34 566 434.91 327.31 434.91 323.8"/>
      <polygon class="cls-106" points="434.91 320.28 860.51 566 854.43 566 434.91 323.8 434.91 320.28"/>
      <polygon class="cls-106" points="434.91 316.77 866.6 566 860.51 566 434.91 320.28 434.91 316.77"/>
      <polygon class="cls-106" points="434.91 313.26 872.68 566 866.6 566 434.91 316.77 434.91 313.26"/>
      <polygon class="cls-106" points="434.91 309.75 878.76 566 872.68 566 434.91 313.26 434.91 309.75"/>
      <polygon class="cls-106" points="434.91 306.23 884.85 566 878.76 566 434.91 309.75 434.91 306.23"/>
      <polygon class="cls-106" points="434.91 302.72 890.93 566 884.85 566 434.91 306.23 434.91 302.72"/>
      <polygon class="cls-106" points="434.91 299.21 897.01 566 890.93 566 434.91 302.72 434.91 299.21"/>
      <polygon class="cls-106" points="434.91 295.7 903.1 566 897.01 566 434.91 299.21 434.91 295.7"/>
      <polygon class="cls-25" points="434.91 292.18 909.18 566 903.1 566 434.91 295.7 434.91 292.18"/>
      <polygon class="cls-25" points="434.91 288.67 915.26 566 909.18 566 434.91 292.18 434.91 288.67"/>
      <polygon class="cls-25" points="434.91 285.16 921.35 566 915.26 566 434.91 288.67 434.91 285.16"/>
      <path class="cls-25" d="M434.91,281.65l490.03,282.92-.83,1.44c-2.95,2.99-486.66-281-489.2-280.84v-3.51Z"/>
      <polygon class="cls-25" points="434.91 278.14 926.46 561.93 924.94 564.57 434.91 281.65 434.91 278.14"/>
      <polygon class="cls-116" points="434.91 274.62 927.98 559.3 926.46 561.93 434.91 278.14 434.91 274.62"/>
      <polygon class="cls-20" points="434.91 271.11 929.5 556.66 927.98 559.3 434.91 274.62 434.91 271.11"/>
      <polygon class="cls-20" points="434.91 267.6 931.02 554.03 929.5 556.66 434.91 271.11 434.91 267.6"/>
      <polygon class="cls-20" points="434.91 264.09 932.54 551.39 931.02 554.03 434.91 267.6 434.91 264.09"/>
      <polygon class="cls-20" points="434.91 260.57 934.07 548.76 932.54 551.39 434.91 264.09 434.91 260.57"/>
      <polygon class="cls-20" points="434.91 257.06 935.59 546.13 934.07 548.76 434.91 260.57 434.91 257.06"/>
      <polygon class="cls-20" points="434.91 253.55 937.11 543.49 935.59 546.13 434.91 257.06 434.91 253.55"/>
      <polygon class="cls-126" points="434.91 250.04 938.63 540.86 937.11 543.49 434.91 253.55 434.91 250.04"/>
      <polygon class="cls-126" points="434.91 246.52 940.15 538.22 938.63 540.86 434.91 250.04 434.91 246.52"/>
      <polygon class="cls-126" points="434.91 243.01 941.67 535.59 940.15 538.22 434.91 246.52 434.91 243.01"/>
      <polygon class="cls-126" points="434.91 239.5 943.19 532.95 941.67 535.59 434.91 243.01 434.91 239.5"/>
      <polygon class="cls-59" points="434.91 235.99 944.71 530.32 943.19 532.95 434.91 239.5 434.91 235.99"/>
      <polygon class="cls-59" points="434.91 232.47 946.23 527.69 944.71 530.32 434.91 235.99 434.91 232.47"/>
      <polygon class="cls-59" points="434.91 228.96 947.75 525.05 946.23 527.69 434.91 232.47 434.91 228.96"/>
      <polygon class="cls-59" points="434.91 225.45 949.27 522.42 947.75 525.05 434.91 228.96 434.91 225.45"/>
      <polygon class="cls-51" points="434.91 221.94 950.8 519.78 949.27 522.42 434.91 225.45 434.91 221.94"/>
      <path class="cls-51" d="M434.91,218.43l516.12,297.98c-.04.34.16,3.21-.23,3.38L434.91,221.94v-3.51Z"/>
      <polygon class="cls-51" points="434.91 214.91 951.03 512.89 951.03 516.41 434.91 218.43 434.91 214.91"/>
      <polygon class="cls-51" points="434.91 211.4 951.03 509.38 951.03 512.89 434.91 214.91 434.91 211.4"/>
      <polygon class="cls-74" points="434.91 207.89 951.03 505.87 951.03 509.38 434.91 211.4 434.91 207.89"/>
      <polygon class="cls-74" points="434.91 204.38 951.03 502.36 951.03 505.87 434.91 207.89 434.91 204.38"/>
      <polygon class="cls-74" points="434.91 200.86 951.03 498.84 951.03 502.36 434.91 204.38 434.91 200.86"/>
      <polygon class="cls-38" points="434.91 197.35 951.03 495.33 951.03 498.84 434.91 200.86 434.91 197.35"/>
      <polygon class="cls-38" points="434.91 193.84 951.03 491.82 951.03 495.33 434.91 197.35 434.91 193.84"/>
      <polygon class="cls-38" points="434.91 190.33 951.03 488.31 951.03 491.82 434.91 193.84 434.91 190.33"/>
      <polygon class="cls-22" points="434.91 186.81 951.03 484.8 951.03 488.31 434.91 190.33 434.91 186.81"/>
      <polygon class="cls-15" points="434.91 183.3 951.03 481.28 951.03 484.8 434.91 186.81 434.91 183.3"/>
      <polygon class="cls-15" points="434.91 179.79 951.03 477.77 951.03 481.28 434.91 183.3 434.91 179.79"/>
      <polygon class="cls-103" points="434.91 176.28 951.03 474.26 951.03 477.77 434.91 179.79 434.91 176.28"/>
      <polygon class="cls-103" points="434.91 172.77 951.03 470.75 951.03 474.26 434.91 176.28 434.91 172.77"/>
      <polygon class="cls-67" points="434.91 169.25 951.03 467.23 951.03 470.75 434.91 172.77 434.91 169.25"/>
      <polygon class="cls-67" points="434.91 165.74 951.03 463.72 951.03 467.23 434.91 169.25 434.91 165.74"/>
      <polygon class="cls-67" points="434.91 162.23 951.03 460.21 951.03 463.72 434.91 165.74 434.91 162.23"/>
      <polygon class="cls-100" points="434.91 158.72 951.03 456.7 951.03 460.21 434.91 162.23 434.91 158.72"/>
      <polygon class="cls-100" points="434.91 155.2 951.03 453.18 951.03 456.7 434.91 158.72 434.91 155.2"/>
      <polygon class="cls-84" points="434.91 151.69 951.03 449.67 951.03 453.18 434.91 155.2 434.91 151.69"/>
      <polygon class="cls-84" points="434.91 148.18 951.03 446.16 951.03 449.67 434.91 151.69 434.91 148.18"/>
      <polygon class="cls-70" points="434.91 144.67 951.03 442.65 951.03 446.16 434.91 148.18 434.91 144.67"/>
      <polygon class="cls-70" points="434.91 141.15 951.03 439.14 951.03 442.65 434.91 144.67 434.91 141.15"/>
      <polygon class="cls-29" points="434.91 137.64 951.03 435.62 951.03 439.14 434.91 141.15 434.91 137.64"/>
      <polygon class="cls-29" points="434.91 134.13 951.03 432.11 951.03 435.62 434.91 137.64 434.91 134.13"/>
      <polygon class="cls-96" points="434.91 130.62 951.03 428.6 951.03 432.11 434.91 134.13 434.91 130.62"/>
      <polygon class="cls-96" points="434.91 127.1 951.03 425.09 951.03 428.6 434.91 130.62 434.91 127.1"/>
      <polygon class="cls-31" points="434.91 123.59 951.03 421.57 951.03 425.09 434.91 127.1 434.91 123.59"/>
      <polygon class="cls-31" points="434.91 120.08 951.03 418.06 951.03 421.57 434.91 123.59 434.91 120.08"/>
      <polygon class="cls-91" points="434.91 116.57 951.03 414.55 951.03 418.06 434.91 120.08 434.91 116.57"/>
      <polygon class="cls-91" points="434.91 113.06 951.03 411.04 951.03 414.55 434.91 116.57 434.91 113.06"/>
      <polygon class="cls-55" points="434.91 109.54 951.03 407.52 951.03 411.04 434.91 113.06 434.91 109.54"/>
      <polygon class="cls-55" points="434.91 106.03 951.03 404.01 951.03 407.52 434.91 109.54 434.91 106.03"/>
      <polygon class="cls-110" points="434.91 102.52 951.03 400.5 951.03 404.01 434.91 106.03 434.91 102.52"/>
      <polygon class="cls-12" points="434.91 99.01 951.03 396.99 951.03 400.5 434.91 102.52 434.91 99.01"/>
      <polygon class="cls-12" points="434.91 96.51 435.35 95.75 951.03 393.47 951.03 396.99 434.91 99.01 434.91 96.51"/>
      <polygon class="cls-1" points="435.35 95.75 436.87 93.11 951.03 389.96 951.03 393.47 435.35 95.75"/>
      <polygon class="cls-80" points="436.87 93.11 438.39 90.48 951.03 386.45 951.03 389.96 436.87 93.11"/>
      <polygon class="cls-80" points="438.39 90.48 439.92 87.85 951.03 382.94 951.03 386.45 438.39 90.48"/>
      <polygon class="cls-48" points="439.92 87.85 441.44 85.21 951.03 379.43 951.03 382.94 439.92 87.85"/>
      <polygon class="cls-66" points="441.44 85.21 442.96 82.58 951.03 375.91 951.03 379.43 441.44 85.21"/>
      <polygon class="cls-66" points="442.96 82.58 444.48 79.94 951.03 372.4 951.03 375.91 442.96 82.58"/>
      <polygon class="cls-44" points="444.48 79.94 446 77.31 951.03 368.89 951.03 372.4 444.48 79.94"/>
      <polygon class="cls-9" points="446 77.31 447.52 74.67 951.03 365.38 951.03 368.89 446 77.31"/>
      <polygon class="cls-58" points="447.52 74.67 449.04 72.04 951.03 361.86 951.03 365.38 447.52 74.67"/>
      <polygon class="cls-58" points="449.04 72.04 450.56 69.41 951.03 358.35 951.03 361.86 449.04 72.04"/>
      <polygon class="cls-85" points="450.56 69.41 452.08 66.77 951.03 354.84 951.03 358.35 450.56 69.41"/>
      <polygon class="cls-81" points="452.08 66.77 453.6 64.14 951.03 351.33 951.03 354.84 452.08 66.77"/>
      <polygon class="cls-60" points="453.6 64.14 455.12 61.5 951.03 347.81 951.03 351.33 453.6 64.14"/>
      <polygon class="cls-6" points="455.12 61.5 456.64 58.87 951.03 344.3 951.03 347.81 455.12 61.5"/>
      <polygon class="cls-6" points="456.64 58.87 458.17 56.23 951.03 340.79 951.03 344.3 456.64 58.87"/>
      <polygon class="cls-62" points="458.17 56.23 459.69 53.6 951.03 337.28 951.03 340.79 458.17 56.23"/>
      <polygon class="cls-89" points="459.69 53.6 461.21 50.97 951.03 333.77 951.03 337.28 459.69 53.6"/>
      <polygon class="cls-11" points="461.21 50.97 461.83 49.89 465.42 49.89 951.03 330.25 951.03 333.77 461.21 50.97"/>
      <polygon class="cls-93" points="471.5 49.89 951.03 326.74 951.03 330.25 465.42 49.89 471.5 49.89"/>
      <polygon class="cls-86" points="477.59 49.89 951.03 323.23 951.03 326.74 471.5 49.89 477.59 49.89"/>
      <polygon class="cls-33" points="483.67 49.89 951.03 319.72 951.03 323.23 477.59 49.89 483.67 49.89"/>
      <polygon class="cls-69" points="489.75 49.89 951.03 316.2 951.03 319.72 483.67 49.89 489.75 49.89"/>
      <polygon class="cls-95" points="495.84 49.89 951.03 312.69 951.03 316.2 489.75 49.89 495.84 49.89"/>
      <polygon class="cls-125" points="501.92 49.89 951.03 309.18 951.03 312.69 495.84 49.89 501.92 49.89"/>
      <polygon class="cls-10" points="508 49.89 951.03 305.67 951.03 309.18 501.92 49.89 508 49.89"/>
      <polygon class="cls-26" points="514.09 49.89 951.03 302.15 951.03 305.67 508 49.89 514.09 49.89"/>
      <polygon class="cls-52" points="520.17 49.89 951.03 298.64 951.03 302.15 514.09 49.89 520.17 49.89"/>
      <polygon class="cls-71" points="526.25 49.89 951.03 295.13 951.03 298.64 520.17 49.89 526.25 49.89"/>
      <polygon class="cls-45" points="532.34 49.89 951.03 291.62 951.03 295.13 526.25 49.89 532.34 49.89"/>
      <polygon class="cls-117" points="538.42 49.89 951.03 288.11 951.03 291.62 532.34 49.89 538.42 49.89"/>
      <polygon class="cls-5" points="544.5 49.89 951.03 284.59 951.03 288.11 538.42 49.89 544.5 49.89"/>
      <polygon class="cls-78" points="550.59 49.89 951.03 281.08 951.03 284.59 544.5 49.89 550.59 49.89"/>
      <polygon class="cls-8" points="556.67 49.89 951.03 277.57 951.03 281.08 550.59 49.89 556.67 49.89"/>
      <polygon class="cls-30" points="562.76 49.89 951.03 274.06 951.03 277.57 556.67 49.89 562.76 49.89"/>
      <polygon class="cls-28" points="568.84 49.89 951.03 270.54 951.03 274.06 562.76 49.89 568.84 49.89"/>
      <polygon class="cls-13" points="574.92 49.89 951.03 267.03 951.03 270.54 568.84 49.89 574.92 49.89"/>
      <polygon class="cls-122" points="581.01 49.89 951.03 263.52 951.03 267.03 574.92 49.89 581.01 49.89"/>
      <polygon class="cls-35" points="587.09 49.89 951.03 260.01 951.03 263.52 581.01 49.89 587.09 49.89"/>
      <polygon class="cls-87" points="593.17 49.89 951.03 256.49 951.03 260.01 587.09 49.89 593.17 49.89"/>
      <polygon class="cls-39" points="599.26 49.89 951.03 252.98 951.03 256.49 593.17 49.89 599.26 49.89"/>
      <polygon class="cls-112" points="605.34 49.89 951.03 249.47 951.03 252.98 599.26 49.89 605.34 49.89"/>
      <polygon class="cls-97" points="611.42 49.89 951.03 245.96 951.03 249.47 605.34 49.89 611.42 49.89"/>
      <polygon class="cls-118" points="617.51 49.89 951.03 242.44 951.03 245.96 611.42 49.89 617.51 49.89"/>
      <polygon class="cls-105" points="623.59 49.89 951.03 238.93 951.03 242.44 617.51 49.89 623.59 49.89"/>
      <polygon class="cls-40" points="629.67 49.89 951.03 235.42 951.03 238.93 623.59 49.89 629.67 49.89"/>
      <polygon class="cls-61" points="635.76 49.89 951.03 231.91 951.03 235.42 629.67 49.89 635.76 49.89"/>
      <polygon class="cls-76" points="641.84 49.89 951.03 228.4 951.03 231.91 635.76 49.89 641.84 49.89"/>
      <polygon class="cls-124" points="647.92 49.89 951.03 224.88 951.03 228.4 641.84 49.89 647.92 49.89"/>
      <polygon class="cls-2" points="654.01 49.89 951.03 221.37 951.03 224.88 647.92 49.89 654.01 49.89"/>
      <polygon class="cls-17" points="660.09 49.89 951.03 217.86 951.03 221.37 654.01 49.89 660.09 49.89"/>
      <polygon class="cls-24" points="666.18 49.89 951.03 214.35 951.03 217.86 660.09 49.89 666.18 49.89"/>
      <polygon class="cls-123" points="672.26 49.89 951.03 210.83 951.03 214.35 666.18 49.89 672.26 49.89"/>
      <polygon class="cls-90" points="678.34 49.89 951.03 207.32 951.03 210.83 672.26 49.89 678.34 49.89"/>
      <polygon class="cls-50" points="684.43 49.89 951.03 203.81 951.03 207.32 678.34 49.89 684.43 49.89"/>
      <polygon class="cls-109" points="690.51 49.89 951.03 200.3 951.03 203.81 684.43 49.89 690.51 49.89"/>
      <polygon class="cls-63" points="696.59 49.89 951.03 196.78 951.03 200.3 690.51 49.89 696.59 49.89"/>
      <polygon class="cls-46" points="702.68 49.89 951.03 193.27 951.03 196.78 696.59 49.89 702.68 49.89"/>
      <polygon class="cls-4" points="708.76 49.89 951.03 189.76 951.03 193.27 702.68 49.89 708.76 49.89"/>
      <polygon class="cls-47" points="714.84 49.89 951.03 186.25 951.03 189.76 708.76 49.89 714.84 49.89"/>
      <polygon class="cls-41" points="720.93 49.89 951.03 182.74 951.03 186.25 714.84 49.89 720.93 49.89"/>
      <polygon class="cls-42" points="727.01 49.89 951.03 179.22 951.03 182.74 720.93 49.89 727.01 49.89"/>
      <polygon class="cls-37" points="733.09 49.89 951.03 175.71 951.03 179.22 727.01 49.89 733.09 49.89"/>
      <polygon class="cls-98" points="739.18 49.89 951.03 172.2 951.03 175.71 733.09 49.89 739.18 49.89"/>
      <polygon class="cls-108" points="745.26 49.89 951.03 168.69 951.03 172.2 739.18 49.89 745.26 49.89"/>
      <polygon class="cls-119" points="751.34 49.89 951.03 165.17 951.03 168.69 745.26 49.89 751.34 49.89"/>
      <polygon class="cls-54" points="757.43 49.89 951.03 161.66 951.03 165.17 751.34 49.89 757.43 49.89"/>
      <polygon class="cls-27" points="763.51 49.89 951.03 158.15 951.03 161.66 757.43 49.89 763.51 49.89"/>
      <polygon class="cls-82" points="769.6 49.89 951.03 154.64 951.03 158.15 763.51 49.89 769.6 49.89"/>
      <polygon class="cls-79" points="775.68 49.89 951.03 151.12 951.03 154.64 769.6 49.89 775.68 49.89"/>
      <polygon class="cls-3" points="781.76 49.89 951.03 147.61 951.03 151.12 775.68 49.89 781.76 49.89"/>
      <polygon class="cls-107" points="787.85 49.89 951.03 144.1 951.03 147.61 781.76 49.89 787.85 49.89"/>
      <polygon class="cls-99" points="793.93 49.89 951.03 140.59 951.03 144.1 787.85 49.89 793.93 49.89"/>
      <polygon class="cls-88" points="800.01 49.89 951.03 137.07 951.03 140.59 793.93 49.89 800.01 49.89"/>
      <polygon class="cls-111" points="806.1 49.89 951.03 133.56 951.03 137.07 800.01 49.89 806.1 49.89"/>
      <polygon class="cls-57" points="812.18 49.89 951.03 130.05 951.03 133.56 806.1 49.89 812.18 49.89"/>
      <polygon class="cls-92" points="818.26 49.89 951.03 126.54 951.03 130.05 812.18 49.89 818.26 49.89"/>
      <polygon class="cls-77" points="824.35 49.89 951.03 123.03 951.03 126.54 818.26 49.89 824.35 49.89"/>
      <polygon class="cls-121" points="830.43 49.89 951.03 119.51 951.03 123.03 824.35 49.89 830.43 49.89"/>
      <polygon class="cls-7" points="836.51 49.89 951.03 116 951.03 119.51 830.43 49.89 836.51 49.89"/>
      <polygon class="cls-34" points="842.6 49.89 951.03 112.49 951.03 116 836.51 49.89 842.6 49.89"/>
      <polygon class="cls-23" points="848.68 49.89 951.03 108.98 951.03 112.49 842.6 49.89 848.68 49.89"/>
      <polygon class="cls-64" points="854.76 49.89 951.03 105.46 951.03 108.98 848.68 49.89 854.76 49.89"/>
      <polygon class="cls-53" points="860.85 49.89 951.03 101.95 951.03 105.46 854.76 49.89 860.85 49.89"/>
      <polygon class="cls-101" points="866.93 49.89 951.03 98.44 951.03 101.95 860.85 49.89 866.93 49.89"/>
      <polygon class="cls-114" points="873.02 49.89 951.03 94.93 951.03 98.44 866.93 49.89 873.02 49.89"/>
      <polygon class="cls-36" points="879.1 49.89 951.03 91.41 951.03 94.93 873.02 49.89 879.1 49.89"/>
      <polygon class="cls-83" points="885.18 49.89 951.03 87.9 951.03 91.41 879.1 49.89 885.18 49.89"/>
      <polygon class="cls-49" points="891.27 49.89 951.03 84.39 951.03 87.9 885.18 49.89 891.27 49.89"/>
      <polygon class="cls-104" points="897.35 49.89 951.03 80.88 951.03 84.39 891.27 49.89 897.35 49.89"/>
      <polygon class="cls-113" points="903.43 49.89 951.03 77.37 951.03 80.88 897.35 49.89 903.43 49.89"/>
      <polygon class="cls-115" points="909.52 49.89 951.03 73.85 951.03 77.37 903.43 49.89 909.52 49.89"/>
      <polygon class="cls-120" points="915.6 49.89 951.03 70.34 951.03 73.85 909.52 49.89 915.6 49.89"/>
      <polygon class="cls-32" points="921.68 49.89 951.03 66.83 951.03 70.34 915.6 49.89 921.68 49.89"/>
      <polygon class="cls-65" points="927.77 49.89 951.03 63.32 951.03 66.83 921.68 49.89 927.77 49.89"/>
      <polygon class="cls-75" points="933.85 49.89 951.03 59.8 951.03 63.32 927.77 49.89 933.85 49.89"/>
      <polygon class="cls-21" points="939.93 49.89 951.03 56.29 951.03 59.8 933.85 49.89 939.93 49.89"/>
      <polygon class="cls-72" points="946.02 49.89 951.03 52.78 951.03 56.29 939.93 49.89 946.02 49.89"/>
      <polygon class="cls-16" points="951.03 52.78 946.02 49.89 951.03 49.89 951.03 52.78"/>
    </g>
    <g>
      <path id="rect30-2" data-name="rect30" class="cls-73" d="M661.81,72.06c-1.39.02-3.18.65-3.2,3.03-.02,2.39,2.45,7.47,2.32,19.12-.14,12.11-2.92,20.35-19.83,41.07l-67.03,82.14c-38.79,47.53-65.16,69.2-65.28,121.05-.12,51.85,26.51,77.19,65.31,108.41,38.8,31.23,89.06,71.77,128.16,103.53.89.72,1.99,1.49,3.39,1.46,1.39-.02,3.18-.65,3.2-3.03.02-2.39-2.65-4.73-2.51-16.39.14-12.11,1.32-19.4,18.33-40.03l70.39-85.36c39.03-47.33,63.19-68.5,63.31-119.73.12-51.23-26.73-79.2-61.11-105.87-45.22-35.08-97.79-79.3-132.04-107.96-.88-.73-1.99-1.49-3.39-1.46Z"/>
      <path id="path1312-7-2" data-name="path1312-7" class="cls-94" d="M603.75,247.68v21.11h59.63v137.67c0,19.33,13.77,28.14,27.26,28.14s22.05-4.49,22.05-4.49c0,0-8.23-6.66-8.26-36.26-.03-28.71,0-119.24,0-132.01,0-12.77-14.88-35.76-39.37-35.76h-37.85c-12.41,0-23.44,10.1-23.44,21.6h0ZM691.32,226.08c-.78,0-1.41.63-1.41,1.41s.78,1.36,1.41,1.83c2.6,1.94,10.69,7.68,14.56,15.53s3.96,14.97,6.47,19.09,6.61,4.85,10.94,4.85h31.16c6.89,0,9.59-4.63,9.59-10.12v-32.59h-72.72Z"/>
    </g>
  </g>
  <path class="cls-68" d="M506.18,888.53v2.18h-3.22v-19.42h3.22v7.72c1.04-1.46,2.5-2.63,4.76-2.63,3.33,0,6.54,2.63,6.54,7.29v.06c0,4.65-3.19,7.28-6.54,7.28-2.32,0-3.78-1.17-4.76-2.48h0ZM514.21,883.72v-.06c0-2.71-1.84-4.5-4.02-4.5s-4.1,1.81-4.1,4.5v.06c0,2.7,1.92,4.48,4.1,4.48s4.02-1.72,4.02-4.48h0Z"/>
  <path class="cls-68" d="M519.66,894.19l1.09-2.39c.58.33,1.22.54,1.89.54.9,0,1.46-.39,2-1.62l-5.85-14.05h3.43l3.99,10.43,3.64-10.43h3.35l-5.59,14.44c-1.12,2.88-2.37,3.94-4.63,3.94-1.36,0-2.34-.32-3.33-.86h0Z"/>
</svg>